<?xml version="1.0" encoding="UTF-8"?>
<svg xmlns="http://www.w3.org/2000/svg" xmlns:xlink="http://www.w3.org/1999/xlink" viewBox="0 0 1872.196 1830">
  <defs>
    <style>
      .cls-1 {
        fill: url(#linear-gradient);
      }

      .cls-2 {
        fill: #f9efe4;
      }

      .cls-3, .cls-4, .cls-5 {
        fill: #fff;
      }

      .cls-4, .cls-5 {
        mix-blend-mode: soft-light;
      }

      .cls-4, .cls-6, .cls-7, .cls-8 {
        opacity: .3;
      }

      .cls-5, .cls-9 {
        opacity: .5;
      }

      .cls-10 {
        fill: url(#linear-gradient-36);
        opacity: .25;
      }

      .cls-10, .cls-6, .cls-7, .cls-8 {
        mix-blend-mode: multiply;
      }

      .cls-6 {
        fill: url(#linear-gradient-21);
      }

      .cls-7 {
        fill: url(#linear-gradient-24);
      }

      .cls-11 {
        fill: url(#linear-gradient-8);
      }

      .cls-12 {
        fill: url(#linear-gradient-9);
      }

      .cls-13 {
        fill: url(#linear-gradient-3);
      }

      .cls-14 {
        fill: url(#linear-gradient-4);
      }

      .cls-15 {
        fill: url(#linear-gradient-2);
      }

      .cls-16 {
        fill: url(#linear-gradient-6);
      }

      .cls-17 {
        fill: url(#linear-gradient-7);
      }

      .cls-18 {
        fill: url(#linear-gradient-5);
      }

      .cls-19 {
        fill: url(#linear-gradient-41);
      }

      .cls-20 {
        fill: url(#linear-gradient-40);
      }

      .cls-21 {
        fill: url(#linear-gradient-43);
      }

      .cls-22 {
        fill: url(#linear-gradient-42);
      }

      .cls-23 {
        fill: url(#linear-gradient-45);
      }

      .cls-24 {
        fill: url(#linear-gradient-44);
      }

      .cls-25 {
        fill: url(#linear-gradient-14);
      }

      .cls-26 {
        fill: url(#linear-gradient-18);
      }

      .cls-27 {
        fill: url(#linear-gradient-22);
      }

      .cls-28 {
        fill: url(#linear-gradient-20);
      }

      .cls-29 {
        fill: url(#linear-gradient-23);
      }

      .cls-30 {
        fill: url(#linear-gradient-15);
      }

      .cls-31 {
        fill: url(#linear-gradient-19);
      }

      .cls-32 {
        fill: url(#linear-gradient-16);
      }

      .cls-33 {
        fill: url(#linear-gradient-17);
      }

      .cls-34 {
        fill: url(#linear-gradient-13);
      }

      .cls-35 {
        fill: url(#linear-gradient-12);
      }

      .cls-36 {
        fill: url(#linear-gradient-10);
      }

      .cls-37 {
        fill: url(#linear-gradient-11);
      }

      .cls-38 {
        fill: url(#linear-gradient-27);
      }

      .cls-39 {
        fill: url(#linear-gradient-26);
      }

      .cls-40 {
        fill: url(#linear-gradient-38);
      }

      .cls-41 {
        fill: url(#linear-gradient-35);
      }

      .cls-42 {
        fill: url(#linear-gradient-37);
      }

      .cls-43 {
        fill: url(#linear-gradient-34);
      }

      .cls-44 {
        fill: url(#linear-gradient-39);
      }

      .cls-45 {
        fill: url(#linear-gradient-25);
      }

      .cls-46 {
        fill: url(#linear-gradient-28);
      }

      .cls-47 {
        fill: url(#linear-gradient-29);
      }

      .cls-48 {
        fill: url(#linear-gradient-33);
      }

      .cls-49 {
        fill: url(#linear-gradient-30);
      }

      .cls-50 {
        fill: url(#linear-gradient-32);
      }

      .cls-51 {
        fill: url(#linear-gradient-31);
      }

      .cls-52 {
        isolation: isolate;
      }
    </style>
    <linearGradient id="linear-gradient" x1="101.198" y1="1277.01" x2="933.343" y2="1277.01" gradientUnits="userSpaceOnUse">
      <stop offset="0" stop-color="#799b91"/>
      <stop offset="1" stop-color="#3e6764"/>
    </linearGradient>
    <linearGradient id="linear-gradient-2" x1="725.133" y1="902.396" x2="1094.268" y2="1528.523" gradientTransform="translate(1255.547 -141.303) rotate(179.152) scale(1 -1)" gradientUnits="userSpaceOnUse">
      <stop offset="0" stop-color="#ef9f8e"/>
      <stop offset="1" stop-color="#e68273"/>
    </linearGradient>
    <linearGradient id="linear-gradient-3" x1="238.483" y1="1051.042" x2="546.838" y2="1051.042" gradientUnits="userSpaceOnUse">
      <stop offset="0" stop-color="#f6af9a"/>
      <stop offset=".996" stop-color="#f89f8a"/>
    </linearGradient>
    <linearGradient id="linear-gradient-4" x1="1112.43" y1="1292.119" x2="1761.618" y2="1292.119" xlink:href="#linear-gradient"/>
    <linearGradient id="linear-gradient-5" x1="993.905" y1="1005.032" x2="980.783" y2="1204.498" gradientUnits="userSpaceOnUse">
      <stop offset="0" stop-color="#cbaf85"/>
      <stop offset="1" stop-color="#ba7c44"/>
    </linearGradient>
    <linearGradient id="linear-gradient-6" x1="526.336" y1="1824.675" x2="619.985" y2="1611.669" gradientUnits="userSpaceOnUse">
      <stop offset="0" stop-color="#96888e"/>
      <stop offset="1" stop-color="#706369"/>
    </linearGradient>
    <linearGradient id="linear-gradient-7" x1="639.661" y1="1533.156" x2="1593.024" y2="1827.05" gradientUnits="userSpaceOnUse">
      <stop offset="0" stop-color="#f3e9e1"/>
      <stop offset="1" stop-color="#e1d1c5"/>
    </linearGradient>
    <linearGradient id="linear-gradient-8" x1="751.536" y1="1702.863" x2="1562.392" y2="1702.863" xlink:href="#linear-gradient-6"/>
    <linearGradient id="linear-gradient-9" x1="662.286" y1="1250.328" x2="498.106" y2="1803.358" xlink:href="#linear-gradient-5"/>
    <linearGradient id="linear-gradient-10" x1="706.599" y1="1316.013" x2="1659.96" y2="1609.906" xlink:href="#linear-gradient-7"/>
    <linearGradient id="linear-gradient-11" x1="1248.458" y1="841.988" x2="1195.992" y2="1229.316" xlink:href="#linear-gradient-5"/>
    <linearGradient id="linear-gradient-12" x1="1015.671" y1="882.144" x2="1772.087" y2="1689.669" gradientTransform="translate(1411.203 -506.728) rotate(56.815)" gradientUnits="userSpaceOnUse">
      <stop offset="0" stop-color="#86a1c3"/>
      <stop offset=".996" stop-color="#415b7e"/>
    </linearGradient>
    <linearGradient id="linear-gradient-13" x1="1040.71" y1="991.902" x2="1166.629" y2="991.902" gradientTransform="matrix(1, 0, 0, 1, 0, 0)" xlink:href="#linear-gradient-12"/>
    <linearGradient id="linear-gradient-14" x1="1166.467" y1="1088.039" x2="1269.858" y2="1088.039" gradientTransform="matrix(1, 0, 0, 1, 0, 0)" xlink:href="#linear-gradient-12"/>
    <linearGradient id="linear-gradient-15" x1="1136.32" y1="728.428" x2="1294.936" y2="728.428" gradientUnits="userSpaceOnUse">
      <stop offset="0" stop-color="#95afc7"/>
      <stop offset="1" stop-color="#7595b6"/>
    </linearGradient>
    <linearGradient id="linear-gradient-16" x1="546.838" y1="670.868" x2="1250.366" y2="670.868" xlink:href="#linear-gradient-15"/>
    <linearGradient id="linear-gradient-17" x1="670.388" y1="1048.539" x2="1126.816" y2="1048.539" xlink:href="#linear-gradient-15"/>
    <linearGradient id="linear-gradient-18" x1="1004.291" y1="353.172" x2="964.922" y2="712.737" gradientTransform="matrix(1, 0, 0, 1, 0, 0)" xlink:href="#linear-gradient-12"/>
    <linearGradient id="linear-gradient-19" x1="507.411" y1="727.652" x2="666.027" y2="727.652" xlink:href="#linear-gradient-15"/>
    <linearGradient id="linear-gradient-20" x1="489.301" y1="727.652" x2="558.661" y2="727.652" xlink:href="#linear-gradient-15"/>
    <linearGradient id="linear-gradient-21" x1="670.388" y1="1048.539" x2="974.39" y2="1048.539" gradientUnits="userSpaceOnUse">
      <stop offset="0" stop-color="#a6b2c7"/>
      <stop offset="1" stop-color="#7595b6"/>
    </linearGradient>
    <linearGradient id="linear-gradient-22" x1="832.55" y1="1445.508" x2="876.53" y2="1105.246" xlink:href="#linear-gradient-15"/>
    <linearGradient id="linear-gradient-23" x1="486.694" y1="-1.412" x2="730.049" y2="593.795" gradientUnits="userSpaceOnUse">
      <stop offset="0" stop-color="#5d535a"/>
      <stop offset="1" stop-color="#464143"/>
    </linearGradient>
    <linearGradient id="linear-gradient-24" x1="688.334" y1="698.746" x2="697.671" y2="439.304" xlink:href="#linear-gradient-23"/>
    <linearGradient id="linear-gradient-25" x1="-2009.342" y1="-686.572" x2="-2052.954" y2="-361.215" gradientTransform="translate(2820.167 209.303) rotate(-30.06)" xlink:href="#linear-gradient-23"/>
    <linearGradient id="linear-gradient-26" x1="-1955.354" y1="-1223.905" x2="-2010.785" y2="-519.525" gradientTransform="translate(2820.167 209.303) rotate(-30.06)" xlink:href="#linear-gradient-23"/>
    <linearGradient id="linear-gradient-27" x1="528.663" y1="756.542" x2="569.354" y2="376.176" xlink:href="#linear-gradient-5"/>
    <linearGradient id="linear-gradient-28" x1="4875.603" y1="1532.207" x2="4899.984" y2="1304.295" gradientTransform="translate(5452.497 -276.19) rotate(-176.193) scale(1 -1)" xlink:href="#linear-gradient-5"/>
    <linearGradient id="linear-gradient-29" x1="756.488" y1="829.263" x2="782.734" y2="1222.946" gradientTransform="translate(1228.893 -169.656) rotate(56.815)" xlink:href="#linear-gradient-12"/>
    <linearGradient id="linear-gradient-30" x1="773.609" y1="327.916" x2="734.241" y2="687.481" gradientTransform="matrix(1, 0, 0, 1, 0, 0)" xlink:href="#linear-gradient-12"/>
    <linearGradient id="linear-gradient-31" x1="897.605" y1="819.855" x2="923.851" y2="1213.538" gradientTransform="matrix(1, 0, 0, 1, 0, 0)" xlink:href="#linear-gradient-12"/>
    <linearGradient id="linear-gradient-32" x1="897.147" y1="341.442" x2="857.779" y2="701.005" gradientTransform="matrix(1, 0, 0, 1, 0, 0)" xlink:href="#linear-gradient-12"/>
    <linearGradient id="linear-gradient-33" x1="1064.692" y1="359.788" x2="1025.323" y2="719.352" gradientTransform="matrix(1, 0, 0, 1, 0, 0)" xlink:href="#linear-gradient-12"/>
    <linearGradient id="linear-gradient-34" x1="845.333" y1="1134.88" x2="1141.164" y2="1134.88" xlink:href="#linear-gradient-23"/>
    <linearGradient id="linear-gradient-35" x1="1018.848" y1="1066.435" x2="1436.452" y2="1066.435" xlink:href="#linear-gradient-6"/>
    <linearGradient id="linear-gradient-36" x1="1018.848" y1="1066.435" x2="1341.76" y2="1066.435" xlink:href="#linear-gradient-6"/>
    <linearGradient id="linear-gradient-37" x1="1338.695" y1="403.411" x2="1560.709" y2="455.856" xlink:href="#linear-gradient-23"/>
    <linearGradient id="linear-gradient-38" x1="-3619.858" y1="343.132" x2="-3429.523" y2="696.148" gradientTransform="translate(-2096.125) rotate(-180) scale(1 -1)" xlink:href="#linear-gradient-3"/>
    <linearGradient id="linear-gradient-39" x1="-3675.647" y1="366.456" x2="-3489.128" y2="740.755" gradientTransform="translate(-2096.125) rotate(-180) scale(1 -1)" xlink:href="#linear-gradient-3"/>
    <linearGradient id="linear-gradient-40" x1="997.869" y1="223.241" x2="1219.883" y2="275.686" xlink:href="#linear-gradient-23"/>
    <linearGradient id="linear-gradient-41" x1="-3279.032" y1="162.963" x2="-3088.697" y2="515.978" gradientTransform="translate(-2096.125) rotate(-180) scale(1 -1)" xlink:href="#linear-gradient-3"/>
    <linearGradient id="linear-gradient-42" x1="-3334.821" y1="186.287" x2="-3148.302" y2="560.585" gradientTransform="translate(-2096.125) rotate(-180) scale(1 -1)" xlink:href="#linear-gradient-3"/>
    <linearGradient id="linear-gradient-43" x1="1380.744" y1="740.754" x2="1602.759" y2="793.199" xlink:href="#linear-gradient-23"/>
    <linearGradient id="linear-gradient-44" x1="-3661.908" y1="680.476" x2="-3471.572" y2="1033.491" gradientTransform="translate(-2096.125) rotate(-180) scale(1 -1)" xlink:href="#linear-gradient-3"/>
    <linearGradient id="linear-gradient-45" x1="-3717.696" y1="703.8" x2="-3531.177" y2="1078.098" gradientTransform="translate(-2096.125) rotate(-180) scale(1 -1)" xlink:href="#linear-gradient-3"/>
  </defs>
  <g class="cls-52">
    <g id="Illustration">
      <g>
        <path class="cls-2" d="M965.229,.411C485.954-13.546,70.802,329.407,8.079,779.405c-68.578,492.011,308.866,934.702,773.295,1005.606,577.672,88.193,1137.98-422.01,1087.67-975.504C1831.141,392.497,1452.42,14.599,965.229,.411Z"/>
        <g>
          <path class="cls-1" d="M718.627,1642.835c44.229-19.093,98.082-51.539,141.468-107.05,46.942-60.059,97.957-168.002,60.006-212.136-14.169-16.477-41.807-25.303-60.675-17.137-27.876,12.065-17.65,53.011-52.665,113.268-6.471,11.136-39.928,68.711-68.318,62.824-14.114-2.927-24.133-20.949-27.191-36.204-8.942-44.604,40.953-68.92,75.319-132.212,34.842-64.17,49.345-160.342,6.307-207.359-24.732-27.019-70.076-39.563-91.864-24.272-9.311,6.535-12.986,17.217-21.272,95.719-6.8,64.432-7.003,82.608-21.814,93.544-15.245,11.256-44.147,13.496-59.988,.095-41.255-34.902,50.393-138.412,18.895-264.694-14.115-56.591-56.778-133.058-112.552-133.562-37.704-.341-79.538,34.051-86.357,70.858-6.147,33.181,19.988,47.666,29.377,114.301,2.849,20.221,8.712,61.832-6.31,69.238-17.636,8.694-55.259-34.092-64.165-44.599-67.051-79.105-41.855-140.115-90.842-172.916-38.198-25.577-100.413-19.881-140.001,13.098-34.64,28.859-52.978,79.463-41.075,121.377,12.111,42.644,61.57,72.354,160.488,131.773,46.909,28.177,82.614,45.848,94.5,85.691,5.794,19.423,7.38,48.979-5.513,56.12-28.455,15.762-84.95-101.195-163.2-95.57-40.052,2.879-79.28,37.404-88.065,77.384-10.764,48.986,25.324,100.923,66.537,120.657,53.772,25.748,84.897-18.346,175.213-1.781,40.066,7.349,106.593,29.352,110.124,65.088,1.538,15.559-8.758,34.817-24.694,42.346-35.72,16.877-68.737-39.836-137.593-46.252-49.608-4.623-108.409,17.738-114.276,46.826-8.283,41.065,89.102,94.709,138.497,116.245,59.714,26.033,193.999,68.23,401.698-.707Z"/>
          <g class="cls-9">
            <path class="cls-3" d="M691.561,1630.27c-28.693-103.899-166.83-288.365-249.321-369.71-80.718-79.597-178.382-215.766-179.361-217.13l-2.682,1.918c.977,1.369,98.806,137.763,179.726,217.561,82.235,81.093,219.909,264.859,248.459,368.24l3.179-.879Z"/>
          </g>
        </g>
        <g>
          <path class="cls-15" d="M224.987,1056.045l.298,20.141c.088,5.909,5.043,10.241,11.064,9.677l10.942-1.025c1.515,9.507,4.063,18.584,7.537,27.126l-8.991,6.009c-5.164,3.45-6.852,10.159-3.769,14.98l10.501,16.42c3.078,4.813,16.915,7.087,22.064,3.63l1.339-6.891c6.222,7.041,13.26,13.321,20.97,18.725l-4.659,8.63c-2.912,5.395-1.042,11.731,4.174,14.151l17.752,8.234c5.2,2.412,21.679,2.02,24.576-3.364l-5.456-10.312c9.137,2.627,18.732,4.25,28.655,4.77l.132,8.924c.087,5.856,4.952,10.109,10.863,9.502l20.113-2.066c5.89-.605,10.591-5.827,10.505-11.666l-.132-8.897c9.809-2.514,19.236-6.05,28.158-10.479l4.628,7.317c3.003,4.747,20.098,6.429,25.119,3.004l6.502-12.272c5.006-3.416,6.64-10.023,3.651-14.764l-4.786-7.591c7.347-6.824,14-14.365,19.829-22.484l8.397,3.981c5.073,2.405,19.781,3.043,22.607-2.262l1.316-21.057c2.821-5.296,1.008-11.542-4.051-13.957l-8.826-4.213c3.1-9.015,5.291-18.377,6.474-27.964l10.537-.987c5.785-.542,10.402-5.67,10.316-11.457l-.292-19.722c-.086-5.786-4.842-10.05-10.627-9.525l-11.158,1.013c-1.719-9.081-4.392-17.748-7.918-25.909l9.932-6.669c4.974-3.341,6.597-9.905,3.627-14.666l.99-19.66c-2.975-4.77-20.55-2.521-25.538,.812l-10.453,6.985c-5.925-6.489-12.559-12.309-19.789-17.364l6.095-11.326c2.84-5.277,1.015-11.566-4.078-14.049l-7.899-10.314c-5.109-2.491-21.056,1.608-23.91,6.895l-6.266,11.607c-8.452-2.444-17.305-4.042-26.465-4.689l-.191-12.928c-.086-5.839-4.93-10.181-10.821-9.699l-20.12,1.646c-5.913,.484-10.639,5.622-10.552,11.477l.192,12.965c-9.181,2.183-18.048,5.273-26.507,9.152l3.337-13.85c-3.049-4.836-19.685-2.785-24.799,.579l-17.46,11.484c-5.13,3.373-6.807,10.038-3.743,14.88l6.566,10.379c-7.233,6.36-13.847,13.4-19.725,21.004l.121-6.862c-5.237-2.499-22.929,1.457-25.856,6.824l-9.987,18.31c-2.932,5.377-1.05,11.756,4.202,14.246l10.465,4.96c-3.392,8.926-5.892,18.217-7.392,27.757l-11.585,1.052c-6.021,.547-10.835,5.78-10.747,11.689Zm74.844,5.212c-.656-44.312,35.183-83.396,79.803-87.275,44.349-3.855,80.631,28.565,81.28,72.393,.649,43.827-34.574,82.852-78.916,87.191-44.612,4.365-81.51-27.997-82.167-72.309Z"/>
          <path class="cls-13" d="M238.484,1055.214l.298,20.141c.087,5.909,5.043,10.241,11.064,9.678l10.942-1.025c1.515,9.506,4.063,18.584,7.537,27.126l-8.991,6.009c-5.164,3.451-6.852,10.159-3.769,14.981l10.502,16.42c3.078,4.813,9.749,5.908,14.897,2.451l8.506-5.713c6.222,7.041,13.259,13.321,20.97,18.726l-4.659,8.63c-2.912,5.395-1.042,11.731,4.174,14.151l17.752,8.234c5.2,2.412,11.762,0,14.659-5.385l4.461-8.291c9.137,2.627,18.732,4.25,28.655,4.771l.132,8.924c.087,5.855,4.952,10.109,10.863,9.502l20.113-2.066c5.89-.605,10.591-5.827,10.505-11.666l-.132-8.898c9.809-2.514,19.236-6.05,28.158-10.479l4.628,7.317c3.003,4.747,9.509,5.815,14.531,2.39l17.09-11.658c5.006-3.416,6.64-10.023,3.651-14.764l-4.786-7.591c7.347-6.824,14-14.365,19.829-22.484l8.396,3.981c5.073,2.405,11.474,.052,14.3-5.253l9.623-18.066c2.82-5.296,1.008-11.542-4.051-13.957l-8.826-4.213c3.1-9.015,5.291-18.377,6.474-27.965l10.537-.987c5.785-.542,10.402-5.67,10.316-11.457l-.292-19.722c-.086-5.786-4.842-10.05-10.627-9.525l-11.158,1.014c-1.718-9.081-4.392-17.748-7.918-25.909l9.932-6.669c4.973-3.341,6.597-9.905,3.627-14.666l-10.131-16.244c-2.975-4.77-9.428-5.937-14.416-2.604l-10.453,6.985c-5.925-6.489-12.559-12.309-19.789-17.364l6.095-11.326c2.84-5.277,1.015-11.567-4.078-14.05l-17.388-8.479c-5.109-2.491-11.566-.227-14.42,5.061l-6.266,11.607c-8.452-2.444-17.305-4.042-26.465-4.689l-.191-12.928c-.086-5.839-4.929-10.181-10.821-9.699l-20.12,1.646c-5.913,.484-10.639,5.622-10.552,11.477l.192,12.964c-9.181,2.183-18.048,5.273-26.507,9.152l-6.684-10.602c-3.049-4.836-9.664-6.033-14.778-2.67l-17.46,11.484c-5.13,3.373-6.807,10.038-3.744,14.88l6.566,10.379c-7.233,6.36-13.847,13.4-19.725,21.004l-10.951-5.227c-5.237-2.499-11.857-.178-14.784,5.189l-9.987,18.31c-2.932,5.377-1.05,11.756,4.201,14.246l10.465,4.961c-3.392,8.926-5.892,18.217-7.392,27.757l-11.586,1.052c-6.021,.547-10.835,5.78-10.747,11.689Zm74.844,5.212c-.656-44.312,35.183-83.396,79.803-87.274,44.349-3.855,80.631,28.565,81.28,72.392,.649,43.827-34.574,82.853-78.916,87.191-44.613,4.365-81.51-27.997-82.167-72.309Z"/>
        </g>
        <g>
          <path class="cls-14" d="M1340.839,1637.934c-38.714-5.873-87.753-20.254-133.329-54.929-49.311-37.516-111.715-111.834-90.998-154.37,7.734-15.881,27.638-28.529,44.159-26.007,24.406,3.726,24.827,38.028,64.802,78.163,7.388,7.418,45.584,45.767,66.686,35.274,10.491-5.217,14.644-21.454,13.896-34.078-2.186-36.912-46.433-45.72-86.525-88.376-40.648-43.248-71.918-115.856-47.798-161.708,13.861-26.35,46.916-45.579,67.203-38.06,8.67,3.213,13.766,10.852,36.498,70.853,18.657,49.247,22.571,63.494,36.474,69.031,14.31,5.699,37.494,1.489,47.178-12.319,25.222-35.961-68.21-98.399-69.538-204.181-.595-47.404,17.146-116.331,60.888-128.25,29.57-8.057,69.562,10.337,82.527,37.863,11.688,24.814-5.866,41.601,.52,95.925,1.938,16.485,5.925,50.408,19.264,53.126,15.66,3.191,36.397-38.217,41.228-48.317,36.368-76.04,3.957-118.796,35.69-154.702,24.745-27.999,74.831-36.374,112.765-18.626,33.194,15.531,58.065,51.524,57.366,86.932-.71,36.026-33.454,69.6-98.941,136.747-31.056,31.842-55.474,53.11-56.586,86.887-.542,16.466,4.317,40.028,15.928,42.979,25.625,6.512,45.876-97.103,108.552-108.847,32.081-6.011,70.052,13.026,85.218,42.641,18.582,36.285,.942,84.57-27.379,108.598-36.952,31.351-70.531,3.117-138.108,34.798-29.979,14.054-77.732,45.096-73.126,73.918,2.005,12.549,14.078,25.561,28.161,28.188,31.567,5.888,45.807-45.517,98.611-64.786,38.043-13.883,88.889-8.452,99.51,13.202,14.995,30.571-50.479,92.862-84.862,119.996-41.565,32.802-138.413,93.717-315.934,82.433Z"/>
          <g class="cls-9">
            <path class="cls-3" d="M1359.52,1622.465c1.092-87.606,71.576-261.159,119.619-342.149,47.011-79.25,95.656-206.473,96.144-207.748l2.505,.953c-.485,1.278-49.214,128.713-96.341,208.162-47.894,80.739-118.159,253.646-119.246,340.816l-2.68-.034Z"/>
          </g>
        </g>
        <g>
          <polygon class="cls-18" points="399.13 1315.328 932.931 1292.12 1547.962 1313.671 941.22 1446.292 399.13 1315.328"/>
          <g>
            <path class="cls-16" d="M829.221,1829.716l-432.388-116.373c-43.546-11.72-77.378-54.865-77.378-96.707v-.46c0-41.841,33.833-69.913,77.378-62.232l463.758,75.891-31.369,199.88Z"/>
            <g>
              <path class="cls-17" d="M1548.703,1742.323l-698.648,78.022c-43.759,4.887-79.735-25.628-79.735-68.227v-28.898c0-42.598,35.976-79.995,79.735-83.478l698.648-55.611c-30.916,57.553-38.048,111.396,0,158.193Z"/>
              <path class="cls-11" d="M1554.784,1750.07l-698.875,79.243c-57.076,6.472-104.373-33.505-104.373-89.236v-.612c0-55.73,47.297-104.759,104.373-109.21l698.875-54.508c4.205-.328,7.609,3.173,7.609,7.82s-3.404,8.691-7.609,9.033l-698.875,56.899c-45.917,3.738-83.829,43.241-83.829,88.001v.61c0,44.761,37.913,77.007,83.829,71.958l698.875-76.852c4.205-.462,7.609,2.93,7.609,7.577s-3.404,8.8-7.609,9.276Z"/>
            </g>
          </g>
          <g>
            <path class="cls-12" d="M847.387,1630.305l-450.554-76.36c-43.546-7.681-77.378-64.761-77.378-127.585v-.691c0-62.825,33.833-112.68,77.378-111.062l477.948,17.754-27.395,297.944Z"/>
            <g>
              <path class="cls-36" d="M1548.703,1563.553l-659.493,49.743c-65.042,4.906-118.891-42.884-118.891-106.846v-43.391c0-63.962,53.848-117.282,118.891-119.055l659.493-17.979c-31.015,86.24-37.948,166.995,0,237.528Z"/>
              <path class="cls-37" d="M1554.784,1575.746l-698.875,54.508c-57.076,4.452-104.373-59.937-104.373-143.617v-.92c0-83.68,47.297-152.933,104.373-154.352l698.875-17.369c4.205-.104,7.609,5.467,7.609,12.444s-3.404,12.735-7.609,12.861l-698.875,20.96c-45.917,1.377-83.829,57.192-83.829,124.401v.916c0,67.209,37.913,119.125,83.829,115.78l698.875-50.918c4.205-.306,7.609,5.102,7.609,12.079s-3.404,12.898-7.609,13.226Z"/>
            </g>
          </g>
          <path class="cls-5" d="M707.671,1567.344l-96.308-16.831c-22.488-61.382-20.798-117.769,0-185.162l96.308,6.847c-19.74,70.918-16.751,135.155,0,195.146Z"/>
        </g>
        <g>
          <g>
            <rect class="cls-35" x="1143.597" y="951.686" width="60.895" height="199.065" transform="translate(-348.337 1458.399) rotate(-56.815)"/>
            <circle class="cls-34" cx="1103.669" cy="991.902" r="62.96"/>
            <circle class="cls-25" cx="1218.162" cy="1088.039" r="51.695"/>
          </g>
          <g>
            <ellipse class="cls-30" cx="1215.628" cy="728.428" rx="79.308" ry="111.452"/>
            <path class="cls-32" d="M973.236,458.363h-149.269c-153.054,0-277.129,124.075-277.129,277.129v.002c0,81.671,66.207,147.878,147.878,147.878h407.771c81.671,0,147.879-66.208,147.879-147.879h0c0-153.055-124.075-277.131-277.13-277.131Z"/>
            <path class="cls-33" d="M947.022,1186.406h-96.841c-99.297,0-179.793-80.496-179.793-179.793h0c0-52.987,42.953-95.941,95.939-95.941h264.55c52.986,0,95.939,42.954,95.939,95.939h0c0,99.298-80.497,179.794-179.794,179.794Z"/>
            <g>
              <path class="cls-26" d="M1108.726,823.597h-283.739c-38.452,0-69.999-29.474-69.999-65.831v-55.752c0-36.358,31.547-64.825,69.999-63.598l283.739,9.052c34.341,1.096,61.868,29.362,61.868,63.148v51.808c0,33.786-27.527,61.174-61.868,61.174Z"/>
              <g>
                <path class="cls-3" d="M915.896,726.931c0,24.281-20.67,43.703-46.374,43.378-25.936-.327-47.133-20.601-47.133-45.279s21.197-44.09,47.133-43.363c25.704,.72,46.374,20.983,46.374,45.264Z"/>
                <path class="cls-3" d="M1107.645,730.828c0,23.466-19.303,42.245-43.301,41.941-24.207-.306-43.986-19.879-43.986-43.716s19.779-42.606,43.986-41.927c23.998,.673,43.301,20.236,43.301,43.702Z"/>
              </g>
            </g>
            <path class="cls-4" d="M1001.569,844.501c-42.199-49.581-23.447-89.233-78.615-156.423-75.908-92.45-164.46-81.989-184.744-144.692-5.62-17.375-6.266-41.223,8.809-74.189-115.616,33.349-200.182,139.941-200.182,266.295v.002c0,81.671,66.207,147.878,147.878,147.878h355.367c-21.285-11.603-36.84-25.156-48.513-38.871Z"/>
            <ellipse class="cls-31" cx="586.719" cy="727.652" rx="79.308" ry="111.452"/>
            <ellipse class="cls-28" cx="523.981" cy="727.652" rx="34.68" ry="48.736"/>
            <path class="cls-6" d="M970.871,1087.426c-13.286-62.396-160.249-60.891-164.245-101.675-3.081-31.44,81.296-62.568,91.9-66.48,9.068-3.345,18.068-6.176,26.979-8.599h-159.178c-52.985,0-95.939,42.953-95.939,95.939h0c0,99.298,80.496,179.795,179.793,179.795h96.841c9.305,0,18.444-.707,27.368-2.07-8.427-10.446-13.922-21.87-15.251-34.341-2.946-27.641,16.881-38.391,11.732-62.569Z"/>
            <ellipse class="cls-27" cx="900.988" cy="916.014" rx="152.944" ry="18.518"/>
          </g>
          <g>
            <g>
              <path class="cls-29" d="M792.008,647.63c-93.53,61.609-200.97,65.016-246.195,9.592l-.04,.02-.162-.264c-1.846-2.271-3.63-4.603-5.252-7.077-2.048-3.123-3.894-6.347-5.515-9.633l-52.444-81.463-10.89-16.933,108.171-68.91c17.176-19.367,38.044-37.558,62.057-53.396,27.011-17.785,55.181-30.703,82.659-38.795l108.272-68.951,60.007,104.46c.224,.345,.487,.669,.711,1.014,2.331,3.508,4.359,7.159,6.123,10.91,2.82,5.942,4.969,12.147,6.49,18.596,14.703,62.38-30.562,145.851-113.991,200.829Z"/>
              <path class="cls-7" d="M792.5,648.343c-25.422,17.612-53.295,31.5-82.404,39.309-29.87,8.014-71.099,13.13-101.62,5.735-50.748-12.297-69.942-48.666-95.927-88.539-10.014-15.366-21.041-30.13-30.222-46.026,30.445,.84,67.677,16.628,94.149,30.832,22.87,12.271,43.745,29.706,68.798,37.5,55.238,17.185,121.089-8.503,156.84-52.21,21.845-26.706,20.895-65.909,47.318-89.681,17.079-15.366,40.759-21.548,56.567-38.461-2.833,3.03,1.457,28.324,1.237,33.528-.506,11.969-2.428,23.798-5.897,35.27-8.102,26.792-23.813,50.822-41.878,71.942-19.15,22.389-41.861,43.411-66.962,60.8Z"/>
            </g>
            <polygon class="cls-45" points="916.232 258.791 574.297 281.363 384.373 566.596 374.11 572.535 376.675 576.968 376.675 576.968 733.04 562.433 929.566 256.992 929.566 256.992 927.001 252.559 916.232 258.791"/>
            <polygon class="cls-39" points="570.767 275.264 373.228 571.933 728.873 548.457 926.412 251.788 570.767 275.264"/>
            <path class="cls-38" d="M482.396,751.563c-2.658,0-4.89-2.068-5.056-4.756l-10.89-175.766c-.087-1.412,.418-2.795,1.396-3.818l173.463-181.362c1.937-2.026,5.143-2.094,7.167-.159,2.024,1.935,2.095,5.145,.16,7.168l-171.931,179.759,10.754,173.552c.174,2.794-1.953,5.201-4.747,5.373-.107,.007-.212,.01-.317,.01Z"/>
            <path class="cls-46" d="M472.185,741.75l4.033-6.17c1.54-2.339,4.221-3.652,7.012-3.421,2.791,.231,5.226,1.968,6.36,4.529l2.589,6.873c.738,1.669,.595,3.46,.473,5.281l-3.738,56.155c-.08,1.206-4.843,1.87-11.274,1.442-6.431-.428-11.064-1.718-10.984-2.924l3.749-56.313c.129-1.944,.708-3.825,1.779-5.452Z"/>
          </g>
          <g>
            <rect class="cls-47" x="740.838" y="951.686" width="60.895" height="199.065" transform="translate(-530.647 1121.328) rotate(-56.815)"/>
            <circle class="cls-49" cx="700.91" cy="991.902" r="62.96"/>
            <polygon class="cls-51" points="844.722 1070.84 990.549 1070.84 984.762 1131.18 841.829 1126.393 844.722 1070.84"/>
            <circle class="cls-50" cx="815.403" cy="1088.039" r="51.695"/>
            <path class="cls-48" d="M1003.267,1069.166c-8.837-4.947-21.316-8.429-38.877-7.789-8.34,.304-15.231,6.638-16.208,14.926l-5.085,43.145h75.228l2.455-10.309c3.747-15.736-3.4-32.072-17.514-39.973Z"/>
          </g>
          <g>
            <path class="cls-43" d="M1136.101,1120.473l-271.379-4.688c-3.735-.064-7.263,1.707-9.443,4.74l-8.277,11.52c-4.121,5.735-.154,13.743,6.906,13.94l287.256,7.994-5.063-33.505Z"/>
            <path class="cls-41" d="M1427.397,988.401l-279.826-13.028c-8.28-.386-16.149,3.619-20.711,10.54l-108.013,163.882,295.929,7.719c8.122,.212,15.804-3.687,20.428-10.369l99.549-143.877c4.238-6.125,.084-14.52-7.356-14.867Z"/>
            <path class="cls-10" d="M1126.86,985.914c4.562-6.921,12.432-10.926,20.711-10.54l6.132,.285c.318,9.082,2.542,17.517,7.622,24.544,15.859,21.938,45.336,10.997,65.223,34.418,21.845,25.728-1.71,53.084,17.764,76.973,20.496,25.143,57.44,8.211,97.448,26.076l-6.556,9.475c-4.623,6.682-12.305,10.581-20.426,10.37l-295.93-7.719,108.013-163.881Z"/>
          </g>
        </g>
        <g>
          <path class="cls-42" d="M1485.765,321.198c73.117,2.244,134.525,46.886,146.492,103.395,.015,.074,.03,.148,.046,.222,.648,3.093,1.147,6.221,1.492,9.38,.023,.208,.048,.416,.069,.626,.151,1.476,.269,2.959,.352,4.448,.015,.27,.026,.541,.039,.811,.073,1.522,.121,3.048,.121,4.582,0,65.668-67.023,115.434-148.611,111.211-2.17-.113-4.327-.269-6.473-.455-.21-.018-.421-.033-.631-.052-2.031-.183-4.049-.404-6.057-.651-.312-.038-.625-.075-.937-.115-1.943-.249-3.873-.531-5.792-.839-.362-.057-.723-.116-1.084-.177-1.883-.314-3.754-.655-5.612-1.025-.377-.075-.751-.153-1.127-.231-1.848-.38-3.686-.782-5.508-1.216-.353-.084-.703-.174-1.055-.26-1.81-.442-3.61-.905-5.392-1.399-.32-.089-.636-.184-.955-.274-1.604-.455-3.196-.932-4.776-1.428-.401-.126-.805-.246-1.204-.375-1.603-.516-3.189-1.06-4.765-1.619-.34-.12-.689-.227-1.029-.349,.004-.004,.008-.008,.013-.012-54.235-19.563-92.365-63.592-92.365-112.83,0-63.962,64.339-113.839,144.749-111.37Z"/>
          <path class="cls-40" d="M1325.536,432.569c0,63.962,64.339,119.144,144.749,123.306,81.588,4.223,148.611-45.543,148.611-111.211s-67.023-120.961-148.611-123.465c-80.411-2.468-144.749,47.408-144.749,111.37Z"/>
          <g class="cls-8">
            <path class="cls-44" d="M1434.791,524.245c17.607-33.732-.192-66.839,23.626-88.184,24.302-21.779,56.041,.693,90.402-16.555,13.341-6.697,28.212-19.957,39.29-48.05,19.293,20.658,30.787,46.083,30.787,73.208,0,65.669-67.023,115.434-148.611,111.211-18.524-.959-36.186-4.623-52.397-10.464,7.988-6.939,13.282-14.228,16.903-21.166Z"/>
          </g>
          <g>
            <path class="cls-3" d="M1477.703,439.534c.014,6.632-5.263,11.901-11.769,11.768-6.486-.132-11.737-5.586-11.747-12.181-.01-6.592,5.221-11.858,11.703-11.763,6.502,.095,11.799,5.545,11.814,12.175Z"/>
            <path class="cls-3" d="M1436.36,511.699c-6.555-.23-12.293-2.193-17.066-5.829-20.47-15.6-16.336-56.617,9.468-93.88,19.227-27.767,45.516-45.828,67.028-45.828,6.743,0,12.686,1.785,17.658,5.315,21.612,15.345,17.343,57.621-9.664,95.718-19.746,27.854-46.23,45.248-67.423,44.504Zm59.448-137.995c-18.894-.034-43.441,17.168-61.117,42.648-22.772,32.824-27.883,70.917-11.229,83.569,3.531,2.682,7.867,4.129,12.889,4.296,18.584,.619,43.225-16.01,61.289-41.54,23.671-33.453,28.96-72.574,11.48-85.025-3.667-2.612-8.149-3.939-13.313-3.948Z"/>
            <path class="cls-3" d="M1496.165,513.799h0c-21.587-.758-48.019-19.852-67.351-48.401-25.865-38.196-30.022-79.239-9.625-94.039,4.752-3.447,10.468-5.197,17.001-5.197,21.121,0,47.596,18.216,67.445,46.657,27.232,39.019,31.796,81.578,10.219,96.251-4.969,3.378-10.922,4.967-17.689,4.729Zm-59.966-140.202c-5.006-.009-9.327,1.277-12.843,3.821-16.596,12.007-11.45,50.175,11.386,83.815,17.772,26.186,42.451,44.344,61.404,44.975,5.18,.173,9.669-1.005,13.332-3.503,17.451-11.902,11.903-51.325-11.955-85.592-18.157-26.081-42.797-43.484-61.324-43.517Z"/>
            <path class="cls-3" d="M1467.532,482.468h-.005l-2.2,1.045c-21.351-.908-41.22-5.632-56.031-14.269-15.431-8.998-23.778-20.433-23.6-32.751,.351-24.242,34.515-42.854,78.601-42.561l2.197,.1c30.34,.638,58.348,10.352,72.814,25.376,6.642,6.899,10.112,13.579,10.023,21.426-.285,25.24-36.603,45.63-81.799,41.634Zm-3.221-80.902c-39.445-.335-71.22,15.558-71.506,35.436-.136,9.453,6.909,18.798,19.905,26.349,13.825,8.035,32.517,12.935,52.709,13.761l2.097,.071c40.334,1.073,73.921-14.825,74.157-35.445,.069-5.841-2.566-11.582-7.817-17.049-13.079-13.619-39.018-22.442-67.453-23.09l-2.092-.033Z"/>
          </g>
        </g>
        <g>
          <path class="cls-20" d="M1144.939,141.029c73.117,2.244,134.525,46.886,146.492,103.395,.015,.074,.03,.148,.046,.222,.648,3.093,1.147,6.221,1.492,9.38,.023,.208,.048,.416,.07,.626,.151,1.476,.269,2.959,.352,4.448,.015,.27,.026,.541,.039,.811,.073,1.522,.121,3.048,.121,4.582,0,65.668-67.023,115.434-148.611,111.211-2.17-.113-4.327-.269-6.473-.455-.21-.018-.421-.033-.631-.052-2.031-.183-4.049-.404-6.057-.651-.312-.038-.625-.075-.937-.115-1.943-.249-3.873-.531-5.792-.839-.362-.057-.723-.116-1.084-.177-1.883-.314-3.754-.655-5.612-1.025-.377-.075-.751-.154-1.127-.231-1.848-.38-3.686-.782-5.508-1.216-.353-.084-.703-.174-1.055-.26-1.81-.442-3.61-.905-5.392-1.399-.32-.089-.636-.184-.955-.274-1.605-.455-3.196-.932-4.776-1.428-.401-.126-.805-.246-1.204-.375-1.603-.516-3.189-1.06-4.765-1.619-.34-.12-.689-.227-1.029-.349,.004-.004,.008-.008,.013-.012-54.235-19.563-92.365-63.592-92.365-112.83,0-63.962,64.339-113.839,144.749-111.37Z"/>
          <path class="cls-19" d="M984.71,252.399c0,63.962,64.338,119.144,144.749,123.306,81.588,4.223,148.611-45.543,148.611-111.211s-67.023-120.961-148.611-123.465c-80.411-2.468-144.749,47.408-144.749,111.371Z"/>
          <g class="cls-8">
            <path class="cls-22" d="M1093.965,344.075c17.607-33.732-.192-66.839,23.626-88.184,24.302-21.779,56.041,.693,90.402-16.555,13.341-6.697,28.212-19.957,39.29-48.05,19.293,20.659,30.787,46.083,30.787,73.208,0,65.669-67.023,115.434-148.611,111.211-18.524-.959-36.186-4.623-52.397-10.464,7.988-6.939,13.282-14.228,16.903-21.166Z"/>
          </g>
          <g>
            <path class="cls-3" d="M1164.509,218.434c0-2.169-.858-3.946-3.002-3.968l-76.276-.787c-2.034-.021-4.637,1.671-4.637,3.779v76.052c0,2.109,3.045,3.883,5.079,3.963l75.135,2.978c2.144,.085,3.701-1.605,3.701-3.774v-78.244Z"/>
            <g>
              <g>
                <path class="cls-3" d="M1088.585,202.953c0,1.188-1.854,2.144-2.998,2.135h0c-1.144-.009-2.995-.977-2.995-2.163v-17.179c0-1.186,1.852-2.147,2.995-2.147h0c1.145,0,2.998,.963,2.998,2.15v17.204Z"/>
                <path class="cls-3" d="M1098.575,203.009c0,1.191-.848,2.15-1.999,2.141h0c-1.15-.009-1.996-.98-1.996-2.169v-17.229c0-1.189,.846-2.153,1.996-2.153h0c1.151,0,1.999,.965,1.999,2.157v17.254Z"/>
                <path class="cls-3" d="M1110.563,203.093c0,1.196-.838,2.159-1.999,2.15h0c-1.16-.009-1.996-.984-1.996-2.179v-17.303c0-1.195,.836-2.163,1.996-2.163h0c1.161,0,1.999,.97,1.999,2.166v17.329Z"/>
                <path class="cls-3" d="M1120.553,203.164c0,1.201-.83,2.167-2,2.158h0c-1.169-.009-1.996-.988-1.996-2.187v-17.366c0-1.199,.828-2.171,1.996-2.171h0c1.17,0,2,.973,2,2.174v17.392Z"/>
                <path class="cls-3" d="M1128.545,203.221c0,1.204-.823,2.173-1.999,2.164h0c-1.176-.009-1.997-.991-1.997-2.193v-17.417c0-1.202,.821-2.177,1.997-2.177h0c1.176,0,1.999,.976,1.999,2.18v17.442Z"/>
                <path class="cls-3" d="M1140.533,203.308c0,1.209-.813,2.183-1.999,2.174h0c-1.186-.009-1.996-.995-1.996-2.203v-17.494c0-1.208,.81-2.187,1.996-2.187h0c1.187,0,1.999,.98,1.999,2.19v17.519Z"/>
                <path class="cls-3" d="M1150.523,203.38c0,1.214-.804,2.191-1.999,2.182h0c-1.195-.009-1.996-.999-1.996-2.211v-17.558c0-1.212,.802-2.195,1.996-2.195h0c1.196,0,1.999,.984,1.999,2.198v17.584Z"/>
                <path class="cls-3" d="M1160.513,203.453c0,1.218-.795,2.199-2,2.19h0c-1.203-.009-1.996-1.002-1.996-2.219v-17.622c0-1.217,.793-2.203,1.996-2.203h0c1.204,0,2,.988,2,2.206v17.649Z"/>
              </g>
              <g>
                <path class="cls-3" d="M1088.585,323.38c0,1.188-1.854,2.105-2.998,2.048h0c-1.144-.056-2.995-1.063-2.995-2.249v-17.179c0-1.186,1.852-2.109,2.995-2.061h0c1.145,.048,2.998,1.049,2.998,2.237v17.204Z"/>
                <path class="cls-3" d="M1098.575,323.784c0,1.191-.848,2.111-1.999,2.054h0c-1.15-.057-1.996-1.067-1.996-2.256v-17.229c0-1.189,.846-2.115,1.996-2.067h0c1.151,.048,1.999,1.053,1.999,2.244v17.254Z"/>
                <path class="cls-3" d="M1110.563,324.393c0,1.196-.838,2.12-1.999,2.062h0c-1.16-.057-1.996-1.072-1.996-2.266v-17.303c0-1.194,.836-2.124,1.996-2.075h0c1.161,.049,1.999,1.058,1.999,2.254v17.329Z"/>
                <path class="cls-3" d="M1120.553,324.906c0,1.201-.83,2.127-2,2.07h0c-1.169-.057-1.996-1.076-1.996-2.275v-17.366c0-1.199,.828-2.131,1.996-2.082h0c1.17,.049,2,1.062,2,2.262v17.392Z"/>
                <path class="cls-3" d="M1128.545,325.318c0,1.204-.823,2.133-1.999,2.075h0c-1.176-.058-1.997-1.079-1.997-2.282v-17.417c0-1.202,.821-2.137,1.997-2.088h0c1.176,.049,1.999,1.065,1.999,2.269v17.442Z"/>
                <path class="cls-3" d="M1140.533,325.941c0,1.209-.813,2.142-1.999,2.084h0c-1.186-.058-1.996-1.085-1.996-2.292v-17.493c0-1.208,.81-2.146,1.996-2.097h0c1.187,.05,1.999,1.07,1.999,2.28v17.519Z"/>
                <path class="cls-3" d="M1150.523,326.465c0,1.214-.804,2.15-1.999,2.091h0c-1.195-.059-1.996-1.089-1.996-2.301v-17.558c0-1.212,.802-2.154,1.996-2.104h0c1.196,.05,1.999,1.074,1.999,2.288v17.583Z"/>
                <path class="cls-3" d="M1160.513,326.992c0,1.218-.795,2.158-2,2.099h0c-1.203-.059-1.996-1.093-1.996-2.31v-17.622c0-1.217,.793-2.162,1.996-2.112h0c1.204,.05,2,1.079,2,2.297v17.648Z"/>
              </g>
            </g>
            <g>
              <g>
                <path class="cls-3" d="M1194.975,217.035c0,1.231-.998,2.217-2.227,2.203l-17.701-.211c-1.214-.014-2.198-1.017-2.198-2.239h0c0-1.222,.984-2.202,2.198-2.19l17.701,.185c1.23,.013,2.227,1.021,2.227,2.252h0Z"/>
                <path class="cls-3" d="M1194.975,225.952c0,1.231-.998,2.214-2.227,2.196l-17.701-.264c-1.214-.018-2.198-1.023-2.198-2.245h0c0-1.222,.984-2.199,2.198-2.183l17.701,.238c1.23,.016,2.227,1.028,2.227,2.259h0Z"/>
                <path class="cls-3" d="M1194.975,239.326c0,1.231-.998,2.21-2.227,2.186l-17.701-.343c-1.214-.023-2.198-1.033-2.198-2.255h0c0-1.222,.984-2.195,2.198-2.173l17.701,.317c1.23,.022,2.227,1.038,2.227,2.269h0Z"/>
                <path class="cls-3" d="M1194.975,250.472c0,1.231-.998,2.206-2.227,2.178l-17.701-.409c-1.214-.028-2.198-1.041-2.198-2.263h0c0-1.222,.984-2.191,2.198-2.165l17.701,.383c1.23,.027,2.227,1.046,2.227,2.277h0Z"/>
                <path class="cls-3" d="M1194.975,261.617c0,1.231-.998,2.202-2.227,2.169l-17.701-.475c-1.214-.033-2.198-1.05-2.198-2.272h0c0-1.222,.984-2.188,2.198-2.157l17.701,.449c1.23,.031,2.227,1.054,2.227,2.286h0Z"/>
                <path class="cls-3" d="M1194.975,272.763c0,1.231-.998,2.199-2.227,2.161l-17.701-.541c-1.214-.037-2.198-1.058-2.198-2.28h0c0-1.222,.984-2.184,2.198-2.149l17.701,.515c1.23,.036,2.227,1.063,2.227,2.294h0Z"/>
                <path class="cls-3" d="M1194.975,283.908c0,1.231-.998,2.195-2.227,2.153l-17.701-.607c-1.214-.042-2.198-1.066-2.198-2.288h0c0-1.222,.984-2.18,2.198-2.14l17.701,.581c1.23,.04,2.227,1.071,2.227,2.302h0Z"/>
                <path class="cls-3" d="M1194.975,295.054c0,1.231-.998,2.191-2.227,2.144l-17.701-.673c-1.214-.046-2.198-1.074-2.198-2.296h0c0-1.222,.984-2.177,2.198-2.132l17.701,.647c1.23,.045,2.227,1.079,2.227,2.31h0Z"/>
              </g>
              <g>
                <path class="cls-3" d="M1075.152,215.694c0,1.182-.919,2.129-2.052,2.115l-16.314-.195c-1.119-.013-2.026-.975-2.026-2.149h0c0-1.173,.907-2.115,2.026-2.103l16.314,.17c1.133,.012,2.052,.979,2.052,2.161h0Z"/>
                <path class="cls-3" d="M1075.152,224.253c0,1.182-.919,2.126-2.052,2.109l-16.314-.243c-1.119-.017-2.026-.981-2.026-2.155h0c0-1.173,.907-2.112,2.026-2.097l16.314,.219c1.133,.015,2.052,.986,2.052,2.167h0Z"/>
                <path class="cls-3" d="M1075.152,237.091c0,1.182-.919,2.122-2.052,2.1l-16.314-.316c-1.119-.022-2.026-.99-2.026-2.164h0c0-1.173,.907-2.108,2.026-2.088l16.314,.292c1.133,.02,2.052,.995,2.052,2.176h0Z"/>
                <path class="cls-3" d="M1075.152,247.79c0,1.182-.919,2.118-2.052,2.092l-16.314-.377c-1.119-.026-2.026-.998-2.026-2.171h0c0-1.173,.907-2.105,2.026-2.081l16.314,.353c1.133,.024,2.052,1.002,2.052,2.184h0Z"/>
                <path class="cls-3" d="M1075.152,258.488c0,1.182-.919,2.115-2.052,2.085l-16.314-.438c-1.119-.03-2.026-1.006-2.026-2.179h0c0-1.173,.907-2.101,2.026-2.073l16.314,.414c1.133,.029,2.052,1.01,2.052,2.192h0Z"/>
                <path class="cls-3" d="M1075.152,269.187c0,1.182-.919,2.112-2.052,2.077l-16.314-.499c-1.119-.034-2.026-1.013-2.026-2.187h0c0-1.173,.907-2.098,2.026-2.065l16.314,.475c1.133,.033,2.052,1.018,2.052,2.199h0Z"/>
                <path class="cls-3" d="M1075.152,279.885c0,1.182-.919,2.108-2.052,2.069l-16.314-.56c-1.119-.039-2.026-1.021-2.026-2.194h0c0-1.173,.907-2.095,2.026-2.058l16.314,.535c1.133,.037,2.052,1.025,2.052,2.207h0Z"/>
                <path class="cls-3" d="M1075.152,290.584c0,1.182-.919,2.105-2.052,2.062l-16.314-.621c-1.119-.043-2.026-1.028-2.026-2.201h0c0-1.173,.907-2.091,2.026-2.05l16.314,.596c1.133,.041,2.052,1.033,2.052,2.215h0Z"/>
              </g>
            </g>
          </g>
        </g>
        <g>
          <path class="cls-21" d="M1527.814,658.542c73.117,2.244,134.525,46.886,146.492,103.395,.015,.074,.03,.148,.046,.222,.648,3.093,1.147,6.221,1.492,9.38,.023,.208,.048,.416,.069,.626,.151,1.476,.269,2.959,.352,4.448,.015,.27,.026,.541,.039,.811,.073,1.522,.121,3.048,.121,4.582,0,65.668-67.023,115.434-148.611,111.211-2.17-.113-4.327-.269-6.473-.455-.21-.018-.421-.033-.631-.052-2.031-.183-4.049-.404-6.057-.651-.312-.038-.625-.075-.937-.115-1.943-.249-3.873-.531-5.792-.839-.362-.058-.723-.116-1.084-.177-1.883-.314-3.754-.655-5.612-1.025-.377-.075-.751-.153-1.127-.231-1.848-.38-3.686-.782-5.508-1.216-.353-.084-.703-.174-1.055-.26-1.81-.443-3.61-.905-5.392-1.399-.32-.089-.636-.184-.956-.274-1.604-.455-3.196-.932-4.776-1.428-.401-.126-.805-.246-1.204-.375-1.603-.516-3.189-1.06-4.765-1.619-.34-.12-.689-.227-1.029-.349,.004-.004,.008-.008,.013-.012-54.235-19.563-92.365-63.592-92.365-112.83,0-63.962,64.339-113.839,144.749-111.37Z"/>
          <path class="cls-24" d="M1367.585,769.912c0,63.962,64.338,119.144,144.749,123.306,81.588,4.223,148.611-45.543,148.611-111.211s-67.023-120.961-148.611-123.465c-80.411-2.468-144.749,47.408-144.749,111.37Z"/>
          <g class="cls-8">
            <path class="cls-23" d="M1476.841,861.588c17.607-33.732-.192-66.839,23.626-88.184,24.302-21.779,56.041,.693,90.402-16.555,13.341-6.697,28.211-19.957,39.29-48.05,19.293,20.658,30.787,46.083,30.787,73.208,0,65.669-67.023,115.434-148.611,111.211-18.524-.959-36.186-4.623-52.397-10.464,7.988-6.939,13.282-14.228,16.903-21.166Z"/>
          </g>
          <g>
            <g>
              <path class="cls-3" d="M1458.1,747.887c0,3.876-2.254,6.965-5.991,6.9l-.108-.017c-3.727-.065-5.889-3.247-5.889-7.107v-48.059c0-3.86,2.089-8.702,5.817-8.702h.962c3.737,0,5.209,4.854,5.209,8.73v48.255Z"/>
              <path class="cls-3" d="M1480.078,724.445c0,3.899-2.834,7.026-6.615,6.985l-46.543-.503c-3.676-.04-6.781-3.18-6.781-7.013v-.989c0-3.834,3.224-6.922,6.9-6.897l46.3,.308c3.781,.025,6.74,3.206,6.74,7.105v1.005Z"/>
            </g>
            <g>
              <path class="cls-3" d="M1439.516,838.98c-2.618,2.615-6.854,2.437-9.462-.391h0c-2.604-2.823-2.604-7.227,0-9.843l32.654-32.801c2.656-2.668,6.971-2.547,9.638,.279h0c2.671,2.83,2.671,7.293,0,9.96l-32.83,32.795Z"/>
              <path class="cls-3" d="M1472.347,840.336c-2.667,2.638-6.982,2.457-9.638-.398l-32.654-35.095c-2.604-2.799-2.604-7.202,0-9.843h0c2.608-2.644,6.844-2.525,9.462,.274l32.83,35.101c2.671,2.855,2.671,7.318,0,9.96h0Z"/>
            </g>
            <path class="cls-3" d="M1581.975,725.346c0,4.009-3.185,7.224-7.183,7.181l-48.391-.532c-3.884-.042-6.363-3.27-6.363-7.211v-1.016c0-3.94,2.511-7.114,6.394-7.088l48.676,.325c3.998,.026,6.867,3.298,6.867,7.307v1.034Z"/>
            <g>
              <path class="cls-3" d="M1581.975,816.438c0,4.009-3.185,7.144-7.183,7.002l-48.391-1.744c-3.884-.138-6.363-3.444-6.363-7.384v-1.016c0-3.94,2.511-7.036,6.394-6.914l48.676,1.537c3.998,.125,6.867,3.477,6.867,7.486v1.034Z"/>
              <g>
                <path class="cls-3" d="M1559.681,792.487c0,4.696-3.78,8.392-8.432,8.254-4.64-.137-8.394-4.038-8.394-8.713s3.753-8.371,8.394-8.255c4.652,.116,8.432,4.017,8.432,8.714Z"/>
                <path class="cls-3" d="M1559.681,835.777c0,4.696-3.78,8.347-8.432,8.155-4.64-.192-8.394-4.137-8.394-8.812s3.753-8.327,8.394-8.156c4.652,.171,8.432,4.117,8.432,8.813Z"/>
              </g>
            </g>
          </g>
        </g>
      </g>
    </g>
  </g>
</svg>