<?xml version="1.0" encoding="UTF-8"?>
<svg id="_Layer_" data-name="&amp;lt;Layer&amp;gt;" xmlns="http://www.w3.org/2000/svg" viewBox="0 0 2000 1400">
  <defs>
    <style>
      .cls-1, .cls-2 {
        fill: #ffddc0;
      }

      .cls-3, .cls-4 {
        fill: #e88585;
      }

      .cls-5 {
        fill: #fff;
      }

      .cls-6 {
        fill: #d1edff;
      }

      .cls-7, .cls-8 {
        fill: #56302a;
      }

      .cls-8, .cls-4, .cls-2 {
        fill-rule: evenodd;
      }
    </style>
  </defs>
  <g>
    <g>
      <path class="cls-4" d="M504.113,226.567c63.02-29.656,131.226-43.743,179.417-11.12,55.607,37.81,86.003,125.297,86.003,125.297,0,0,39.292,115.659,24.467,200.919-11.121,63.76-57.089,55.605-57.089,55.605,0,0-11.862,5.191-22.241,6.673-10.38,1.482-17.793-1.482-17.793-1.482,0,0-41.52,17.794-84.52,20.757-43.742,2.965-88.968-9.637-88.968-9.637l-31.14-8.896s-11.121,1.482-22.981-2.224c-11.865-3.709-18.535-8.157-18.535-8.157,0,0-41.52-5.19-48.194-47.448-8.897-55.605,0-146.8,24.467-217.23,16.312-48.194,38.553-85.263,77.108-103.057Z"/>
      <path class="cls-2" d="M489.283,489.764s-17.579-2.376-28.699-15.719c-7.415-8.897-10.593-27.28-8.37-36.92,4.447-20.017,22.24-11.12,37.069-20.017,9.639-5.93,14.086-20.759,16.312-30.397,5.189-21.502,12.604-53.381,22.241-66.728,7.415-11.12,25.209-17.049,35.587-17.049,3.71,0,34.105-5.932,46.708,5.188,12.606,11.121,19.277,43.001,31.14,60.054,17.054,25.208,36.329,37.069,45.967,45.225,23.726,20.017,42.261-3.709,53.381,15.57,5.188,9.639,8.064,29.973-2.096,43.372-10.378,14.825-29.787,15.939-29.787,15.939,0,0-7.194,29.179-17.573,49.199-10.38,20.017-21.454,31.333-21.454,31.333,0,0-2.538,27.944,.931,51.276,0,0-12.664,27.371-32.801,43.82-22.786,18.608-40.18,30.271-40.18,30.271,0,0-18.062-14.372-42.319-31.362-21.313-14.93-31.754-41.765-31.754-41.765,1.001-7.314,.885-18.147,1.218-24.497,.74-21.503-.876-32.613-.876-32.613,0,0-15.168-21.277-24.064-39.812-6.674-18.535-10.582-34.367-10.582-34.367Z"/>
      <path class="cls-5" d="M559.351,508.994l77.455,.423s-8.92,40.645-37.351,41.594c-31.83,1.062-40.104-42.017-40.104-42.017Z"/>
      <path class="cls-6" d="M255.381,1214.074l683.582-.641-3.537-411.282s-6.731-71.93-57.307-102.09c-60.433-36.044-170.209-63.617-170.209-63.617l-23.457-36.89-15.64-5.164,2.214,27.337s-14.161,27.886-35.109,43.087c-19.913,14.455-36.923,31.262-36.923,31.262,0,0-21.295-16.239-41.775-32.57-20.841-16.623-34.097-42.35-34.097-42.35l1.568-25.864-16.175,5.505-20.169,35.005s-113.732,24.226-171.076,65.471c-57.342,41.245-58.294,99.509-58.294,99.509l-3.597,413.289Z"/>
    </g>
    <g>
      <path class="cls-5" d="M1705.741,967.525l166.082-737.567L1177.517,75.083l-220.726,1010.025,656.748,142.978s1.007-25.222,8.617-57.818c9.796-41.962,24.447-111.343,24.447-111.343,0,0-1.876-138.969,24.466-145.819,27.599-7.175,34.673,54.42,34.673,54.42Z"/>
      <path class="cls-5" d="M1608.409,1682.476s-2.865-110.497,2.598-170.204c3.83-41.899,13.091-55.27,13.091-55.27l-2.326-128.377s28.055-23.751,77.414-26.532c60.762-3.429,94.017,13.698,94.017,13.698l12.677,128.457s10.214,16.918,15.196,52.774c9.076,65.31,14.589,184.906,14.589,184.906l-227.255,.548Z"/>
      <path class="cls-1" d="M1627.842,1321.706s-19.251-49.19-17.15-104.835c2.105-55.645,25.567-117.74,25.567-117.74,0,0,8.843-34.566,11.968-76.372,1.43-19.119-4.186-43.71-3.163-63.291,2.52-48.336,13.027-86.949,32.936-89.186,27.843-3.13,38.422,56.589,38.422,56.589l20.797-95.765s44.892,44.925,65.506,74.09c18.762,26.547,57.516,166.445,57.516,166.445,0,0-12.77,77.108-39.486,133.619-28.275,59.823-32.406,105.859-32.406,105.859,0,0-45.812-10.803-85.94-8.155-40.129,2.646-74.566,18.741-74.566,18.741Z"/>
      <path class="cls-3" d="M1254.353,291.743s-14.705-3.166-13.749-28.707c.676-17.979,6.13-46.6,20.209-61.393,7.057-7.409,28.075-8.763,28.075-8.763,0,0,34.104-5.923,46.197,15.326,12.09,21.246,8.051,47.004,2.172,69.667-5.883,22.665-22.896,24.23-22.896,24.23l-60.008-10.361Z"/>
      <path class="cls-1" d="M1191.354,389.815s9.662-51.7,19.071-80.81c3.786-11.715,53.959-17.381,53.959-17.381l6.809-13.573s-12.054-13.463-7.398-38.265c4.652-24.802,27.245-29.237,36.195-27.383,11.062,2.297,23.548,15.36,19.673,36.938-4.536,25.288-21.517,33.779-21.517,33.779l.635,12.295s40.742,28.644,40.742,41.412c.004,14.152-16.229,81.701-16.229,81.701l-131.939-28.713Z"/>
      <path class="cls-6" d="M1191.354,389.815s9.662-51.7,19.071-80.81c3.786-11.715,53.959-17.381,53.959-17.381l15.083,15.759,19.313-11.967s40.742,28.644,40.742,41.412c.004,14.152-16.229,81.701-16.229,81.701l-131.939-28.713Z"/>
    </g>
  </g>
  <g>
    <g>
      <path class="cls-7" d="M1873.176,1219.85h-53.518c-2.949,0-5.338-2.389-5.338-5.338s2.389-5.337,5.338-5.337h53.518c2.948,0,5.338,2.389,5.338,5.337s-2.39,5.338-5.338,5.338Z"/>
      <path class="cls-7" d="M1544.89,1219.85H129.804c-2.947,0-5.337-2.389-5.337-5.338s2.39-5.337,5.337-5.337H1544.89c2.948,0,5.338,2.389,5.338,5.337s-2.39,5.338-5.338,5.338Z"/>
    </g>
    <g>
      <path class="cls-7" d="M1787.63,1317.494c-2.69,0-5.004-2.025-5.302-4.763-1.984-18.285,12.718-55.728,29.743-99.086,20.209-51.469,43.114-109.806,40.993-144.061-2.603-42.004-45.047-144.435-53.747-158.067-6.511-10.21-45.205-54.167-64.756-75.982-1.966-2.195-1.781-5.57,.414-7.539,2.198-1.966,5.573-1.781,7.538,.414,2.33,2.603,57.203,63.877,65.805,77.367,9.233,14.469,52.646,118.661,55.403,163.145,2.267,36.618-21.1,96.123-41.714,148.625-15.822,40.297-30.769,78.359-29.064,94.035,.315,2.928-1.802,5.564-4.733,5.883-.194,.021-.391,.029-.581,.029Z"/>
      <path class="cls-7" d="M1774.238,1060.031c-2.836,0-5.194-2.23-5.328-5.09-.019-.394-1.877-39.477-6.101-54.77-5.489-19.866-12.221-37.71-15.762-44.415-3.61-6.83-30.093-51.156-30.358-51.603-1.513-2.529-.688-5.808,1.844-7.318,2.538-1.513,5.811-.688,7.318,1.844,1.096,1.835,26.893,45.015,30.631,52.091,3.901,7.381,10.862,25.743,16.614,46.561,4.542,16.438,6.397,55.463,6.476,57.116,.137,2.942-2.139,5.441-5.085,5.578-.083,.003-.167,.006-.25,.006Z"/>
      <path class="cls-7" d="M1626.286,1327.103c-2.63,0-4.92-1.942-5.283-4.62-2.377-17.52-4.96-27.655-7.456-37.461-3.15-12.37-6.126-24.055-7.574-47.96-2.553-39.242,7.134-74.639,17.389-112.111,8.671-31.683,17.636-64.443,18.676-100.12,.31-10.604-.423-21.383-1.132-31.808-.802-11.767-1.558-22.884-.944-33.794,2.365-42.14,11.256-92.593,40.159-93.645,7.619,.116,14.16,3.107,19.721,8.888,21.216,22.065,24.364,83.559,23.269,131.26-1.197,52.091,6.287,89.688,18.201,91.435,2.916,.426,4.933,3.136,4.507,6.055-.426,2.913-3.118,4.933-6.056,4.507-25.728-3.768-28.164-65.673-27.328-102.24,1.486-64.565-5.721-108.466-20.289-123.615-3.565-3.708-7.464-5.546-11.917-5.617-15.292,.562-26.744,32.588-29.609,83.571-.575,10.249,.157,21.043,.934,32.472,.728,10.679,1.478,21.723,1.153,32.842-1.075,36.954-10.214,70.34-19.048,102.627-10.011,36.585-19.468,71.142-17.031,108.627,1.389,22.92,4.11,33.612,7.265,45.994,2.451,9.624,5.23,20.534,7.69,38.658,.396,2.922-1.649,5.611-4.572,6.008-.244,.032-.485,.048-.724,.048Z"/>
      <path class="cls-7" d="M1737.007,1017.748c-2.409,0-4.593-1.638-5.185-4.083-2.02-8.346-3.282-15.554-4.396-21.916-1.561-8.912-2.8-15.982-5.242-20.224-1.385-1.906-2.797-4.278-4.167-6.574-1.197-2.01-3.008-5.048-3.734-5.76-2.294-1.852-2.606-5.177-.754-7.47,1.855-2.29,5.257-2.612,7.551-.756,1.894,1.531,3.556,4.235,6.108,8.521,1.293,2.168,2.627,4.408,3.747,5.918,.107,.143,.205,.291,.295,.443,3.532,5.909,4.936,13.919,6.711,24.06,1.087,6.201,2.32,13.23,4.259,21.249,.691,2.865-1.069,5.748-3.935,6.442-.42,.102-.843,.148-1.257,.148Z"/>
      <path class="cls-7" d="M1624.541,1454.938c-2.893,0-5.269-2.31-5.334-5.218-.016-.769-1.74-77.274-3.738-116.726-1.001-19.762,51.284-31.565,84.476-34.365,29.871-2.518,96.105-1.078,98.393,19.571,4.658,42.057,10.859,117.198,10.922,117.952,.241,2.938-1.945,5.517-4.882,5.758-2.964,.235-5.517-1.945-5.758-4.882-.062-.754-6.252-75.744-10.892-117.654-2.506-5.809-40.07-14.056-86.887-10.106-46.238,3.899-74.963,18.193-74.71,23.185,2.004,39.603,3.732,116.261,3.75,117.029,.066,2.945-2.272,5.388-5.219,5.456h-.122Z"/>
      <path class="cls-7" d="M1608.609,1233.381c-.379,0-.76-.038-1.145-.122l-651.458-142.167c-1.383-.304-2.59-1.141-3.354-2.332-.765-1.191-1.024-2.64-.724-4.021L1172.396,74.493c.629-2.88,3.481-4.703,6.354-4.078l690.548,150.698c2.88,.628,4.706,3.473,4.077,6.353l-153.352,702.714c-.629,2.88-3.47,4.703-6.353,4.078-2.88-.628-4.706-3.473-4.077-6.353l152.214-697.5L1181.689,81.984l-218.191,999.815,646.243,141.029c2.88,.629,4.706,3.473,4.077,6.353-.545,2.496-2.755,4.199-5.209,4.199Z"/>
      <path class="cls-7" d="M1763.989,318.468c-.378,0-.76-.041-1.144-.124l-325.239-70.976c-2.88-.628-4.706-3.473-4.077-6.353,.628-2.882,3.481-4.694,6.352-4.078l325.239,70.977c2.88,.628,4.706,3.473,4.077,6.353-.545,2.496-2.755,4.202-5.209,4.202Z"/>
      <path class="cls-7" d="M1750.898,380.568c-.378,0-.76-.04-1.144-.124l-325.239-70.972c-2.88-.629-4.706-3.473-4.077-6.354,.628-2.882,3.479-4.694,6.353-4.078l325.239,70.972c2.881,.628,4.706,3.473,4.078,6.353-.546,2.498-2.756,4.201-5.21,4.201Z"/>
      <path class="cls-7" d="M1737.883,442.051c-.379,0-.76-.041-1.144-.124l-325.235-70.976c-2.88-.629-4.706-3.473-4.078-6.353,.629-2.88,3.479-4.703,6.353-4.078l325.236,70.977c2.88,.628,4.706,3.473,4.077,6.353-.545,2.496-2.755,4.201-5.209,4.201Z"/>
      <path class="cls-7" d="M1722.322,509.331c-.378,0-.759-.04-1.144-.124l-325.235-70.977c-2.881-.628-4.706-3.473-4.078-6.353,.629-2.88,3.482-4.694,6.354-4.078l325.236,70.977c2.88,.628,4.705,3.473,4.077,6.353-.545,2.496-2.755,4.201-5.21,4.201Z"/>
      <path class="cls-7" d="M1685.496,634.253c-.378,0-.759-.041-1.144-.124l-513.419-112.041c-2.88-.628-4.706-3.473-4.077-6.354,.628-2.878,3.479-4.7,6.354-4.077l513.418,112.041c2.881,.628,4.706,3.473,4.078,6.354-.545,2.497-2.755,4.201-5.21,4.201Z"/>
      <path class="cls-7" d="M1664.814,723.657c-.378,0-.76-.04-1.144-.123l-513.419-112.042c-2.88-.628-4.706-3.473-4.077-6.353,.631-2.883,3.476-4.7,6.353-4.078l513.419,112.041c2.881,.628,4.706,3.473,4.078,6.353-.546,2.496-2.756,4.201-5.21,4.201Z"/>
      <path class="cls-7" d="M1642.815,817.351c-.379,0-.76-.039-1.144-.122l-513.419-112.041c-2.88-.628-4.706-3.473-4.078-6.353,.629-2.882,3.485-4.699,6.353-4.078l513.419,112.042c2.88,.628,4.706,3.473,4.077,6.353-.545,2.496-2.755,4.2-5.209,4.2Z"/>
      <path class="cls-7" d="M1621.148,910.882c-.378,0-.76-.038-1.144-.122l-513.419-112.04c-2.88-.628-4.706-3.473-4.077-6.353,.628-2.88,3.481-4.7,6.352-4.078l513.419,112.04c2.88,.628,4.706,3.473,4.078,6.353-.546,2.496-2.756,4.2-5.21,4.2Z"/>
      <path class="cls-7" d="M1599.882,1007.195c-.378,0-.76-.038-1.143-.122l-513.419-112.042c-2.88-.629-4.706-3.473-4.077-6.353,.628-2.88,3.481-4.703,6.352-4.078l513.419,112.042c2.881,.629,4.706,3.473,4.078,6.354-.546,2.496-2.756,4.199-5.21,4.199Z"/>
      <path class="cls-7" d="M1578.678,1106.922c-.378,0-.76-.038-1.144-.122l-513.422-112.046c-2.88-.628-4.706-3.473-4.077-6.352,.628-2.88,3.478-4.697,6.352-4.078l513.422,112.046c2.88,.629,4.706,3.474,4.078,6.354-.546,2.496-2.756,4.199-5.21,4.199Z"/>
      <path class="cls-7" d="M1324.045,418.718c-.379,0-.76-.04-1.144-.125-2.88-.629-4.705-3.473-4.077-6.353l14.112-64.626c3.339-15.289-4.316-21.652-20.549-33.478l-1.143-.833c-1.948-1.266-12.927-8.493-16.021-11.385-4.59-4.292-3.52-11.536-3.259-12.945l1.677-7.698c.629-2.882,3.482-4.697,6.354-4.078,2.88,.63,4.706,3.473,4.077,6.353l-1.643,7.533c-.164,.987-.077,2.691,.208,3.178,1.755,1.613,9.951,7.171,14.676,10.262l1.361,.984c15.256,11.115,29.666,21.611,24.694,44.383l-14.112,64.628c-.545,2.496-2.755,4.2-5.209,4.2Z"/>
      <path class="cls-7" d="M1287.886,290.519c-1.862,0-3.724-.198-5.564-.602-18.282-3.993-28.808-27.152-23.465-51.625h0c5.737-26.25,24.954-34.368,41.455-30.762,9.27,2.021,16.87,7.443,21.401,15.265,4.753,8.205,5.947,18.57,3.458,29.976-2.49,11.403-8.111,21.556-15.822,28.586-6.598,6.012-14.053,9.162-21.463,9.162Zm-18.599-49.948c-4.02,18.404,2.994,36.228,15.311,38.919,5.697,1.24,11.932-.895,17.56-6.021,6.002-5.475,10.589-13.847,12.582-22.975,1.912-8.761,1.128-16.487-2.264-22.348-3.054-5.269-8.046-8.793-14.44-10.187-13.809-3.021-25.091,5.857-28.749,22.611h0Z"/>
      <path class="cls-7" d="M1192.68,390.14c-.378,0-.759-.041-1.144-.125-2.88-.629-4.706-3.473-4.077-6.354l14.133-64.725c4.975-22.775,22.452-26.309,40.958-30.052l1.37-.277c.101-.021,.205-.039,.31-.054,5.376-.765,14.943-2.331,17.716-3.275,.31-.25,1.105-1.77,1.421-2.941l1.594-7.325c.628-2.88,3.478-4.702,6.352-4.078,2.881,.628,4.707,3.473,4.078,6.353l-1.644,7.534c-.393,1.555-2.439,8.547-8.36,10.563-4.495,1.529-17.38,3.412-19.497,3.714l-1.225,.248c-19.69,3.982-29.303,6.576-32.642,21.867l-14.133,64.726c-.545,2.496-2.755,4.2-5.21,4.2Z"/>
      <path class="cls-7" d="M1258.627,404.231c-.381,0-.765-.042-1.152-.126-2.88-.633-4.7-3.481-4.065-6.359l19.459-88.401c.312-1.422,1.191-2.655,2.436-3.412l19.491-11.871c2.519-1.539,5.802-.734,7.333,1.783,1.533,2.517,.735,5.801-1.781,7.334l-17.544,10.686-18.97,86.174c-.548,2.493-2.755,4.192-5.207,4.192Z"/>
      <path class="cls-7" d="M1217.523,396.082c-.381,0-.765-.042-1.152-.126-2.88-.633-4.7-3.481-4.065-6.359l12.623-57.353c.631-2.88,3.478-4.697,6.359-4.065,2.88,.633,4.7,3.48,4.065,6.359l-12.623,57.353c-.548,2.493-2.755,4.192-5.207,4.192Z"/>
      <path class="cls-7" d="M1297.744,412.93c-.381,0-.766-.041-1.152-.126-2.881-.633-4.7-3.48-4.065-6.359l12.622-57.352c.632-2.88,3.477-4.705,6.359-4.066,2.881,.633,4.7,3.48,4.066,6.359l-12.623,57.352c-.549,2.493-2.756,4.192-5.207,4.192Z"/>
      <path class="cls-7" d="M1310.397,307.845c-2.025,0-4.173-.191-6.455-.596-2.903-.515-4.837-3.285-4.321-6.188,.515-2.902,3.273-4.841,6.185-4.323,16.963,3.008,23.48-11.052,29.005-36.36,5.028-23.034,2.005-43.06-8.086-53.57-7.807-8.13-19.891-10.829-35.924-8-2.91,.514-5.675-1.43-6.184-4.33-.513-2.904,1.427-5.671,4.331-6.184,19.735-3.473,35.048,.261,45.476,11.122,12.748,13.275,16.691,36.326,10.817,63.24-3.529,16.158-9.873,45.188-34.845,45.19Z"/>
      <path class="cls-7" d="M1252.959,297.217c-.143,0-.289-.006-.435-.018-5.688-.457-10.434-3.044-13.719-7.48-6.898-9.306-7.542-27.086-1.915-52.845,4.985-22.826,16.119-40,30.551-47.117,8.015-3.954,16.372-4.275,23.539-.907,2.668,1.255,3.815,4.434,2.562,7.102-1.254,2.669-4.444,3.808-7.102,2.56-4.224-1.988-9.164-1.706-14.278,.818-11.33,5.589-20.617,20.476-24.841,39.823-4.733,21.658-4.709,37.773,.06,44.21,1.459,1.969,3.365,2.984,6.002,3.197,2.936,.235,5.129,2.81,4.891,5.748-.224,2.792-2.561,4.909-5.314,4.909Z"/>
      <path class="cls-7" d="M1276.644,313.083c-1.572,0-3.131-.693-4.184-2.021l-13.201-16.644c-1.832-2.31-1.444-5.667,.864-7.499,2.316-1.829,5.668-1.441,7.5,.865l13.2,16.644c1.832,2.31,1.444,5.666-.863,7.499-.983,.777-2.153,1.156-3.316,1.156Z"/>
    </g>
    <g>
      <path class="cls-7" d="M600.493,491.395c-1.334,0-2.669-.496-3.705-1.495-2.123-2.046-2.184-5.425-.137-7.547,7.004-7.263,7.123-9.7,7.114-9.954-.019-.502-1.778-2.072-2.828-3.008-3.174-2.833-7.968-7.111-9.402-15.001-2.445-16.285,3.772-31.307,4.039-31.938,1.144-2.718,4.268-3.993,6.989-2.849,2.715,1.142,3.991,4.267,2.851,6.983-.097,.235-5.305,13.025-3.35,26.058,.75,4.116,3.175,6.279,5.981,8.784,2.761,2.465,6.198,5.531,6.387,10.574,.185,4.92-2.835,10.233-10.097,17.764-1.047,1.085-2.444,1.632-3.842,1.632Z"/>
      <path class="cls-7" d="M527.114,381.658c-1.847,0-3.644-.956-4.631-2.667-1.467-2.545-.615-5.79,1.922-7.271,.825-.481,20.439-11.646,44.166-1.001,2.69,1.205,3.893,4.363,2.686,7.053-1.205,2.69-4.366,3.891-7.053,2.687-18.586-8.331-33.805,.128-34.442,.494-.835,.477-1.748,.705-2.648,.705Z"/>
      <path class="cls-7" d="M487.058,415.031c-2.317,0-4.452-1.522-5.127-3.86-.816-2.833,.818-5.791,3.65-6.608,15.159-4.373,18.62-22.249,22.629-42.949,4.725-24.407,10.082-52.07,38.049-60.812,2.813-.874,5.808,.69,6.687,3.503,.878,2.813-.689,5.807-3.503,6.686-21.883,6.839-26.191,29.093-30.753,52.651-4.283,22.12-8.712,44.994-30.152,51.178-.493,.142-.992,.21-1.481,.21Z"/>
      <path class="cls-7" d="M523.496,625.25c-.253,0-.511-.018-.77-.055-2.917-.421-4.941-3.129-4.519-6.046,2.435-16.822,1.421-43.696,.873-54.471-.15-2.943,2.115-5.452,5.059-5.601,2.929-.234,5.451,2.115,5.601,5.059,.566,11.086,1.601,38.789-.968,56.542-.384,2.658-2.666,4.573-5.276,4.573Z"/>
      <path class="cls-7" d="M670.314,625.835c-2.687,0-4.998-2.021-5.299-4.752-2.381-21.567-.064-50.623,.036-51.85,.237-2.937,2.815-5.144,5.752-4.886,2.938,.238,5.126,2.814,4.888,5.751-.024,.29-2.332,29.274-.066,49.814,.325,2.929-1.789,5.567-4.719,5.89-.198,.023-.396,.033-.591,.033Z"/>
      <path class="cls-7" d="M701.329,417.256c-.126,0-.253-.004-.379-.013-35.711-2.508-64.39-34.447-87.671-97.639-6.329-17.485-15.336-27.768-24.722-28.238-6.471-.295-13.058,4.244-16.612,11.65-1.273,2.658-4.462,3.775-7.122,2.502-2.657-1.275-3.778-4.463-2.502-7.122,5.419-11.291,15.989-18.19,26.771-17.692,8.163,.409,23.461,5.531,34.214,35.237,21.667,58.808,47.312,88.469,78.392,90.652,2.941,.206,5.157,2.758,4.95,5.698-.197,2.813-2.541,4.963-5.318,4.963Z"/>
      <path class="cls-7" d="M488.549,494.361c-.365,0-.734-.037-1.105-.116-21.167-4.453-34.268-16.513-38.937-35.848-3.969-14.989-.435-29.426,9.253-37.562,9.376-7.869,23.034-8.563,37.467-1.9,2.676,1.236,3.845,4.406,2.609,7.083-1.236,2.679-4.41,3.847-7.082,2.609-10.683-4.931-19.964-4.791-26.128,.383-6.487,5.449-8.699,15.706-5.769,26.77,3.749,15.521,13.522,24.388,30.786,28.02,2.885,.607,4.731,3.438,4.124,6.322-.529,2.514-2.746,4.24-5.217,4.24Z"/>
      <path class="cls-7" d="M480.391,462.482c-1.78,0-3.519-.889-4.532-2.511-.027-.042-3.244-5.104-7.47-8.121-2.399-1.713-2.956-5.046-1.244-7.445,1.713-2.399,5.045-2.957,7.445-1.244,5.987,4.273,10.15,10.876,10.324,11.156,1.561,2.499,.799,5.792-1.701,7.354-.878,.55-1.856,.811-2.822,.811Z"/>
      <path class="cls-7" d="M710.214,494.361c-2.471,0-4.688-1.726-5.217-4.24-.608-2.885,1.239-5.716,4.123-6.322,17.265-3.632,27.038-12.499,30.756-27.907,2.958-11.177,.748-21.435-5.74-26.882-6.168-5.177-15.442-5.315-26.127-.383-2.67,1.237-5.849,.07-7.083-2.609-1.236-2.676-.067-5.847,2.609-7.083,14.438-6.662,28.093-5.971,37.465,1.9,9.688,8.136,13.222,22.573,9.225,37.675-4.638,19.221-17.737,31.282-38.907,35.735-.371,.079-.74,.116-1.105,.116Z"/>
      <path class="cls-7" d="M717.629,462.482c-.967,0-1.945-.262-2.825-.812-2.499-1.562-3.259-4.856-1.696-7.355,.174-.278,4.34-6.88,10.32-11.151,2.395-1.716,5.729-1.163,7.445,1.241,1.714,2.398,1.159,5.732-1.24,7.445-4.207,3.007-7.442,8.075-7.473,8.125-1.013,1.621-2.752,2.508-4.53,2.508Z"/>
      <path class="cls-7" d="M636.84,379.432c-1.847,0-3.644-.956-4.631-2.667-1.467-2.545-.615-5.791,1.922-7.271,.824-.479,20.431-11.642,44.17-1.001,2.69,1.205,3.893,4.364,2.687,7.053-1.205,2.689-4.367,3.891-7.053,2.686-18.586-8.33-33.808,.134-34.447,.495-.836,.477-1.748,.704-2.648,.704Z"/>
      <path class="cls-7" d="M550.825,279.355c-1.812,0-3.58-.925-4.581-2.593-9.609-16.014-8.945-34.798-8.912-35.589,.121-2.947,2.596-5.261,5.555-5.111,2.943,.122,5.229,2.604,5.111,5.546h0c-.006,.162-.527,16.452,7.398,29.662,1.518,2.527,.697,5.807-1.83,7.323-.859,.517-1.807,.762-2.742,.762Z"/>
      <path class="cls-7" d="M427.742,591.486c-.803,0-1.616-.182-2.383-.564-34.487-17.246-33.377-77.899-29.629-133.398,5.114-78.868,30.304-159.315,62.679-200.166,30.775-38.471,63.232-41.208,64.598-41.306,2.934-.195,5.495,2.003,5.705,4.943,.21,2.932-1.991,5.48-4.919,5.704h0c-.291,.022-29.383,2.745-57.033,37.309-31.122,39.27-55.393,117.33-60.379,194.223-3.775,55.908-3.51,109.511,23.752,123.142,2.636,1.319,3.706,4.526,2.388,7.162-.936,1.87-2.821,2.952-4.779,2.952Z"/>
      <path class="cls-7" d="M750.254,602.606c-2.35,0-4.502-1.564-5.148-3.94-.773-2.845,.907-5.777,3.753-6.55,12.741-3.459,22.875-11.876,30.123-25.011,21.684-39.298,17.351-119.178-11.588-213.679-6.545-21.274-32.006-93.589-84.711-130.649-42.764-30.148-110.926-25.091-134.655,.04-2.024,2.143-5.4,2.24-7.546,.216-2.143-2.025-2.24-5.403-.216-7.546,27.094-28.687,100.969-34.987,148.564-1.438,53.957,37.942,80.054,107.92,88.77,136.246,29.77,97.214,33.781,180.19,10.728,221.968-8.697,15.763-21.036,25.909-36.673,30.156-.468,.126-.938,.188-1.401,.188Z"/>
      <path class="cls-7" d="M459.63,606.315c-.514,0-1.038-.075-1.557-.233-6.938-2.113-13.083-7.935-17.772-16.839-7.076-13.433-9.941-32.435-6.524-43.255,.888-2.811,3.891-4.366,6.697-3.483,2.811,.888,4.371,3.886,3.483,6.697-2.295,7.269-.517,23.094,5.789,35.067,3.284,6.236,7.345,10.355,11.438,11.6,2.819,.859,4.41,3.841,3.552,6.662-.701,2.301-2.817,3.784-5.105,3.784Z"/>
      <path class="cls-7" d="M502.22,613.202c-.523,0-1.055-.078-1.58-.24-12.847-3.978-21.819-11.541-25.951-21.87-1.094-2.737,.237-5.844,2.974-6.939,2.737-1.092,5.842,.237,6.939,2.974,2.935,7.341,9.392,12.601,19.195,15.636,2.816,.873,4.392,3.862,3.52,6.678-.711,2.29-2.819,3.76-5.098,3.76Z"/>
      <path class="cls-7" d="M691.134,612.224c-1.776,0-3.515-.886-4.527-2.505-1.565-2.498-.808-5.792,1.69-7.355,4.08-2.557,7.016-6.355,8.726-11.29,.966-2.787,4.006-4.259,6.791-3.297,2.785,.965,4.261,4.006,3.297,6.791-2.527,7.294-6.951,12.961-13.149,16.842-.88,.552-1.86,.814-2.828,.814Z"/>
      <path class="cls-7" d="M713.928,609.278c-2.947,0-5.337-2.39-5.337-5.337s2.391-5.337,5.337-5.337c5.968,0,11.83-2.971,16.956-8.593,10.9-11.954,16.155-32.616,14.059-55.27-.271-2.936,1.888-5.534,4.824-5.807,2.944-.28,5.534,1.888,5.807,4.824,2.368,25.591-3.913,49.309-16.8,63.445-7.204,7.9-15.794,12.076-24.844,12.076Z"/>
      <path class="cls-7" d="M599.6,607.081c-15.393,0-60.552-11.534-88.566-52.002-11.442-16.86-21.188-42.916-28.992-77.484-.649-2.876,1.156-5.732,4.032-6.381,2.878-.651,5.732,1.157,6.381,4.031,7.509,33.26,16.723,58.09,27.384,73.799,25.965,37.508,68.772,47.943,80.563,47.343,2.949-.149,5.455,2.106,5.61,5.05,.155,2.944-2.106,5.455-5.05,5.61-.423,.022-.879,.034-1.363,.034Z"/>
      <path class="cls-7" d="M600.049,556.648c-.325,0-.648-.004-.977-.012-34.913-.829-44.718-43.151-45.118-44.952-.359-1.617,.053-3.309,1.115-4.581,1.062-1.27,2.617-1.987,4.309-1.911,.185,.007,18.666,.735,38.339,.735s39.441-1.452,39.641-1.467c1.632-.131,3.247,.521,4.352,1.741,1.104,1.221,1.583,2.883,1.298,4.504-.332,1.892-8.466,45.938-42.959,45.942Zm-33.562-40.538c3.874,10.447,13.545,29.395,32.838,29.853,19.287,.395,28.05-19.57,31.428-30.39-7.716,.44-20.428,1.029-33.036,1.029-12.19,0-23.925-.277-31.23-.493Z"/>
      <path class="cls-7" d="M599.542,607.081c-.485,0-.938-.012-1.363-.034-2.944-.155-5.205-2.666-5.05-5.61,.153-2.944,2.648-5.19,5.61-5.05,11.789,.594,54.596-9.838,80.59-47.384,10.63-15.664,19.844-40.493,27.359-73.76,.651-2.874,3.507-4.672,6.383-4.03,2.874,.649,4.679,3.507,4.03,6.383-7.81,34.573-17.555,60.629-28.966,77.443-28.04,40.503-73.198,52.042-88.593,52.042Z"/>
      <path class="cls-7" d="M254.951,1217.309h-.07c-2.947-.038-5.306-2.457-5.269-5.405,.033-2.476,3.17-249.29,2.989-404.92-.044-36.132,22.769-86.784,66.461-113.678,55.667-34.263,163.921-60.379,168.503-61.474,2.862-.684,5.745,1.084,6.432,3.951,.685,2.867-1.085,5.747-3.951,6.432-1.105,.264-111.181,26.817-165.387,60.181-40.353,24.839-61.424,71.41-61.383,104.576,.182,155.705-2.957,402.594-2.989,405.069-.037,2.925-2.42,5.269-5.336,5.269Z"/>
      <path class="cls-7" d="M529.067,742.377c-1.893,0-4.654-.697-6.995-4.043-12.906-18.433-29.724-65.904-38.527-101.147-2.334-9.342,19.69-38.379,19.917-38.655,3.716-4.478,14.193-6.79,18.525-7.574,2.903-.529,5.677,1.398,6.203,4.296,.527,2.9-1.396,5.677-4.295,6.206-5.224,.953-11.083,2.846-12.292,3.972-3.44,4.158-16.796,24.498-17.588,29.62,8.079,32.182,23.517,76.332,35.339,94.96,2.892-4.758,6.822-15.844,9.342-22.953,2.641-7.451,5.135-14.489,7.476-18.881,1.271-2.384,3.439-4.046,6.104-4.678,7.262-1.723,17.18,4.763,20.048,6.793,2.405,1.701,2.976,5.026,1.278,7.433-1.698,2.403-5.029,2.983-7.436,1.285-3.846-2.706-8.815-5.019-10.916-5.147-1.896,3.793-4.133,10.103-6.493,16.762-6.933,19.557-11.217,30.671-18.657,31.682-.303,.041-.649,.07-1.032,.07Z"/>
      <path class="cls-7" d="M597.993,702.894c-2.925,0-5.309-2.357-5.336-5.288-.028-3.159-6.649-7.079-14.315-11.616-16.731-9.905-42.018-24.872-59.456-62.442-1.24-2.675-.079-5.848,2.594-7.089,2.675-1.24,5.847-.079,7.089,2.594,16.043,34.564,39.613,48.517,55.21,57.751,10.877,6.438,19.467,11.524,19.552,20.704,.027,2.947-2.341,5.36-5.288,5.387h-.051Z"/>
      <path class="cls-7" d="M386.241,1214.688c-2.812,0-5.167-2.197-5.324-5.039-.04-.712-4.028-71.559-8.414-102.532-1.524-10.773-4.651-18.894-7.963-27.492-6.006-15.596-12.815-33.272-10.946-69.899,1.038-20.395,5.526-36.63,10.279-53.819,7.507-27.161,16.019-57.944,11.4-112.963-.247-2.937,1.934-5.519,4.871-5.767,2.979-.209,5.519,1.936,5.765,4.873,4.779,56.919-4.002,88.679-11.748,116.701-4.591,16.608-8.928,32.293-9.908,51.517-1.753,34.363,4.349,50.203,10.248,65.521,3.38,8.777,6.877,17.853,8.572,29.833,4.449,31.423,8.338,100.507,8.501,103.432,.165,2.942-2.088,5.463-5.031,5.626-.101,.006-.203,.009-.302,.009Z"/>
      <path class="cls-7" d="M938.62,1217.309c-2.916,0-5.299-2.344-5.336-5.269-.031-2.476-3.13-249.364-2.949-405.069,.037-33.181-20.744-79.76-60.532-104.593-53.448-33.355-161.993-59.902-163.083-60.167-2.865-.694-4.624-3.58-3.93-6.444,.694-2.865,3.585-4.628,6.444-3.93,4.518,1.095,111.304,27.215,166.221,61.486,43.09,26.895,65.596,77.535,65.555,113.662-.182,155.63,2.917,402.445,2.949,404.92,.038,2.948-2.321,5.367-5.271,5.405h-.068Z"/>
      <path class="cls-7" d="M664.5,742.377c-.383,0-.73-.03-1.032-.07-7.44-1.011-11.725-12.126-18.656-31.681-2.359-6.659-4.596-12.969-6.492-16.76-2.105,.137-7.153,2.482-10.913,5.141-2.407,1.704-5.738,1.13-7.439-1.276-1.702-2.407-1.13-5.738,1.276-7.439,2.867-2.031,12.79-8.516,20.051-6.793,2.666,.633,4.832,2.295,6.103,4.681,2.339,4.391,4.834,11.429,7.475,18.879,2.517,7.101,6.441,18.173,9.333,22.938,11.9-18.817,27.285-62.838,35.348-94.946-.792-5.126-14.146-25.465-17.663-29.705-1.132-1.04-6.994-2.934-12.219-3.887-2.9-.529-4.822-3.306-4.295-6.206,.527-2.898,3.3-4.825,6.203-4.296,4.332,.785,14.809,3.096,18.526,7.573,.228,.275,22.254,29.304,19.917,38.657-8.806,35.248-25.625,82.719-38.528,101.149-2.341,3.345-5.102,4.042-6.995,4.042Zm35.082-107.09h0Z"/>
      <path class="cls-7" d="M597.437,1217.792h-.002c-2.949,0-5.337-2.393-5.336-5.341,.002-4.703,.186-470.884,.586-514.942,.081-9.127,8.399-14.218,18.931-20.66,15.079-9.226,37.865-23.167,53.353-57.731,1.203-2.691,4.363-3.895,7.055-2.688,2.689,1.207,3.893,4.364,2.688,7.055-16.841,37.58-41.324,52.559-57.524,62.47-7.405,4.53-13.8,8.443-13.828,11.651-.399,44.013-.584,510.149-.585,514.852-.002,2.945-2.391,5.335-5.338,5.335Z"/>
      <path class="cls-7" d="M807.327,1214.688c-.1,0-.201-.003-.302-.009-2.943-.163-5.196-2.684-5.031-5.626,.163-2.925,4.051-72.009,8.501-103.432,1.694-11.98,5.191-21.056,8.572-29.836,5.899-15.316,12-31.155,10.25-65.519-.981-19.221-5.318-34.908-9.908-51.514-7.747-28.025-16.526-59.785-11.75-116.704,.246-2.937,2.84-5.102,5.765-4.873,2.937,.247,5.119,2.83,4.871,5.767-4.615,55.019,3.894,85.805,11.403,112.966,4.751,17.186,9.24,33.421,10.279,53.816,1.866,36.627-4.943,54.301-10.949,69.899-3.312,8.597-6.439,16.719-7.963,27.492-4.387,30.979-8.374,101.82-8.414,102.532-.158,2.842-2.512,5.039-5.324,5.039Z"/>
      <path class="cls-8" d="M642.012,428.227c0-6.67,4.447-11.862,10.378-11.862s10.38,5.192,10.38,11.862-4.447,11.863-10.38,11.863c-5.19,0-10.378-5.19-10.378-11.863Z"/>
      <path class="cls-8" d="M534.509,428.227c0-6.67,4.447-11.862,11.12-11.862,5.933,0,10.38,5.192,10.38,11.862s-4.447,11.863-10.38,11.863c-6.673,0-11.12-5.19-11.12-11.863Z"/>
    </g>
  </g>
</svg>