<?xml version="1.0" encoding="UTF-8"?>
<svg xmlns="http://www.w3.org/2000/svg" viewBox="0 0 1407.37 242.06">
  <defs>
    <style>
      .cls-1 {
        fill: #000729;
      }

      .cls-2 {
        fill: #ff7979;
      }

      .cls-3 {
        fill: #febe76;
      }

      .cls-4 {
        fill: #7e8c8d;
      }

      .cls-5 {
        fill: #a3e3df;
      }

      .cls-6 {
        fill: #afb9d2;
      }

      .cls-7 {
        fill: #d7deed;
      }

      .cls-8 {
        fill: #707487;
      }

      .cls-9 {
        fill: #95a5a5;
      }
    </style>
  </defs>
  <g id="_594" data-name="594">
    <g>
      <path class="cls-5" d="M60.51,22.53c3.86,0,6.44,2.58,6.44,6.44,0,3.22-2.58,5.79-6.44,5.79-3.22,0-5.79-2.57-5.79-5.79,0-3.86,2.58-6.44,5.79-6.44Z"/>
      <path class="cls-3" d="M41.2,22.53c3.22,0,5.79,2.58,5.79,6.44,0,3.22-2.57,5.79-5.79,5.79-3.86,0-6.44-2.57-6.44-5.79,0-3.86,2.58-6.44,6.44-6.44Z"/>
      <path class="cls-2" d="M21.24,22.53c3.22,0,5.79,2.58,5.79,6.44,0,3.22-2.58,5.79-5.79,5.79-3.86,0-6.44-2.57-6.44-5.79,0-3.86,2.58-6.44,6.44-6.44Z"/>
      <polygon class="cls-4" points="298.07 1.93 298.07 40.56 291.63 40.56 291.63 9.66 8.37 9.66 8.37 1.93 298.07 1.93"/>
      <path class="cls-9" d="M291.63,40.56v7.73H1.93V9.66H291.63v30.9ZM66.95,28.97c0-3.86-2.58-6.44-6.44-6.44-3.22,0-5.79,2.58-5.79,6.44,0,3.22,2.58,5.79,5.79,5.79,3.86,0,6.44-2.57,6.44-5.79Zm-19.96,0c0-3.86-2.57-6.44-5.79-6.44-3.86,0-6.44,2.58-6.44,6.44,0,3.22,2.58,5.79,6.44,5.79,3.22,0,5.79-2.57,5.79-5.79Zm-19.96,0c0-3.86-2.58-6.44-5.79-6.44-3.86,0-6.44,2.58-6.44,6.44,0,3.22,2.58,5.79,6.44,5.79,3.22,0,5.79-2.57,5.79-5.79Z"/>
      <rect class="cls-6" x="1.93" y="48.29" width="47" height="173.17"/>
      <path class="cls-7" d="M168.79,119.62c12.13,0,21.99,9.84,21.99,21.97s-9.86,21.99-21.99,21.99-21.99-9.84-21.99-21.99,9.84-21.97,21.99-21.97Z"/>
      <path class="cls-7" d="M291.63,48.29V221.46H48.93V48.29h242.7Zm-62.95,97.61v-8.59l-16.55-2.49c-.49-3.12-1.31-6.14-2.41-9.02l13.1-10.43-4.31-7.44-15.59,6.12c-1.95-2.42-4.17-4.64-6.59-6.58l6.12-15.59-7.44-4.31-10.43,13.1c-2.88-1.12-5.88-1.93-9.02-2.42l-2.49-16.54h-8.59l-2.48,16.54c-3.13,.5-6.13,1.3-9.01,2.42l-10.43-13.1-7.44,4.31,6.12,15.59c-2.42,1.94-4.63,4.16-6.6,6.58l-15.58-6.12-4.31,7.44,13.09,10.43c-1.1,2.88-1.92,5.9-2.4,9.02l-16.55,2.47v8.61l16.55,2.49c.48,3.12,1.3,6.12,2.4,9l-13.09,10.43,4.31,7.44,15.58-6.12c1.97,2.42,4.18,4.64,6.6,6.6l-6.12,15.58,7.44,4.31,10.43-13.09c2.88,1.1,5.88,1.92,9.01,2.4l2.48,16.54h8.59l2.49-16.54c3.13-.48,6.14-1.3,9.02-2.4l10.43,13.09,7.44-4.31-6.12-15.58c2.42-1.96,4.64-4.18,6.59-6.6l15.59,6.12,4.31-7.44-13.1-10.43c1.1-2.88,1.92-5.88,2.41-9l16.55-2.49Z"/>
      <path class="cls-8" d="M228.67,141.59v4.3l-16.55,2.49c-.49,3.12-1.31,6.12-2.41,9l13.1,10.43-4.31,7.44-15.59-6.12c-1.95,2.42-4.17,4.64-6.59,6.6l6.12,15.58-7.44,4.31-10.43-13.09c-2.88,1.1-5.88,1.92-9.02,2.4l-2.49,16.54h-8.59l-2.48-16.54c-3.13-.48-6.13-1.3-9.01-2.4l-10.43,13.09-7.44-4.31,6.12-15.58c-2.42-1.96-4.63-4.18-6.6-6.6l-15.58,6.12-4.31-7.44,13.09-10.43c-1.1-2.88-1.92-5.88-2.4-9l-16.55-2.49v-8.61l16.55-2.47c.48-3.12,1.3-6.14,2.4-9.02l-13.09-10.43,4.31-7.44,15.58,6.12c1.97-2.42,4.18-4.64,6.6-6.58l-6.12-15.59,7.44-4.31,10.43,13.1c2.88-1.12,5.88-1.93,9.01-2.42l2.48-16.54h8.59l2.49,16.54c3.13,.5,6.14,1.3,9.02,2.42l10.43-13.1,7.44,4.31-6.12,15.59c2.42,1.94,4.64,4.16,6.59,6.58l15.59-6.12,4.31,7.44-13.1,10.43c1.1,2.88,1.92,5.9,2.41,9.02l16.55,2.49v4.29Zm-37.9,0c0-12.14-9.86-21.97-21.99-21.97s-21.99,9.84-21.99,21.97,9.84,21.99,21.99,21.99,21.99-9.84,21.99-21.99Z"/>
      <path class="cls-1" d="M291.63,223.39H48.93c-1.07,0-1.93-.86-1.93-1.93s.87-1.93,1.93-1.93h240.77V48.29c0-1.07,.87-1.93,1.93-1.93s1.93,.87,1.93,1.93V221.46c0,1.07-.87,1.93-1.93,1.93Z"/>
      <path class="cls-1" d="M291.63,50.21H48.93c-1.07,0-1.93-.86-1.93-1.93s.87-1.93,1.93-1.93h240.77v-5.79c0-1.07,.87-1.93,1.93-1.93s1.93,.86,1.93,1.93v7.73c0,1.07-.87,1.93-1.93,1.93Z"/>
      <path class="cls-1" d="M1.93,50.21c-1.06,0-1.93-.86-1.93-1.93V9.66c0-1.07,.87-1.93,1.93-1.93h6.44c1.06,0,1.93,.87,1.93,1.93s-.87,1.93-1.93,1.93H3.86V48.29c0,1.07-.87,1.93-1.93,1.93Z"/>
      <path class="cls-1" d="M48.93,223.39H1.93c-1.06,0-1.93-.86-1.93-1.93V48.29c0-1.07,.87-1.93,1.93-1.93H48.93c1.06,0,1.93,.87,1.93,1.93V221.46c0,1.07-.87,1.93-1.93,1.93Zm-45.06-3.86H46.99V50.21H3.86V219.53Z"/>
      <path class="cls-1" d="M21.24,36.7c-4.77,0-8.37-3.32-8.37-7.72,0-4.93,3.44-8.37,8.37-8.37,4.4,0,7.73,3.6,7.73,8.37,0,4.26-3.46,7.72-7.73,7.72Zm0-12.23c-2.78,0-4.51,1.72-4.51,4.51,0,2.27,1.85,3.86,4.51,3.86,2.17,0,3.86-1.7,3.86-3.86,0-2.66-1.59-4.51-3.86-4.51Z"/>
      <path class="cls-1" d="M41.2,36.7c-4.77,0-8.37-3.32-8.37-7.72,0-4.93,3.44-8.37,8.37-8.37,4.41,0,7.73,3.6,7.73,8.37,0,4.26-3.47,7.72-7.73,7.72Zm0-12.23c-2.78,0-4.51,1.72-4.51,4.51,0,2.27,1.85,3.86,4.51,3.86,2.17,0,3.86-1.7,3.86-3.86,0-2.66-1.59-4.51-3.86-4.51Z"/>
      <path class="cls-1" d="M60.51,36.7c-4.26,0-7.72-3.46-7.72-7.72,0-4.77,3.32-8.37,7.72-8.37,4.93,0,8.37,3.44,8.37,8.37,0,4.4-3.6,7.72-8.37,7.72Zm0-12.23c-2.27,0-3.86,1.85-3.86,4.51,0,2.16,1.7,3.86,3.86,3.86,2.66,0,4.51-1.59,4.51-3.86,0-2.78-1.73-4.51-4.51-4.51Z"/>
      <path class="cls-1" d="M195.71,234.98H31.54c-1.07,0-1.93-.87-1.93-1.93s.86-1.93,1.93-1.93H195.71c1.07,0,1.93,.87,1.93,1.93s-.87,1.93-1.93,1.93Z"/>
      <path class="cls-1" d="M247.21,242.06H119.1c-1.07,0-1.93-.87-1.93-1.93s.87-1.93,1.93-1.93H247.21c1.07,0,1.93,.87,1.93,1.93s-.87,1.93-1.93,1.93Z"/>
      <path class="cls-1" d="M276.82,242.06h-16.09c-1.07,0-1.93-.87-1.93-1.93s.86-1.93,1.93-1.93h16.09c1.07,0,1.93,.87,1.93,1.93s-.87,1.93-1.93,1.93Z"/>
      <path class="cls-1" d="M63.73,242.06H3.22c-1.06,0-1.93-.87-1.93-1.93s.87-1.93,1.93-1.93H63.73c1.07,0,1.93,.87,1.93,1.93s-.87,1.93-1.93,1.93Z"/>
      <path class="cls-1" d="M168.79,165.51c-13.19,0-23.92-10.73-23.92-23.92s10.73-23.91,23.92-23.91,23.92,10.72,23.92,23.91-10.73,23.92-23.92,23.92Zm0-43.96c-11.06,0-20.06,8.99-20.06,20.04s9,20.06,20.06,20.06,20.06-9,20.06-20.06-9-20.04-20.06-20.04Z"/>
      <path class="cls-1" d="M173.07,203.41h-8.59c-.96,0-1.77-.7-1.91-1.65l-2.27-15.16c-2.23-.42-4.47-1.01-6.67-1.78l-9.56,12c-.6,.75-1.65,.95-2.48,.47l-7.44-4.31c-.83-.48-1.18-1.49-.83-2.38l5.62-14.28c-1.74-1.5-3.38-3.14-4.88-4.88l-14.29,5.61c-.89,.35-1.9,0-2.38-.83l-4.31-7.44c-.48-.83-.28-1.88,.47-2.48l12-9.56c-.76-2.2-1.36-4.43-1.78-6.65l-15.17-2.28c-.94-.14-1.64-.96-1.64-1.91v-8.61c0-.96,.7-1.77,1.65-1.91l15.17-2.26c.42-2.24,1.01-4.48,1.78-6.67l-12-9.56c-.75-.59-.95-1.65-.47-2.48l4.31-7.44c.48-.83,1.49-1.18,2.38-.83l14.29,5.61c1.51-1.75,3.14-3.38,4.88-4.87l-5.61-14.29c-.35-.89,0-1.9,.83-2.38l7.44-4.31c.83-.48,1.88-.28,2.48,.47l9.55,12.01c2.15-.76,4.38-1.36,6.67-1.79l2.27-15.17c.14-.95,.95-1.65,1.91-1.65h8.59c.96,0,1.77,.7,1.91,1.64l2.29,15.17c2.29,.43,4.53,1.03,6.68,1.79l9.56-12.01c.6-.75,1.65-.95,2.48-.47l7.44,4.31c.82,.48,1.18,1.49,.83,2.38l-5.61,14.29c1.75,1.5,3.38,3.13,4.87,4.87l14.29-5.61c.89-.35,1.9,0,2.38,.83l4.31,7.44c.48,.83,.28,1.88-.47,2.48l-12.01,9.57c.76,2.19,1.36,4.42,1.79,6.67l15.17,2.28c.95,.14,1.65,.96,1.65,1.91v8.59c0,.96-.7,1.77-1.65,1.91l-15.17,2.28c-.42,2.24-1.02,4.46-1.79,6.65l12.01,9.56c.75,.59,.95,1.65,.47,2.48l-4.31,7.44c-.48,.82-1.49,1.18-2.38,.83l-14.29-5.61c-1.48,1.73-3.12,3.36-4.87,4.88l5.61,14.28c.35,.89,0,1.9-.83,2.38l-7.44,4.31c-.83,.48-1.88,.28-2.48-.47l-9.56-12c-2.2,.77-4.44,1.37-6.67,1.78l-2.28,15.16c-.14,.94-.95,1.64-1.91,1.64Zm-6.93-3.86h5.27l2.24-14.9c.13-.84,.78-1.5,1.62-1.62,2.88-.44,5.78-1.21,8.62-2.3,.79-.3,1.68-.06,2.2,.6l9.39,11.79,4.56-2.64-5.52-14.03c-.31-.78-.07-1.67,.58-2.21,2.34-1.9,4.46-4.03,6.3-6.31,.53-.66,1.42-.9,2.21-.59l14.04,5.52,2.64-4.56-11.8-9.39c-.66-.52-.9-1.41-.6-2.2,1.08-2.82,1.86-5.71,2.31-8.61,.13-.83,.79-1.48,1.62-1.61l14.91-2.24v-5.27l-14.91-2.25c-.83-.13-1.49-.78-1.62-1.61-.46-2.91-1.24-5.82-2.31-8.63-.3-.79-.05-1.68,.6-2.2l11.8-9.39-2.64-4.57-14.04,5.52c-.79,.31-1.68,.07-2.21-.59-1.85-2.3-3.97-4.42-6.29-6.28-.66-.53-.9-1.43-.59-2.21l5.52-14.05-4.56-2.64-9.39,11.8c-.53,.66-1.42,.91-2.21,.6-2.73-1.06-5.63-1.84-8.62-2.31-.83-.13-1.48-.79-1.61-1.62l-2.24-14.9h-5.27l-2.23,14.9c-.13,.83-.77,1.49-1.61,1.62-2.99,.47-5.89,1.25-8.61,2.31-.79,.3-1.69,.06-2.21-.6l-9.39-11.8-4.57,2.64,5.52,14.05c.31,.79,.07,1.68-.59,2.21-2.3,1.84-4.42,3.96-6.31,6.29-.53,.65-1.42,.89-2.21,.58l-14.04-5.52-2.64,4.57,11.79,9.39c.66,.53,.9,1.41,.6,2.2-1.08,2.82-1.85,5.73-2.3,8.62-.13,.84-.79,1.49-1.62,1.62l-14.91,2.23v5.29l14.91,2.24c.83,.13,1.49,.78,1.62,1.62,.44,2.88,1.21,5.77,2.3,8.6,.3,.79,.06,1.68-.6,2.2l-11.79,9.39,2.64,4.56,14.04-5.52c.78-.31,1.67-.07,2.2,.58,1.88,2.32,4,4.44,6.32,6.32,.65,.53,.89,1.42,.58,2.21l-5.51,14.03,4.56,2.64,9.39-11.79c.53-.66,1.41-.9,2.2-.6,2.84,1.09,5.74,1.86,8.61,2.3,.84,.13,1.49,.78,1.62,1.62l2.23,14.9Z"/>
      <path class="cls-1" d="M242.06,136.48c-1.07,0-1.93-.86-1.93-1.93v-43.13c0-2.9-2.42-5.15-4.51-5.15h-3.22c-1.07,0-1.93-.86-1.93-1.93s.86-1.93,1.93-1.93h3.22c4.46,0,8.37,4.21,8.37,9.01v43.13c0,1.07-.87,1.93-1.93,1.93Z"/>
      <path class="cls-1" d="M249.14,143.56c-4.97,0-9.01-4.04-9.01-9.01,0-1.07,.87-1.93,1.93-1.93s1.93,.86,1.93,1.93c0,2.79,2.36,5.15,5.15,5.15,1.07,0,1.93,.86,1.93,1.93s-.86,1.93-1.93,1.93Z"/>
      <path class="cls-1" d="M235.62,200.86h-3.22c-1.07,0-1.93-.86-1.93-1.93s.86-1.93,1.93-1.93h3.22c2.08,0,4.51-2.25,4.51-5.15v-43.13c0-1.06,.87-1.93,1.93-1.93s1.93,.87,1.93,1.93v43.13c0,4.8-3.91,9.01-8.37,9.01Z"/>
      <path class="cls-1" d="M242.06,150.64c-1.07,0-1.93-.87-1.93-1.93,0-4.97,4.04-9.01,9.01-9.01h3.22c1.07,0,1.93,.86,1.93,1.93s-.87,1.93-1.93,1.93h-3.22c-2.79,0-5.15,2.36-5.15,5.15,0,1.07-.87,1.93-1.93,1.93Z"/>
      <path class="cls-1" d="M95.92,136.48c-1.07,0-1.93-.86-1.93-1.93v-43.13c0-4.97,4.04-9.01,9.01-9.01h3.22c1.07,0,1.93,.87,1.93,1.93s-.87,1.93-1.93,1.93h-3.22c-2.79,0-5.15,2.36-5.15,5.15v43.13c0,1.07-.86,1.93-1.93,1.93Z"/>
      <path class="cls-1" d="M89.49,143.56c-1.07,0-1.93-.87-1.93-1.93s.86-1.93,1.93-1.93c2.96,0,4.51-2.59,4.51-5.15,0-1.07,.86-1.93,1.93-1.93s1.93,.86,1.93,1.93c0,5.14-3.6,9.01-8.37,9.01Z"/>
      <path class="cls-1" d="M106.22,200.86h-3.22c-4.97,0-9.01-4.04-9.01-9.01v-43.13c0-1.06,.86-1.93,1.93-1.93s1.93,.87,1.93,1.93v43.13c0,2.79,2.36,5.15,5.15,5.15h3.22c1.07,0,1.93,.86,1.93,1.93s-.87,1.93-1.93,1.93Z"/>
      <path class="cls-1" d="M95.92,150.64c-1.07,0-1.93-.87-1.93-1.93,0-2.56-1.55-5.15-4.51-5.15h-3.22c-1.07,0-1.93-.87-1.93-1.93s.87-1.93,1.93-1.93h3.22c4.77,0,8.37,3.88,8.37,9.01,0,1.07-.86,1.93-1.93,1.93Z"/>
      <path class="cls-1" d="M298.07,42.49h-6.44c-1.06,0-1.93-.87-1.93-1.93V11.59H8.37c-1.07,0-1.93-.87-1.93-1.93V1.93c0-1.07,.86-1.93,1.93-1.93H298.07c1.06,0,1.93,.87,1.93,1.93V40.56c0,1.07-.87,1.93-1.93,1.93Zm-4.51-3.86h2.57V3.86H10.3v3.86H291.63c1.07,0,1.93,.87,1.93,1.93v28.97Z"/>
    </g>
  </g>
  <g id="Layer_1" data-name="Layer 1">
    <g>
      <path d="M387.46,111.88h42.84v71.44c-6.5,2.56-13.17,4.47-20.02,5.72-6.84,1.25-13.8,1.88-20.86,1.88-11.31,0-20.77-2.89-28.36-8.67-7.59-5.78-13.31-13.95-17.16-24.52-3.84-10.56-5.77-23.09-5.77-37.59s2.17-26.7,6.52-37.17c4.34-10.47,10.7-18.58,19.08-24.33,8.38-5.75,18.59-8.62,30.66-8.62,6.62,0,12.81,.8,18.56,2.39,5.75,1.59,10.91,3.67,15.47,6.23l-7.69,21.75c-3.94-2.5-8.02-4.41-12.23-5.72s-8.61-1.97-13.17-1.97c-6.56,0-12.06,1.86-16.5,5.58-4.44,3.72-7.78,9.16-10.03,16.31-2.25,7.16-3.38,15.92-3.38,26.3,0,9.56,.92,17.89,2.77,24.98,1.84,7.09,4.66,12.58,8.44,16.45,3.78,3.88,8.61,5.81,14.48,5.81,2.44,0,4.8-.19,7.08-.56,2.28-.38,4.42-.9,6.42-1.59v-31.88h-17.16v-22.22Z"/>
      <path d="M496.59,82.07c1.37,0,2.72,.11,4.03,.33,1.31,.22,2.84,.58,4.59,1.08l-2.25,26.62c-1.25-.5-2.61-.84-4.08-1.03-1.47-.19-3.08-.28-4.83-.28-2.88,0-5.44,.63-7.69,1.88-2.25,1.25-4.14,3.05-5.67,5.39-1.53,2.34-2.69,5.16-3.47,8.44-.78,3.28-1.17,6.95-1.17,11.02v53.53h-24.94V84.03h19.22l3.56,17.25h1.22c1.37-3.31,3.09-6.44,5.16-9.38,2.06-2.94,4.47-5.31,7.22-7.12,2.75-1.81,5.78-2.72,9.09-2.72Z"/>
      <path d="M554.05,82.07c10.19,0,17.95,3.14,23.3,9.42s8.02,15.64,8.02,28.08v69.47h-18.28l-4.03-14.06h-.56c-2.12,3.56-4.39,6.53-6.8,8.91-2.41,2.38-5.14,4.14-8.2,5.3-3.06,1.16-6.66,1.73-10.78,1.73-5.81,0-10.52-1.56-14.11-4.69-3.59-3.12-6.2-7.19-7.83-12.19-1.63-5-2.44-10.31-2.44-15.94,0-10.94,3.03-19.22,9.09-24.84,6.06-5.62,14.69-8.66,25.88-9.09l13.03-.56v-4.22c0-5.75-.89-10.05-2.67-12.89-1.78-2.84-4.7-4.27-8.77-4.27-3,0-6.28,.59-9.84,1.78-3.56,1.19-7.47,3.03-11.72,5.53l-6.94-18.66c4.75-2.87,9.97-5.06,15.66-6.56,5.69-1.5,11.69-2.25,18-2.25Zm6.28,58.22l-7.03,.38c-5.31,.25-9.27,1.73-11.86,4.45-2.59,2.72-3.89,6.67-3.89,11.86,0,4.69,.8,8.19,2.39,10.5,1.59,2.31,3.92,3.47,6.98,3.47,3.94,0,7.16-1.91,9.66-5.72,2.5-3.81,3.75-8.94,3.75-15.38v-9.56Z"/>
      <path d="M651.37,104.75h-16.88v84.28h-25.03V104.75h-12.09v-13.41l12.09-7.31v-3.28c0-8.87,.91-16.16,2.72-21.84,1.81-5.69,4.73-9.91,8.77-12.66,4.03-2.75,9.3-4.12,15.8-4.12,3.69,0,7.02,.33,9.98,.98,2.97,.66,6.42,1.73,10.36,3.23l-5.34,18.84c-1.75-.56-3.41-1.02-4.97-1.36-1.56-.34-3.16-.52-4.78-.52-2.69,0-4.61,1.17-5.77,3.52-1.16,2.34-1.73,6.39-1.73,12.14v5.06h16.88v20.72Z"/>
      <path d="M719.71,158.28c0,7.12-1.33,13.11-3.98,17.95-2.66,4.84-6.5,8.5-11.53,10.97-5.03,2.47-11.08,3.7-18.14,3.7-5.06,0-9.89-.48-14.48-1.45-4.59-.97-8.92-2.45-12.98-4.45v-24.19c3.38,2.31,7.28,4.3,11.72,5.95,4.44,1.66,8.94,2.48,13.5,2.48,3.5,0,6.19-.81,8.06-2.44,1.88-1.62,2.81-4,2.81-7.12,0-1.75-.38-3.39-1.12-4.92-.75-1.53-2.25-3.15-4.5-4.88-2.25-1.72-5.62-3.7-10.12-5.95-4.31-2.37-8-5.09-11.06-8.16-3.06-3.06-5.41-6.56-7.03-10.5-1.63-3.94-2.44-8.4-2.44-13.41,0-9.25,2.87-16.53,8.62-21.84,5.75-5.31,13.62-7.97,23.62-7.97,5.12,0,9.95,.7,14.48,2.11,4.53,1.41,8.98,3.45,13.36,6.14l-6.84,19.22c-3-2-6.16-3.69-9.47-5.06-3.31-1.37-6.69-2.06-10.12-2.06-3.06,0-5.41,.74-7.03,2.2-1.63,1.47-2.44,3.48-2.44,6.05,0,1.81,.38,3.38,1.12,4.69s2.23,2.77,4.45,4.36c2.22,1.59,5.48,3.7,9.8,6.33,4.31,2.5,8.09,5.22,11.34,8.16,3.25,2.94,5.8,6.34,7.64,10.22,1.84,3.88,2.77,8.5,2.77,13.88Z"/>
      <path d="M770.71,169.07c1.75,0,3.61-.23,5.58-.7s4.02-1.2,6.14-2.2v19.97c-2.75,1.56-5.77,2.75-9.05,3.56-3.28,.81-6.77,1.22-10.45,1.22-6,0-10.89-1.2-14.67-3.61-3.78-2.4-6.55-6.06-8.3-10.97-1.75-4.91-2.62-11.11-2.62-18.61v-52.97h-10.31v-13.41l12.28-6.56,5.91-22.88h17.06v22.12h18.84v20.72h-18.84v52.03c0,4.12,.64,7.21,1.92,9.23,1.28,2.03,3.45,3.05,6.52,3.05Z"/>
      <path d="M842.15,82.07c1.37,0,2.72,.11,4.03,.33,1.31,.22,2.84,.58,4.59,1.08l-2.25,26.62c-1.25-.5-2.61-.84-4.08-1.03-1.47-.19-3.08-.28-4.83-.28-2.88,0-5.44,.63-7.69,1.88-2.25,1.25-4.14,3.05-5.67,5.39-1.53,2.34-2.69,5.16-3.47,8.44-.78,3.28-1.17,6.95-1.17,11.02v53.53h-24.94V84.03h19.22l3.56,17.25h1.22c1.37-3.31,3.09-6.44,5.16-9.38,2.06-2.94,4.47-5.31,7.22-7.12,2.75-1.81,5.78-2.72,9.09-2.72Z"/>
      <path d="M939.18,136.25c0,7.31-.74,14.25-2.2,20.81-1.47,6.56-3.78,12.38-6.94,17.44-3.16,5.06-7.28,9.06-12.38,12-5.09,2.94-11.3,4.41-18.61,4.41-6.81,0-12.72-1.44-17.72-4.31-5-2.87-9.13-6.83-12.38-11.86-3.25-5.03-5.67-10.84-7.27-17.44-1.59-6.59-2.39-13.61-2.39-21.05,0-10.56,1.39-19.92,4.17-28.08,2.78-8.16,7.12-14.55,13.03-19.17,5.91-4.62,13.55-6.94,22.92-6.94,8.06,0,15.08,2.09,21.05,6.28,5.97,4.19,10.58,10.3,13.83,18.33,3.25,8.03,4.88,17.89,4.88,29.58Zm-54.56,.38c0,7.25,.52,13.35,1.55,18.28,1.03,4.94,2.62,8.66,4.78,11.16,2.16,2.5,4.92,3.75,8.3,3.75s6.2-1.23,8.3-3.7c2.09-2.47,3.62-6.2,4.59-11.2,.97-5,1.45-11.22,1.45-18.66s-.48-13.5-1.45-18.37c-.97-4.88-2.5-8.53-4.59-10.97-2.09-2.44-4.86-3.66-8.3-3.66-5.12,0-8.84,2.72-11.16,8.16-2.31,5.44-3.47,13.84-3.47,25.22Z"/>
      <path d="M1052.43,82.07c8.94,0,15.61,3.11,20.02,9.33,4.41,6.22,6.61,15.74,6.61,28.55v69.09h-24.94v-61.78c0-7.81-.86-13.58-2.58-17.3-1.72-3.72-4.33-5.58-7.83-5.58-4.94,0-8.38,2.59-10.31,7.78-1.94,5.19-2.91,13.09-2.91,23.72v53.16h-25.12v-62.06c0-5.19-.36-9.44-1.08-12.75-.72-3.31-1.81-5.78-3.28-7.41-1.47-1.62-3.36-2.44-5.67-2.44-3.56,0-6.33,1.31-8.3,3.94s-3.34,6.48-4.12,11.58c-.78,5.1-1.17,11.42-1.17,18.98v50.16h-24.94V84.03h19.78l2.62,13.41h1.59c1.37-3.31,3.22-6.11,5.53-8.39,2.31-2.28,5.06-4.02,8.25-5.2,3.19-1.19,6.72-1.78,10.59-1.78,6.06,0,10.88,1.42,14.44,4.27,3.56,2.84,6.09,6.42,7.59,10.73h1.78c2.38-4.88,5.45-8.59,9.23-11.16,3.78-2.56,8.52-3.84,14.2-3.84Z"/>
      <path d="M1099.21,175.44c0-5.12,1.28-9.03,3.84-11.72,2.56-2.69,6.28-4.03,11.16-4.03s8.22,1.33,10.78,3.98c2.56,2.66,3.84,6.58,3.84,11.77s-1.31,8.95-3.94,11.67-6.19,4.08-10.69,4.08-8.2-1.36-10.92-4.08-4.08-6.61-4.08-11.67Z"/>
      <path d="M1176.46,190.91c-10.12,0-17.84-4.81-23.16-14.44-5.31-9.62-7.97-22.97-7.97-40.03s2.66-30.47,7.97-40.03c5.31-9.56,12.75-14.34,22.31-14.34,3.25,0,6.27,.56,9.05,1.69,2.78,1.12,5.34,2.83,7.69,5.11,2.34,2.28,4.39,5.14,6.14,8.58h.94c-.19-4.06-.36-7.55-.52-10.45-.16-2.91-.23-5.36-.23-7.36V43.16h24.94V189.03h-19.97l-3.47-11.53h-1.5c-2,3.13-4.08,5.67-6.23,7.64s-4.52,3.42-7.08,4.36c-2.56,.94-5.53,1.41-8.91,1.41Zm7.41-20.91c5,0,8.72-2.44,11.16-7.31s3.66-12.53,3.66-22.97v-6c0-10.37-1.17-17.95-3.52-22.73s-6.11-7.17-11.3-7.17c-4.5,0-7.83,2.73-9.98,8.2-2.16,5.47-3.23,13.55-3.23,24.23,0,11.31,1.12,19.77,3.38,25.36,2.25,5.59,5.53,8.39,9.84,8.39Z"/>
      <path d="M1279.3,82.25c7.88,0,14.55,1.94,20.02,5.81,5.47,3.88,9.61,9.36,12.42,16.45,2.81,7.09,4.22,15.48,4.22,25.17v14.06h-50.06c.12,9.19,1.81,15.95,5.06,20.3,3.25,4.35,8.22,6.52,14.91,6.52,4.44,0,8.64-.58,12.61-1.73,3.97-1.16,8.2-3.14,12.7-5.95v20.81c-4.19,2.5-8.66,4.33-13.41,5.48-4.75,1.16-9.88,1.73-15.38,1.73-9.62,0-17.47-2.17-23.53-6.52-6.06-4.34-10.5-10.53-13.31-18.56-2.81-8.03-4.22-17.58-4.22-28.64,0-11.81,1.42-21.8,4.27-29.95,2.84-8.16,7.08-14.36,12.7-18.61,5.62-4.25,12.62-6.38,21-6.38Zm.56,19.59c-4.12,0-7.41,1.86-9.84,5.58-2.44,3.72-3.75,9.8-3.94,18.23h26.72c0-4.94-.5-9.19-1.5-12.75-1-3.56-2.47-6.3-4.41-8.2-1.94-1.91-4.28-2.86-7.03-2.86Z"/>
      <path d="M1351.12,189.03l-28.41-105h25.97l11.91,55.5c.88,3.63,1.59,7.28,2.16,10.97,.56,3.69,1.06,7.56,1.5,11.62h.75c.12-2.87,.48-6.08,1.08-9.61,.59-3.53,1.33-7.36,2.2-11.48l12.66-57h25.88l-28.59,105h-27.09Z"/>
    </g>
  </g>
</svg>