<?xml version="1.0" encoding="UTF-8"?>
<svg id="Illustration" xmlns="http://www.w3.org/2000/svg" xmlns:xlink="http://www.w3.org/1999/xlink" viewBox="0 0 1827.075 1830">
  <defs>
    <style>
      .cls-1 {
        clip-path: url(#clippath);
      }

      .cls-2 {
        fill: #f7f1eb;
      }

      .cls-3 {
        fill: #f2e6dc;
      }

      .cls-4 {
        fill: #efbc73;
      }

      .cls-5 {
        fill: #fff;
      }

      .cls-6 {
        fill: #e6d0be;
      }

      .cls-7 {
        fill: #8b865c;
      }

      .cls-8 {
        fill: #bc8271;
      }

      .cls-9 {
        fill: #d87355;
      }

      .cls-10 {
        fill: #d3bba3;
      }

      .cls-11 {
        fill: #e0aa63;
      }

      .cls-12 {
        fill: #e2a18d;
      }

      .cls-13 {
        fill: #40484c;
      }

      .cls-14 {
        fill: #363e44;
      }

      .cls-15 {
        fill: #373e44;
      }

      .cls-16 {
        fill: #84524d;
      }

      .cls-17 {
        fill: #776e42;
      }
    </style>
    <clipPath id="clippath">
      <circle class="cls-4" cx="865.114" cy="236.244" r="140.882"/>
    </clipPath>
  </defs>
  <g id="Silent_disco" data-name="Silent disco">
    <circle class="cls-3" cx="913.543" cy="916.467" r="913.533"/>
    <g>
      <path class="cls-2" d="M725.149,1105.973c-.111,0-.222-.009-.335-.026-1.09-.166-1.869-1.103-1.869-2.173,0-.11,.007-.221,.025-.335l128.226-839.076-32.244,65.899c-.122,.247-.282,.46-.471,.638l-171.64,349.368c-.535,1.09-1.854,1.539-2.946,1.004-.78-.383-1.233-1.167-1.231-1.98,0-.325,.073-.656,.226-.967l201.353-409.847-353.059,451.164c-.75,.957-2.132,1.126-3.09,.376-.553-.432-.844-1.077-.845-1.731-.001-.475,.152-.954,.468-1.359l350.485-447.873-486.83,438.698c-.905,.81-2.297,.742-3.108-.163-.378-.419-.565-.944-.566-1.468-.001-.602,.244-1.204,.728-1.64l485.586-437.578L249.292,642.336c-1.025,.658-2.386,.361-3.042-.664-.236-.368-.349-.778-.349-1.184-.001-.727,.357-1.436,1.011-1.857L778.587,297.257c-.423-.176-.795-.488-1.046-.914-.207-.353-.305-.737-.304-1.118,.001-.752,.389-1.485,1.086-1.896l10.362-6.094c-.002-.034-.002-.071-.002-.105,0-.095,.005-.191,.018-.286l-50.532,25.639c-1.086,.555-2.41,.116-2.959-.967-.161-.316-.239-.656-.239-.989-.002-.804,.439-1.58,1.205-1.969l103.539-52.534-536.865,112.414c-1.196,.256-2.356-.512-2.607-1.703-.031-.153-.047-.307-.046-.458,.001-1.017,.714-1.93,1.75-2.148l141.348-29.597c.292-.297,.673-.512,1.111-.602l379.217-79.064-359.974,24.814c-1.211,.054-2.264-.832-2.347-2.047-.003-.052-.005-.103-.005-.155,.001-1.146,.889-2.111,2.05-2.193l353.638-24.375-496.819-22.572c-1.181-.054-2.102-1.03-2.101-2.199,0-.034,.001-.067,.002-.099,.056-1.217,1.116-2.182,2.299-2.1l492.981,22.398-14.515-2.182c-1.089-.166-1.871-1.101-1.873-2.169,0-.112,.007-.224,.025-.335,.057-.383,.21-.727,.43-1.013l-453.699-94.191c-1.041-.217-1.757-1.137-1.754-2.16,0-.146,.015-.294,.046-.443,.247-1.193,1.414-1.95,2.602-1.709l494.258,102.611-63.121-30.885c-.78-.383-1.234-1.165-1.234-1.98,0-.133,.012-.266,.037-.4L456.946,48.959c-.761-.391-1.198-1.161-1.198-1.961-.001-.34,.077-.682,.242-1.002,.551-1.086,1.876-1.511,2.962-.959l377.143,192.995L571.826,31.231c-.553-.432-.844-1.077-.845-1.73-.001-.475,.152-.954,.468-1.359,.749-.959,2.135-1.126,3.09-.376l262.412,205.349L646.987,22.31c-.378-.421-.565-.946-.566-1.47,0-.602,.244-1.204,.728-1.64,.902-.813,2.295-.744,3.109,.163l190.567,211.472L708.187,16.31c-.222-.359-.329-.757-.329-1.15-.001-.739,.369-1.462,1.044-1.879,1.033-.643,2.391-.32,3.03,.716l97.913,158.361c1.015-.477,2.25-.112,2.83,.879l6.096,10.362c.134-.007,.262,.002,.391,.015l-25.639-50.533c-.161-.316-.239-.656-.239-.989-.002-.804,.439-1.58,1.205-1.969,1.085-.557,2.411-.116,2.959,.967l40.339,79.502L761.769,13.797c-.101-.262-.149-.531-.149-.795,.001-.881,.536-1.713,1.409-2.051,1.134-.434,2.41,.127,2.846,1.26l82.018,212.329L803.914,13.597c-.032-.153-.047-.307-.046-.458,.002-1.017,.715-1.93,1.752-2.145,1.192-.26,2.355,.514,2.604,1.705l42.915,205.839-14.061-203.982c-.003-.052-.005-.103-.005-.155,.001-1.146,.889-2.111,2.05-2.193,1.227-.049,2.265,.832,2.347,2.047l14.56,211.211,22.483-208.309c.13-1.21,1.22-2.081,2.425-1.952,1.129,.123,1.965,1.077,1.965,2.186,0,.077-.004,.159-.013,.239l-18.806,174.241c.089,.002,.178,.011,.268,.024,1.09,.166,1.872,1.101,1.874,2.169,0,.112-.007,.224-.025,.335l-3.982,26.489L924.879,14.371c.353-1.163,1.581-1.819,2.746-1.468,.949,.288,1.562,1.161,1.563,2.105,0,.213-.031,.428-.096,.641l-63.491,209.253,26.541-54.243c.536-1.092,1.857-1.541,2.945-1.01,.78,.383,1.234,1.165,1.234,1.98,0,.325-.072,.654-.224,.965l-14.88,30.412L983.599,30.906c.622-1.043,1.972-1.391,3.017-.765,.694,.413,1.078,1.148,1.076,1.9-.001,.38-.101,.765-.31,1.118l-119.47,200.82,179.264-192.14c.829-.89,2.222-.935,3.111-.107,.465,.434,.701,1.023,.7,1.612-.001,.537-.197,1.075-.592,1.501l-177.284,190.018,254.694-186.623c.979-.72,2.359-.505,3.076,.475,.286,.391,.424,.845,.426,1.294,.002,.679-.311,1.35-.901,1.782l-238.299,174.611,38.431-22.608c1.05-.615,2.398-.267,3.013,.782,.208,.352,.305,.737,.304,1.118-.001,.752-.389,1.486-1.086,1.896l-10.361,6.094c.002,.034,.002,.071,.002,.105,0,.097-.006,.191-.018,.286l50.532-25.639c1.086-.557,2.409-.116,2.959,.967,.161,.316,.239,.656,.239,.989,.001,.234-.035,.466-.107,.686l261.987-123.848c1.097-.518,2.411-.052,2.931,1.049,.144,.305,.212,.628,.211,.944-.001,.823-.467,1.612-1.261,1.988l-366.549,173.276,258.5-54.127c.356-.075,.71-.058,1.038,.032l156.001-32.525c1.194-.258,2.356,.514,2.604,1.705,.032,.153,.047,.307,.046,.458-.002,1.017-.715,1.93-1.752,2.145l-402.302,83.879,359.974-24.816c1.238-.047,2.264,.832,2.347,2.046,.004,.052,.005,.103,.005,.155-.001,1.146-.889,2.111-2.05,2.193l-363.748,25.074,435.976,37.613c1.145,.099,2.009,1.058,2.012,2.184,0,.067-.002,.131-.009,.198-.105,1.212-1.173,2.113-2.382,2.003l-405.849-35.012c.246,.357,.387,.785,.388,1.238,.001,.112-.007,.224-.025,.335-.179,1.204-1.309,2.014-2.503,1.851l-28.246-4.248,295.237,92.505c.943,.294,1.546,1.165,1.545,2.105-.001,.217-.033,.436-.102,.654-.364,1.161-1.6,1.806-2.758,1.443l-294.698-92.336,52.764,25.816c.78,.383,1.234,1.165,1.234,1.98,0,.325-.072,.654-.224,.965-.535,1.092-1.855,1.548-2.945,1.01l-37.042-18.124,357.599,219.039c.676,.415,1.05,1.135,1.051,1.872,.001,.395-.103,.793-.325,1.154-.634,1.036-1.989,1.361-3.027,.727l-364.502-223.267,437.559,342.412c.553,.432,.844,1.077,.845,1.73,.001,.475-.151,.954-.468,1.359-.749,.959-2.134,1.129-3.09,.376l-447.874-350.481,438.699,486.828c.378,.421,.565,.946,.566,1.47,.001,.602-.244,1.204-.728,1.64-.906,.813-2.297,.739-3.108-.161l-441.098-489.491,33.739,57.358c.207,.352,.305,.737,.304,1.118,0,.103-.007,.206-.021,.307l302.953,521.371c.202,.348,.299,.729,.298,1.107-.001,.757-.393,1.494-1.095,1.9-1.055,.61-2.399,.256-3.01-.798L892.546,318.52l25.024,49.318c.161,.316,.239,.656,.239,.989,.002,.804-.439,1.58-1.205,1.969-1.086,.557-2.409,.116-2.959-.967l-41.874-82.527,304.219,807.925c.095,.254,.141,.514,.142,.77,.002,.892-.542,1.733-1.426,2.066-1.137,.428-2.408-.146-2.837-1.283L869.273,293.162l99.548,371.329c.052,.191,.076,.387,.075,.576-.002,.97-.649,1.857-1.632,2.12-1.173,.316-2.381-.383-2.696-1.556l-102.725-383.178,59.775,468.873c.012,.095,.017,.189,.017,.282,.001,1.092-.811,2.04-1.923,2.182-1.194,.14-2.309-.699-2.462-1.907l-59.277-464.97,4.343,698.6v.013c0,1.21-.977,2.193-2.187,2.201h-.014c-1.209,0-2.194-.976-2.201-2.188l-4.394-706.803-4.277,28.438c-.04,.269-.127,.518-.252,.742l-121.671,796.19c-.166,1.088-1.104,1.868-2.172,1.868Z"/>
      <path class="cls-11" d="M869.517,280.296c-1.208,0-2.192-.974-2.201-2.184l-2.201-275.894c-.01-1.215,.968-2.208,2.184-2.218h.017c1.208,0,2.192,.974,2.201,2.184l2.201,275.894c.01,1.215-.968,2.208-2.184,2.218h-.017Z"/>
      <g>
        <circle class="cls-4" cx="865.114" cy="236.244" r="140.882"/>
        <g class="cls-1">
          <g>
            <path class="cls-5" d="M741.434,366.241h-22.115c-1.216,0-2.201-.985-2.201-2.201V97.02c0-1.217,.986-2.201,2.201-2.201h22.115c1.216,0,2.201,.984,2.201,2.201V364.039c0,1.217-.986,2.201-2.201,2.201Zm-19.914-4.403h17.712V99.221h-17.712V361.838Z"/>
            <path class="cls-5" d="M784.845,372.795h-22.115c-1.216,0-2.201-.985-2.201-2.201V103.572c0-1.217,.986-2.201,2.201-2.201h22.115c1.216,0,2.201,.985,2.201,2.201V370.594c0,1.217-.986,2.201-2.201,2.201Zm-19.914-4.403h17.712V105.773h-17.712V368.393Z"/>
            <path class="cls-5" d="M826.619,377.709h-22.115c-1.216,0-2.201-.985-2.201-2.201V87.191c0-1.217,.986-2.201,2.201-2.201h22.115c1.216,0,2.201,.985,2.201,2.201V375.508c0,1.217-.986,2.201-2.201,2.201Zm-19.914-4.403h17.712V89.393h-17.712V373.307Z"/>
            <path class="cls-5" d="M868.393,382.624h-22.115c-1.216,0-2.201-.985-2.201-2.201V86.372c0-1.217,.986-2.201,2.201-2.201h22.115c1.216,0,2.201,.985,2.201,2.201V380.422c0,1.217-.986,2.201-2.201,2.201Zm-19.914-4.403h17.712V88.574h-17.712V378.221Z"/>
            <path class="cls-5" d="M911.806,387.514h-22.115c-1.216,0-2.201-.985-2.201-2.201V83.915c0-1.217,.986-2.201,2.201-2.201h22.115c1.216,0,2.201,.984,2.201,2.201V385.313c0,1.217-.986,2.201-2.201,2.201Zm-19.914-4.403h17.712V86.117h-17.712V383.111Z"/>
            <path class="cls-5" d="M955.217,394.909h-22.115c-1.216,0-2.201-.984-2.201-2.201V91.31c0-1.217,.986-2.201,2.201-2.201h22.115c1.216,0,2.201,.985,2.201,2.201V392.708c0,1.217-.986,2.201-2.201,2.201Zm-19.914-4.403h17.712V93.512h-17.712V390.506Z"/>
            <path class="cls-5" d="M996.99,389.995h-22.115c-1.216,0-2.201-.985-2.201-2.201V99.477c0-1.217,.986-2.201,2.201-2.201h22.115c1.216,0,2.201,.984,2.201,2.201V387.794c0,1.217-.986,2.201-2.201,2.201Zm-19.914-4.403h17.712V101.678h-17.712V385.592Z"/>
            <path class="cls-5" d="M733.085,120.127c-1.215,0-2.2-.985-2.201-2.199l-.029-22.376c-.001-.582,.23-1.144,.643-1.556s.972-.647,1.555-.647l267.021-.338h.003c1.215,0,2.2,.985,2.201,2.199l.029,22.374c.001,.583-.23,1.144-.643,1.556-.413,.413-.972,.647-1.555,.647l-267.021,.34h-.003Zm2.176-22.378l.023,17.974,262.618-.335-.023-17.971-262.618,.333Z"/>
            <path class="cls-5" d="M726.587,164.058c-.582,0-1.141-.232-1.554-.643-.414-.413-.646-.972-.647-1.556l-.028-22.376c-.001-1.215,.982-2.201,2.198-2.203l267.021-.34h.003c.583,0,1.142,.232,1.554,.643,.414,.413,.646,.972,.647,1.556l.028,22.376c.001,1.215-.982,2.201-2.198,2.203l-267.021,.34h-.003Zm2.177-22.378l.021,17.974,262.618-.335-.022-17.974-262.618,.335Z"/>
            <path class="cls-5" d="M721.727,206.327c-.583,0-1.141-.232-1.554-.643-.414-.413-.646-.972-.647-1.556l-.028-22.374c-.001-1.215,.983-2.201,2.198-2.204l288.317-.368h.003c.583,0,1.141,.232,1.554,.643,.414,.413,.646,.972,.647,1.556l.028,22.376c.001,1.215-.982,2.201-2.198,2.203l-288.317,.365h-.003Zm2.176-22.376l.021,17.972,283.914-.361-.021-17.974-283.914,.363Z"/>
            <path class="cls-5" d="M716.866,248.599c-1.215,0-2.2-.985-2.201-2.199l-.029-22.374c-.001-.583,.23-1.144,.643-1.556,.413-.413,.972-.647,1.555-.647l294.051-.374h.003c.583,0,1.142,.23,1.554,.643,.414,.413,.646,.972,.647,1.556l.028,22.376c.001,1.215-.982,2.201-2.198,2.203l-294.05,.372h-.003Zm2.175-22.376l.023,17.971,289.647-.368-.021-17.974-289.648,.37Z"/>
            <path class="cls-5" d="M712.032,292.53c-.583,0-1.141-.232-1.554-.643-.414-.413-.646-.972-.647-1.556l-.028-22.376c-.001-1.215,.982-2.201,2.198-2.203l301.397-.381h.003c.583,0,1.141,.232,1.554,.643,.414,.413,.646,.972,.647,1.556l.028,22.374c.001,1.215-.982,2.201-2.198,2.203l-301.397,.383h-.003Zm2.176-22.378l.022,17.974,296.995-.378-.021-17.971-296.995,.376Z"/>
            <path class="cls-5" d="M704.691,336.461c-1.214,0-2.2-.985-2.201-2.199l-.029-22.374c-.001-.583,.23-1.144,.643-1.556s.972-.647,1.555-.647l301.398-.383h.003c1.215,0,2.2,.984,2.201,2.199l.029,22.374c.001,.583-.23,1.144-.643,1.556s-.972,.647-1.555,.647l-301.397,.383h-.003Zm2.176-22.376l.023,17.971,296.995-.378-.023-17.971-296.995,.378Z"/>
            <path class="cls-5" d="M709.659,378.72c-1.215,0-2.2-.984-2.201-2.199l-.029-22.374c-.001-.583,.23-1.144,.643-1.556,.413-.413,.972-.647,1.555-.647l288.317-.368h.003c1.215,0,2.2,.984,2.201,2.199l.029,22.376c.001,.583-.23,1.144-.643,1.556-.413,.413-.972,.647-1.555,.647l-288.317,.365h-.003Zm2.175-22.376l.023,17.971,283.914-.361-.023-17.974-283.914,.363Z"/>
          </g>
        </g>
      </g>
      <path class="cls-11" d="M865.114,379.328c-78.897,0-143.083-64.188-143.083-143.083s64.187-143.083,143.083-143.083,143.084,64.188,143.084,143.083-64.187,143.083-143.084,143.083Zm0-281.764c-76.469,0-138.681,62.212-138.681,138.681s62.212,138.681,138.681,138.681,138.681-62.212,138.681-138.681-62.212-138.681-138.681-138.681Z"/>
      <rect class="cls-5" x="847.641" y="162" width="19.658" height="19.658"/>
      <rect class="cls-5" x="786.482" y="141.25" width="19.658" height="19.658"/>
      <rect class="cls-5" x="975.963" y="182.75" width="19.658" height="19.658"/>
      <rect class="cls-5" x="934.463" y="312.711" width="19.658" height="19.658"/>
      <rect class="cls-5" x="889.687" y="291.142" width="19.658" height="19.658"/>
      <rect class="cls-5" x="742.252" y="203.5" width="19.658" height="19.658"/>
      <rect class="cls-5" x="912.075" y="140.704" width="19.658" height="19.658"/>
      <rect class="cls-5" x="868.391" y="333.735" width="19.658" height="19.658"/>
      <rect class="cls-3" x="912.075" y="225.343" width="19.658" height="19.658"/>
      <rect class="cls-3" x="764.094" y="291.961" width="19.658" height="19.658"/>
      <rect class="cls-3" x="805.594" y="269.027" width="19.658" height="19.658"/>
      <rect class="cls-3" x="847.506" y="223.568" width="19.658" height="19.658"/>
    </g>
    <path class="cls-6" d="M12.588,1068.356c72.335,432.236,448.173,761.644,900.955,761.644s828.62-329.408,900.955-761.644H12.588Z"/>
    <g>
      <g>
        <g>
          <g>
            <polygon class="cls-16" points="1609.371 1032.14 1678.207 1036.298 1671.875 946.752 1602.202 953.069 1609.371 1032.14"/>
            <path class="cls-14" d="M1516.623,1079.08h170.289l-10.341-67.346h-69.017l-49.908,15.224c-24.46,6.625-41.249,27.957-41.023,52.122h0Z"/>
          </g>
          <g>
            <polygon class="cls-16" points="1464.854 1039.315 1533.748 1036.277 1518.12 947.879 1449.484 961.422 1464.854 1039.315"/>
            <path class="cls-14" d="M1366.933,1079.08h174.533l-9.958-67.346h-73.644l-49.908,15.224c-24.459,6.625-41.249,27.957-41.023,52.122h0Z"/>
          </g>
          <g>
            <path class="cls-4" d="M1627.327,437.585s22.903,65.17,28.407,87.134c31.342,125.076,46.033,450.764,46.033,450.764h-125.018s-30.12-238.038-44.294-342.414c-8.124,19.407-17.275,46.518-24.443,67.386-3.307,9.629-4.041,19.945-2.132,29.946l39.504,245.082h-122.103s-64.621-266.757-47.234-319.657c15.379-46.791,88.942-178.119,88.942-178.119l4.652-40.121h157.686Z"/>
            <polygon class="cls-10" points="1423.28 975.482 1412.392 930.86 1538.898 931.746 1545.384 975.482 1423.28 975.482"/>
            <polygon class="cls-10" points="1575.384 975.482 1570.284 930.86 1700.242 931.746 1703.276 975.482 1575.384 975.482"/>
            <path class="cls-14" d="M1532.452,635.27c-1.065,0-2.001-.776-2.171-1.862l-9.898-63.276c-.188-1.199,.633-2.326,1.834-2.515,1.209-.174,2.328,.634,2.515,1.836l9.898,63.276c.188,1.199-.633,2.326-1.834,2.515-.116,.017-.23,.026-.344,.026Z"/>
          </g>
        </g>
        <g>
          <g>
            <path class="cls-16" d="M1436.109,312.3c-36.78-9.54-188.796-42.293-177.869-92.711,8.081-37.289,52.056-31.02,172.544,1.253-4.561,26.963,9.887,64.494,5.325,91.457Z"/>
            <g>
              <path class="cls-16" d="M1243.675,57.464c3.544-1.417,8.058,.969,9.003,1.689,.267-3.499,1.836-6.955,6.066-8.404,3.756-1.286,8.174,1.921,8.546,2.223,.101-.466-1.015-5.236,4.122-8.027,3.471-1.886,7.583-.348,8.744,.447,.233-.532,1.572-4.494,5.611-5.655,11.038-3.172,21.004,21.788,29.902,56.211,18.696,72.33,22.269,115.806,22.46,116.522,3.445,12.791-58.053,8.551-78.629,19.853-.312-1.661-9.517-20.716-11.666-125.627-.224-10.949-6.848-30.679-8.627-37.981-.969-3.98-.139-9.41,4.469-11.251Z"/>
              <path class="cls-16" d="M1304.905,72.913c6.018-32.381,13.738-34.237,17.211-32.117,11.794,7.198-1.14,85.871-1.14,85.871,0,0-9.186-29.789-16.071-53.754Z"/>
              <path class="cls-14" d="M1248.562,89.608c-.993,0-1.895-.677-2.138-1.685-.285-1.182,.443-2.371,1.625-2.657,4.752-1.144,7.842-5.815,7.034-10.637l-.762-4.551c-.186-1.109,.495-2.182,1.58-2.483,1.074-.312,2.221,.26,2.637,1.307l3.347,8.431c.925,2.33,3.384,3.657,5.837,3.173,1.384-.277,2.57-1.081,3.337-2.264,.769-1.184,1.02-2.592,.709-3.968l-2.663-11.778c-.258-1.141,.422-2.285,1.549-2.603,1.129-.325,2.304,.301,2.682,1.406l1.884,5.525c1.677,4.205,4.271,5.551,5.961,4.983,1.571-.531,2.754-2.917,1.638-6.9l-2.09-8.19c-.289-1.137,.364-2.302,1.485-2.648,1.133-.346,2.318,.252,2.717,1.354l3.299,9.102c.613,1.539,2.296,2.446,3.992,2.122,.951-.191,1.767-.744,2.295-1.559,.529-.815,.702-1.784,.487-2.73l-2.079-9.194c-.268-1.187,.476-2.365,1.662-2.633,1.184-.26,2.365,.477,2.633,1.662l2.079,9.194c.477,2.113,.091,4.278-1.088,6.097-1.18,1.819-3.001,3.055-5.127,3.48-1.994,.404-3.987,.013-5.632-.965-.636,3.16-2.626,5.224-4.862,5.98-1.865,.632-4.146,.43-6.295-.886,.072,1.952-.456,3.872-1.543,5.548-1.42,2.188-3.61,3.674-6.168,4.183-3.839,.767-7.665-.873-9.795-3.99-1.532,4.218-5.085,7.601-9.71,8.715-.173,.041-.346,.06-.517,.06Z"/>
            </g>
          </g>
          <path class="cls-9" d="M1698.829,303.366s-23.483-116.504-146.916-117.532c-117.532-.979-149.821,11.348-149.821,11.348l-12.537,111.067,46.554,4.051-5.647,150.714,229.188-.979-17.956-145.773,57.134-12.896Z"/>
          <path class="cls-14" d="M1558.527,336.698v-47.534c0-1.217,.986-2.201,2.201-2.201s2.201,.985,2.201,2.201v42.087l13.857-2.967c1.197-.258,2.36,.503,2.614,1.692,.254,1.189-.503,2.358-1.692,2.612l-19.182,4.11Z"/>
        </g>
        <g>
          <ellipse class="cls-16" cx="1481.454" cy="129.415" rx="13.907" ry="16.341" transform="translate(226.447 927.169) rotate(-37.435)"/>
          <ellipse class="cls-16" cx="1569.484" cy="123.463" rx="16.341" ry="13.907" transform="translate(682.004 1423.81) rotate(-60.185)"/>
          <rect class="cls-14" x="1482.465" y="59.923" width="83.478" height="68.792" transform="translate(-2.891 103.035) rotate(-3.868)"/>
          <path class="cls-16" d="M1499.088,131.255h58.419v68.5c0,14.337-11.639,25.976-25.976,25.976h-6.467c-14.337,0-25.976-11.639-25.976-25.976v-68.5h0Z" transform="translate(6.084 -46.048) rotate(1.73)"/>
          <path class="cls-16" d="M1566.471,124.201c1.73,25.988-14.796,48.249-36.914,49.721-22.117,1.473-41.449-18.401-43.18-44.388-1.73-25.988,14.908-41.106,37.025-42.578,22.117-1.473,41.338,11.257,43.068,37.245Z"/>
          <path class="cls-14" d="M1451.881,73.042c1.371-3.778,10.002-4.415,20.461-1.907-3.186-4.517-4.351-8.444-2.666-10.505,1.88-2.298,6.857-1.735,12.916,.994-4.447-3.18-6.818-6.448-5.927-8.903,1.556-4.286,12.447-4.536,24.763-.727-2.082-8.849-1.465-15.909,1.981-17.243,3.677-1.423,9.438,4.103,14.129,12.973,.828-6.533,2.96-11.017,5.933-11.387,1.416-.176,2.863,.62,4.243,2.142,2.206-4.346,4.801-6.905,7.245-6.61,3.574,.432,5.812,6.835,5.968,15.619,4.94-3.572,8.903-5.069,10.746-3.629,2.001,1.563,1.088,6.271-1.951,12.483,9.067-7.552,16.842-11.436,19.401-9.113,1.924,1.746,.487,6.642-3.316,12.961,5.395-2.184,9.557-2.589,11.106-.657,1.972,2.459-.785,8.067-6.506,14.395,5.597,.883,9.409,2.923,9.74,5.724,.296,2.506-2.261,5.104-6.546,7.222,9.47,.741,16.303,3.509,16.46,7.174,.204,4.747-10.848,9.185-24.686,9.913-13.838,.727-25.221-2.531-25.426-7.278-.026-.609,.139-1.212,.465-1.803-4.127,1.395-7.287,1.534-8.771,.151-4.757,2.811-8.438,3.817-10.047,2.357-1.192-1.081-1.076-3.385,.068-6.468-5.394,4.277-9.864,6.388-12.17,5.43-2.288,1.56-4.915,3.056-7.798,4.386-11.212,5.17-21.943,5.878-23.969,1.582-1.077-2.284,.54-5.521,3.957-8.829-9.271,2.176-16.668,1.632-17.98-1.791-.576-1.502,.117-3.367,1.757-5.362-9.126-4.269-14.897-9.667-13.58-13.293Z"/>
          <path class="cls-14" d="M1527.232,176.202c-10.467,0-20.501-4.431-28.488-12.64-.848-.871-.829-2.266,.043-3.113,.871-.849,2.264-.828,3.113,.043,7.699,7.911,17.479,11.907,27.512,11.234,10.042-.668,19.197-5.92,25.778-14.783,.724-.976,2.104-1.18,3.079-.456,.976,.724,1.18,2.102,.455,3.078-7.362,9.919-17.668,15.798-29.02,16.555-.825,.054-1.651,.082-2.472,.082Z"/>
          <path class="cls-14" d="M1566.663,139.031c-.119,0-.241-.009-.362-.03-1.2-.198-2.01-1.333-1.811-2.532,.657-3.958,.851-8.042,.579-12.135-.244-3.65-.856-7.253-1.82-10.705-.327-1.169,.358-2.384,1.529-2.711,1.176-.329,2.385,.357,2.713,1.529,1.044,3.743,1.707,7.642,1.97,11.595,.296,4.43,.084,8.855-.629,13.15-.178,1.077-1.111,1.84-2.169,1.84Z"/>
          <path class="cls-14" d="M1487.795,143.991c-.945,0-1.819-.613-2.107-1.565-1.236-4.097-2.01-8.382-2.3-12.733-.268-4.024-.117-8.055,.447-11.98,.173-1.204,1.278-2.049,2.493-1.866,1.203,.174,2.038,1.29,1.865,2.494-.52,3.62-.659,7.341-.413,11.06,.269,4.02,.983,7.973,2.124,11.752,.35,1.165-.307,2.393-1.471,2.743-.213,.065-.427,.095-.637,.095Z"/>
          <g>
            <g>
              <path class="cls-5" d="M1520.027,129.123s-3.403,1.897-8.015,2.572c-2.096,.307-5.31-4.122-5.31-4.122,0,0-4.814,3.018-6.248,2.279-4.877-2.514-7.925-6.444-7.925-6.444,0,0,2.913-1.606,6.97-2.389,2.356-.454,7.955,4.709,7.955,4.709,0,0,6.099-2.407,8.239-.772,2.751,2.102,4.334,4.168,4.334,4.168Z"/>
              <path class="cls-14" d="M1515.699,124.956c-2.141-1.641-4.985-3.298-8.319-3.991-2.788-.579-5.526-.401-7.88,.052-1.35,2.844-1.03,6.268,.937,8.829,1.432,.738,3.016,1.361,4.74,1.719,2.384,.495,4.734,.439,6.837,.128,.452-.311,.882-.668,1.279-1.075,1.544-1.583,2.337-3.613,2.406-5.662Z"/>
            </g>
            <g>
              <path class="cls-5" d="M1533.535,128.62s4.291,1.493,9.439,1.132c1.816-.127,4.767-4.38,4.767-4.38,0,0,5.088,.904,6.705-.552,3.386-3.049,5.236-6.452,5.236-6.452,0,0-2.611-.904-6.189-1.137-2.639-.171-7.224,4.372-7.224,4.372,0,0-6.534-.423-8.266,1.264-2.933,2.857-4.469,5.752-4.469,5.752Z"/>
              <path class="cls-14" d="M1544.632,118.454c-2.684,1.052-4.904,2.727-6.636,4.416,.242,2.318,1.418,4.53,3.452,6.01,.481,.35,.986,.641,1.508,.877,1.818-.127,3.743-.484,5.629-1.223,2.335-.915,4.314-2.303,5.932-3.76,.877-2.532,.494-5.336-.996-7.545-2.641-.173-5.819,.022-8.888,1.225Z"/>
            </g>
          </g>
          <path class="cls-14" d="M1529.441,143.821c-.648,0-1.29-.284-1.724-.832-.757-.952-.599-2.337,.354-3.093,.858-.682,1.086-1.152,1.086-1.305,.001-.122-.303-.531-.526-.83-.559-.752-1.326-1.784-1.677-3.354-.313-1.399-.219-2.874,.28-4.381,.382-1.154,1.627-1.778,2.782-1.397,1.154,.383,1.78,1.627,1.397,2.782-.245,.739-.3,1.425-.162,2.036,.146,.656,.485,1.111,.913,1.688,.592,.795,1.403,1.885,1.395,3.474-.005,1.694-.93,3.289-2.749,4.736-.404,.32-.888,.477-1.368,.477Z"/>
          <path class="cls-14" d="M1523.166,153.056c-1.805,0-4.41-.357-6.984-1.963-1.698-1.062-3.156-2.539-4.215-4.276-.632-1.038-.304-2.393,.734-3.025,1.037-.636,2.393-.308,3.026,.733,.703,1.152,1.667,2.132,2.787,2.831,2.149,1.344,4.353,1.365,5.48,1.26,1.218-.155,2.283,.772,2.399,1.982,.115,1.21-.774,2.285-1.984,2.399-.348,.034-.767,.058-1.243,.058Z"/>
          <path class="cls-7" d="M1473.446,111.676c-1.113,0-2.069-.841-2.187-1.974-.213-2.049-.321-4.136-.321-6.204,0-31.411,24.584-56.967,54.802-56.967s54.801,25.556,54.801,56.967c0,1.967-.098,3.956-.291,5.914-.119,1.208-1.2,2.094-2.407,1.974-1.21-.12-2.094-1.197-1.975-2.408,.18-1.812,.27-3.657,.27-5.48,0-28.984-22.608-52.564-50.398-52.564s-50.399,23.58-50.399,52.564c0,1.915,.1,3.85,.298,5.748,.126,1.21-.752,2.292-1.962,2.418-.077,.007-.155,.011-.23,.011Z"/>
          <path class="cls-7" d="M1479.106,99.271h5.174v57.344h-2.605c-8.808,0-15.959-7.151-15.959-15.959v-27.994c0-7.391,6-13.391,13.391-13.391Z" transform="translate(-4.311 67.673) rotate(-2.624)"/>
          <path class="cls-7" d="M1581.266,98.613h2.605v57.344h-5.174c-7.391,0-13.391-6-13.391-13.391v-27.994c0-8.808,7.151-15.959,15.959-15.959Z" transform="translate(3141.699 326.535) rotate(-177.376)"/>
        </g>
      </g>
      <g>
        <rect class="cls-4" x="1075.853" y="424.36" width="747.541" height="658.889"/>
        <g>
          <ellipse class="cls-14" cx="1206.962" cy="478.37" rx="112.396" ry="16.702"/>
          <path class="cls-14" d="M1094.373,466.577h224.912v11.926c0,.67-.544,1.213-1.213,1.213h-222.212c-.821,0-1.488-.667-1.488-1.488v-11.652h0Z"/>
          <ellipse class="cls-13" cx="1206.865" cy="466.969" rx="112.494" ry="16.479"/>
          <path class="cls-5" d="M1249.041,467.817c0,3.067-17.706,5.553-39.548,5.553s-39.548-2.486-39.548-5.553,17.707-5.553,39.548-5.553,39.548,2.486,39.548,5.553Z"/>
          <rect class="cls-4" x="1207.044" y="461.034" width="4.951" height="7.045"/>
        </g>
        <g>
          <ellipse class="cls-14" cx="1700.7" cy="478.821" rx="112.396" ry="16.702"/>
          <path class="cls-14" d="M1588.11,467.028h224.912v11.926c0,.67-.544,1.213-1.213,1.213h-222.212c-.821,0-1.488-.667-1.488-1.488v-11.652h0Z"/>
          <ellipse class="cls-13" cx="1700.602" cy="467.42" rx="112.494" ry="16.479"/>
          <path class="cls-5" d="M1742.778,468.268c0,3.067-17.707,5.553-39.549,5.553s-39.548-2.486-39.548-5.553,17.706-5.553,39.548-5.553,39.549,2.486,39.549,5.553Z"/>
          <rect class="cls-4" x="1697.566" y="460.826" width="4.951" height="7.045"/>
        </g>
        <path class="cls-5" d="M1074.616,534.718c-1.215,0-2.199-.982-2.201-2.197-.002-1.217,.982-2.203,2.198-2.206l748.778-1.243h.003c1.215,0,2.199,.982,2.201,2.197,.002,1.217-.982,2.203-2.198,2.206l-748.778,1.242h-.003Z"/>
        <g>
          <rect class="cls-14" x="1351.071" y="453.728" width="9.582" height="16.289"/>
          <rect class="cls-4" x="1371.71" y="453.728" width="9.582" height="16.289"/>
          <rect class="cls-14" x="1391.243" y="453.728" width="9.582" height="16.289"/>
          <rect class="cls-14" x="1411.881" y="453.728" width="9.582" height="16.289"/>
          <rect class="cls-4" x="1430.677" y="452.247" width="9.532" height="16.288"/>
          <rect class="cls-9" x="1451.207" y="452.247" width="9.532" height="16.288"/>
          <rect class="cls-14" x="1470.638" y="452.247" width="9.532" height="16.288"/>
          <rect class="cls-4" x="1491.168" y="452.247" width="9.532" height="16.288"/>
          <rect class="cls-4" x="1509.31" y="452.988" width="9.532" height="16.288"/>
          <rect class="cls-14" x="1529.84" y="452.988" width="9.532" height="16.288"/>
          <rect class="cls-9" x="1549.271" y="452.988" width="9.532" height="16.288"/>
          <rect class="cls-14" x="1340.018" y="468.166" width="230.343" height="11.846"/>
        </g>
      </g>
      <g>
        <path class="cls-16" d="M1589.625,328.788l-4.047,47.086,12.124,53.023,31.933-9.011c31.808-10.077,51.806-21.185,56.302-71.946l5.264-43.986-101.576,24.834Z"/>
        <path class="cls-16" d="M1642.596,415.124c-27.635,10.226-31.305,13.02-90.408,23.488-25.165,4.457-46.351,6.891-59.342,10.577-4.703,.282-32.492,13.88-35.871,5.678-2.522-6.122,19.348-15.732,24.514-19.148-5.161,.895-38.097,19.124-41.952,9.731-4.002-9.755,29.388-22.644,33.73-24.782-.409-.031-44.164,16.968-48.619,8.087-4.329-8.63,32.953-21.56,41.175-25.498-7.68,2.155-42.059,12.009-44.873,5.124-4.348-10.636,34.226-22.728,61.15-30.121-10.661-8.245-14.882-14.549-12.427-17.276,1.245-1.383,15.893-.078,35.314,11.16,10.047-2.749,66.57-17.486,99.86-27.308,23.021,9.711,45.55,19.045,68.571,28.756-1.93,25.349-20.101,37.566-30.82,41.532Z"/>
      </g>
      <g>
        <path class="cls-14" d="M1800.446,1309.861h-361.539c-1.216,0-2.201-.985-2.201-2.201V755.999c0-1.217,.986-2.201,2.201-2.201h361.539c1.216,0,2.201,.985,2.201,2.201v551.66c0,1.217-.986,2.201-2.201,2.201Zm-359.338-4.403h357.137V758.2h-357.137v547.258Z"/>
        <rect class="cls-7" x="1479.424" y="790.284" width="283.622" height="486.209"/>
        <circle class="cls-14" cx="1618.882" cy="915.737" r="63.109" transform="translate(-173.364 1412.936) rotate(-45)"/>
        <circle class="cls-16" cx="1625.388" cy="915.974" r="32.728" transform="translate(-171.626 1417.606) rotate(-45)"/>
        <path class="cls-5" d="M1625.116,981.046c-36.013,0-65.311-29.298-65.311-65.31s29.298-65.31,65.311-65.31,65.31,29.298,65.31,65.31-29.298,65.31-65.31,65.31Zm0-126.217c-33.585,0-60.908,27.323-60.908,60.907s27.324,60.907,60.908,60.907,60.907-27.323,60.907-60.907-27.323-60.907-60.907-60.907Z"/>
        <circle class="cls-14" cx="1619.659" cy="1145.6" r="74.801" transform="translate(-335.675 1480.81) rotate(-45)"/>
        <circle class="cls-16" cx="1627.441" cy="1145.082" r="29.618"/>
        <path class="cls-5" d="M1627.451,1222.603c-42.46,0-77.003-34.543-77.003-77.002s34.543-77.004,77.003-77.004,77.002,34.543,77.002,77.004-34.543,77.002-77.002,77.002Zm0-149.603c-40.032,0-72.601,32.57-72.601,72.601s32.569,72.599,72.601,72.599,72.599-32.568,72.599-72.599-32.568-72.601-72.599-72.601Z"/>
      </g>
    </g>
    <g>
      <path class="cls-14" d="M280.491,208c-16.357-8.874-36.623-16.57-53.464-4.108-10.309,7.629-8.97,22.758-16.907,31.546-11.546,12.783-28.848,10.365-37.526,23.505-14.433,21.856,12.485,37.392,2.887,52.783-8.037,12.889-30.3,6.321-46.144,22.386-12.164,12.334-11.17,39.255,.456,55.089,20.887,28.445,74.269,18.632,103.804,13.203,43.934-8.076,86.731-15.943,105.17-51.902,25.666-50.052-11.121-116.921-58.276-142.503Z"/>
      <g>
        <g>
          <path class="cls-12" d="M290.83,379.447c-10.644-38.793,59.479-47.826,95.443-55.996,31.33-7.117,123.984-25.906,128.373,4.601,4.383,30.464-33.69,51.935-95,75.168-137.548,52.122-119.777,9.17-128.816-23.773Z"/>
          <path class="cls-12" d="M437.886,323.136s46.301-128.695,53.822-144.929c.788-1.7,2.164-4.707,4.946-7.985,10.306-12.144,23.383-8.539,40.047-16.364,18.907-8.878,24.527-24.582,29.372-22.35,3.37,1.552,2.918,8.073-2.773,19.954v.002c5.363-8.531,13.139-19.782,17.844-16.806,5.249,3.727-2.334,18.019-7.344,26.44,6.064-10.193,12.339-13.799,14.548-11.486,3.479,3.641,.617,12.641-7.921,25.802h0c8.433-7.44,11.588-7.988,13.043-5.467,2.656,4.603-4.566,15.291-12.4,23.761-8.818,9.535-18.965,13.871-25.428,16.452-.002,0-.003,.002-.003,.002-17.98,54.572-28.596,88.43-42.377,132.75-7.091,22.804-80.08,27.594-75.378-19.777Z"/>
          <path class="cls-14" d="M435.41,331.386c-.267,0-.537-.047-.8-.15-1.133-.443-1.692-1.72-1.25-2.853,.038-.095,3.77-9.65,5.905-15.564,.412-1.144,1.677-1.741,2.817-1.322,1.144,.413,1.736,1.675,1.323,2.818-2.155,5.967-5.906,15.574-5.944,15.671-.34,.868-1.172,1.399-2.052,1.399Z"/>
          <path class="cls-14" d="M548.748,165.578c-.795,0-1.563-.432-1.955-1.187-.561-1.077-.141-2.408,.937-2.967,2.115-1.101,4.134-2.399,6-3.859,2.71-2.124,5.133-4.609,7.203-7.388,.724-.974,2.105-1.178,3.081-.451,.975,.724,1.177,2.105,.451,3.078-2.303,3.096-5.001,5.864-8.02,8.227-2.08,1.627-4.328,3.074-6.682,4.297-.325,.17-.672,.249-1.014,.249Z"/>
          <path class="cls-14" d="M559.985,173.865c-.795,0-1.563-.432-1.955-1.187-.561-1.079-.141-2.408,.938-2.969,2.113-1.099,4.133-2.397,6-3.856,2.71-2.124,5.133-4.609,7.203-7.389,.727-.974,2.102-1.178,3.081-.451,.975,.724,1.177,2.104,.451,3.078-2.303,3.096-5.001,5.864-8.02,8.227-2.081,1.63-4.329,3.074-6.684,4.299-.324,.168-.671,.247-1.012,.247Z"/>
          <path class="cls-12" d="M514.373,175.711c14.721-25.04,14.457-38.989,11.353-40.037-5.221-1.764-18.163,12.237-32.301,39.2,8.521-2.122,12.427,2.959,20.948,.837Z"/>
        </g>
        <g>
          <path class="cls-12" d="M234.81,350.989c-28.91-16.786-110.911,66.244-129.111,97.29-15.854,27.045-52.263,103.498-25.18,116.572,27.046,13.056,55.242-18.555,97.921-66.213,55.955-62.483,81.409-133.11,56.369-147.649Z"/>
          <g>
            <path class="cls-12" d="M148.599,515.423c-28.505-44.479-83.958-121.997-86.419-145.793-.505-4.874-5.624-22.14,4.352-28.599,8.642-5.596,21.226,1.825,23.315-1.865,1.019-1.799-1.399-9.947-15.543-15.698,.035-.534,1.01-5.984-1.71-9.326-3.325-4.084-8.648-3.38-9.17-3.264,.699-3.031,.077-6.373-1.166-8.082-1.899-2.612-5.673-3.653-11.269-3.109,.311-1.787,.805-4.229-1.788-7.461-5.673-7.072-26.738,1.527-38.158,14.3-13.948,15.6-11.83,39.274-8.86,57.354,11.711,71.287,53.757,159.53,70.876,193.977,25.18-14.144,50.359-28.289,75.539-42.433Z"/>
            <path class="cls-14" d="M139.236,503.245c-.716,0-1.417-.348-1.84-.989-4.04-6.129-8.361-12.621-12.819-19.315-7.018-10.542-14.275-21.443-21.36-32.314-.663-1.019-.376-2.382,.643-3.046,1.019-.662,2.383-.374,3.046,.643,7.073,10.854,14.324,21.744,21.337,32.278,4.461,6.7,8.786,13.197,12.829,19.33,.669,1.017,.389,2.382-.627,3.05-.373,.245-.793,.363-1.209,.363Z"/>
            <path class="cls-14" d="M54.798,331.495c-.644,0-1.282-.282-1.717-.823-.762-.946-.612-2.332,.336-3.093,3.144-2.526,6.696-4.327,10.558-5.351,3.062-.813,6.225-1.109,9.403-.868,1.212,.09,2.122,1.146,2.031,2.358-.089,1.212-1.139,2.109-2.358,2.032-2.684-.2-5.358,.049-7.947,.735-3.264,.864-6.269,2.388-8.929,4.525-.406,.327-.894,.486-1.378,.486Z"/>
            <path class="cls-14" d="M44.779,318.614c-.644,0-1.281-.282-1.716-.821-.762-.948-.612-2.332,.335-3.096,3.093-2.489,6.745-4.338,10.559-5.351,3.059-.81,6.222-1.105,9.402-.868,1.212,.09,2.123,1.146,2.032,2.358-.089,1.212-1.161,2.111-2.357,2.031-2.695-.202-5.365,.05-7.947,.735-3.225,.854-6.312,2.418-8.929,4.525-.406,.327-.894,.486-1.379,.486Z"/>
            <path class="cls-14" d="M32.162,309.328c-.584,0-1.166-.23-1.599-.688-.835-.883-.797-2.276,.087-3.113,2.928-2.769,6.323-4.85,10.092-6.182,2.981-1.056,6.109-1.601,9.3-1.625h.016c1.209,0,2.193,.976,2.201,2.186,.009,1.215-.969,2.208-2.185,2.216-2.699,.019-5.345,.482-7.864,1.372-3.185,1.129-6.057,2.887-8.535,5.232-.426,.402-.969,.602-1.512,.602Z"/>
          </g>
        </g>
        <g>
          <path class="cls-4" d="M197.389,576.345l17.868-35.25-16.603-69.352c-2.87-40.235-4.688-20.331-3.742-50.038,1.376-43.2,15.134-71.542,35.771-74.844l64.846-7.704,53.415,55.989c9.686,4.775,16.352,14.743,16.352,26.272,0,10.317-5.341,19.381-13.404,24.596l-3.886,72.605c-.24,4.482,10.557,23.396,13.928,26.359l-164.546,31.368Z"/>
          <path class="cls-14" d="M247.415,478.212c-14.947,0-27.927-10.622-30.863-25.255-.24-1.191,.533-2.352,1.725-2.59,1.195-.247,2.353,.533,2.591,1.726,2.526,12.582,13.69,21.716,26.547,21.716,8.51,0,16.358-3.885,21.532-10.656,.739-.963,2.121-1.144,3.085-.413,.966,.74,1.151,2.12,.413,3.087-6.014,7.87-15.136,12.384-25.03,12.384Z"/>
        </g>
      </g>
      <g>
        <path class="cls-12" d="M223.04,255.282c-5.447,22.996,5.056,61.768,28.052,67.216,22.996,5.448,49.777-24.492,55.225-47.489,5.447-22.996-10.933-39.896-33.929-45.343-22.996-5.448-43.9,2.62-49.347,25.617Z"/>
        <path class="cls-12" d="M207.449,267.458c-2.246-9.581,1.561-18.668,8.504-20.296s14.392,4.82,16.639,14.401c2.246,9.581-1.561,18.668-8.504,20.296-6.943,1.628-14.392-4.82-16.639-14.401Z"/>
        <path class="cls-14" d="M286.051,280.249c-7.269,0-12.327-3.706-14.239-5.376-.915-.802-1.007-2.193-.206-3.106,.802-.916,2.191-1.008,3.106-.208,1.264,1.107,5.899,4.669,12.464,4.252,7.04-.464,11.232-5.099,12.35-6.509,.755-.952,2.141-1.114,3.092-.359,.952,.757,1.114,2.141,.358,3.093-1.402,1.769-6.663,7.586-15.511,8.169-.48,.03-.952,.045-1.414,.045Z"/>
        <path class="cls-14" d="M248.944,274.819c-2.314,0-4.901-.374-7.615-1.414-8.27-3.175-11.579-10.286-12.396-12.391-.441-1.133,.122-2.41,1.255-2.85,1.127-.441,2.408,.122,2.848,1.255,.651,1.679,3.289,7.35,9.87,9.876,6.146,2.358,11.628,.314,13.162-.368,1.104-.503,2.411,.002,2.906,1.113,.494,1.111-.004,2.412-1.116,2.906-1.576,.703-4.817,1.872-8.915,1.872Z"/>
        <rect class="cls-12" x="231.662" y="287.694" width="52.045" height="71.231" transform="translate(515.37 646.619) rotate(180)"/>
        <path class="cls-12" d="M223.62,390.52c1.468,8.438,22.315,40.114,65.121,31.185,29.901-6.237,27.911-28.961,21.463-43.292-3.302-7.338-14.945-35.828-58.639-34.124-28.311,1.105-30.637,30.749-27.945,46.231Z"/>
        <path class="cls-14" d="M256.175,327.033c-1.292,0-2.532-.131-3.711-.41-7.433-1.759-20.264-13.853-25.059-19.842-.76-.95-.606-2.335,.343-3.093,.948-.763,2.332-.61,3.094,.342,5.031,6.286,17.018,16.98,22.636,18.311,6.725,1.584,18.771-3.491,33.045-13.943,.981-.722,2.358-.507,3.076,.475,.719,.98,.506,2.358-.475,3.076-9.747,7.137-22.866,15.084-32.949,15.084Z"/>
        <path class="cls-14" d="M266.281,293.491c-.862,0-1.68-.51-2.033-1.354-.469-1.122,.062-2.41,1.185-2.878,2.136-.89,2.287-1.965,2.288-1.976-.017-.402-.162-.602-.898-1.44-.64-.727-1.514-1.722-2.272-3.263-.484-.987-.828-2.053-1.022-3.169-.21-1.197,.591-2.337,1.789-2.547,1.212-.196,2.338,.591,2.547,1.791,.124,.705,.338,1.374,.64,1.986,.498,1.015,1.07,1.666,1.624,2.296,.899,1.021,1.915,2.178,1.992,4.218,.069,1.855-1.197,4.585-4.994,6.168-.276,.116-.563,.17-.846,.17Z"/>
        <path class="cls-14" d="M258.468,302.907c-1.765,0-5.106-.417-7.775-3.192-3.11-3.231-2.985-7.201-2.873-8.341,.119-1.21,1.193-2.081,2.405-1.976,1.21,.118,2.095,1.195,1.976,2.405-.046,.475-.185,2.937,1.665,4.858,2.035,2.115,4.85,1.851,5.167,1.814,1.192-.148,2.301,.722,2.442,1.93,.142,1.208-.723,2.3-1.93,2.442-.194,.024-.571,.058-1.076,.058Z"/>
        <path class="cls-14" d="M249.243,229.061c9.009-12.012,18.369-14.252,28.744-13.443,16.803,1.311,26.845,21.727,18.448,36.753-8.152,14.587-22.881,20.021-21.737,31.175,1.674,16.322,23.834,18.721,24.311,40.042,.449,20.047-18.894,29.253-18.889,48.954,.005,18.224,16.029,34.276,59.217,29.985,50.242-4.991,69.441-23.508,65.212-41.758-5.435-23.453-37.898-23.31-43.475-39.184-5.156-14.677,17.386-38.186,9.153-56.487-5.437-12.086-25.508-15.288-39.47-27.028-12.584-10.582-12.656-29.889-29.173-38.898-14.317-7.809-39.255-6.578-52.34,29.888Z"/>
        <path class="cls-11" d="M218.307,246.542c-.106,0-.214-.006-.321-.024-1.203-.174-2.036-1.292-1.861-2.496,3.07-21.024,16.537-34.672,36.947-37.448,23.097-3.141,47.707,9.192,56.032,28.075,.49,1.111-.014,2.412-1.126,2.902-1.106,.49-2.411-.013-2.902-1.126-7.575-17.18-30.152-28.393-51.41-25.487-18.323,2.489-30.418,14.781-33.183,33.72-.16,1.094-1.101,1.883-2.176,1.883Z"/>
        <path class="cls-4" d="M216.023,241.077h5.995v53.451h-8.295c-7.834,0-14.194-6.36-14.194-14.194v-22.764c0-9.103,7.391-16.494,16.494-16.494Z" transform="translate(11.407 -8.597) rotate(2.402)"/>
        <rect class="cls-5" x="219.736" y="240.425" width="8.148" height="57.362" transform="translate(14.51 -11.434) rotate(3.024)"/>
      </g>
      <g>
        <path class="cls-12" d="M199.028,950.994l210.785-197.445-164.546-111.165,111.899-106.946s192.431,187.84,179.106,240.779c-15.258,60.619-194.664,150.977-290.818,217.295l-46.425-42.519Z"/>
        <path class="cls-7" d="M379.181,556.007c65.183,67.199,121.147,130.813,158.395,195.748,6.942,12.102,5.584,27.246-3.2,38.085-48.845,60.275-132.176,110.294-212.979,160.197l-50.63-79.797,116.926-106.061c4.196-3.807,4.74-10.208,1.246-14.668l-93.408-119.211,83.649-74.293Z"/>
        <path class="cls-12" d="M243.065,733.186c-50.63-88.602-75.394-130.426-27.809-192.091l107.055,108.993-79.246,83.099Z"/>
        <path class="cls-12" d="M373.678,1134.945c-1.169-4.078-.901-14.559-.233-18.752l39.023-245.292c.214-62.749-39.526-176.237-78.049-256.584l-121.127,53.698,95.258,216.494-11.335,231.632c-.142,2.908-.815,5.763-1.974,8.432,26.617-1.404,52.346,6.961,78.437,10.37Z"/>
        <path class="cls-7" d="M333.318,608.814c-37.789-1.467-107.187,3.691-137.947,34.854-17.428-38.515-11.408-73.258,20.545-103.828,44.026,18.344,131.527-4.769,132.628-19.811l41.091,47.511c-19.975,3.544-34.658,20.037-56.316,41.274Z"/>
        <path class="cls-7" d="M193.998,640.206l108.033,233.137c2.061,4.448,2.654,9.462,1.543,14.237-5.599,24.067-7.291,65.771-6.39,107.583l102.36,11.006,16.51-151.338c-11.156-74.911-45.129-161.357-87.501-252.047-69.553,3.405-122.849,12.78-134.553,37.422Z"/>
        <path class="cls-10" d="M412.753,893.904c-.052,0-.104-.002-.157-.006-1.212-.084-2.126-1.137-2.041-2.35l2.176-30.887c.375-5.325,.027-10.579-1.034-15.613-16.912-80.265-46.559-163.826-90.635-255.459-.527-1.096-.065-2.412,1.03-2.939,1.093-.525,2.411-.064,2.939,1.03,44.231,91.955,73.989,175.845,90.975,256.46,1.146,5.434,1.522,11.097,1.118,16.83l-2.176,30.887c-.082,1.161-1.048,2.047-2.194,2.047Z"/>
        <path class="cls-10" d="M206.764,945.444c-9.452,.913-19.113,3.182-32.221,8.785-20.294,8.675-32.905,20.991-40.543,29.862,35.509,45.488,71.018,90.976,106.527,136.464,2.882-3.77,7.675-10.025,10.35-15.152,25.535-48.944,7.496-96.625-.274-111.634-8.74-9.66-35.099-38.666-43.839-48.325Z"/>
        <path class="cls-10" d="M299.286,1118.569c-7.121,6.734-13.419,14.655-20.111,27.36-10.362,19.672-11.72,37.271-11.507,49.026,62.641,12.669,125.283,25.338,187.924,38.007-.39-4.764-1.03-12.675-2.587-18.359-14.863-54.269-64.715-79.778-82.131-86.474-14.291-1.926-57.298-7.635-71.589-9.561Z"/>
        <path class="cls-17" d="M299.386,917.017c-.047,0-.095-.002-.142-.004-1.213-.077-2.135-1.124-2.057-2.337l2.388-37.441c.144-2.257-.303-4.527-1.294-6.559l-9.131-18.732c-.533-1.094-.078-2.412,1.015-2.943,1.094-.538,2.411-.082,2.943,1.013l9.131,18.732c1.325,2.719,1.923,5.75,1.731,8.769l-2.388,37.441c-.074,1.165-1.044,2.062-2.195,2.062Z"/>
      </g>
    </g>
    <g>
      <g>
        <path class="cls-7" d="M949.15,1736.318c4.814,8.732,10.243,20.318,13.689,35.335,5.335,23.251,3.495,42.343,1.33,54.853h-163.49c1.132-5.004,3.003-13.316,5.265-19.051,21.596-54.756,90.709-71.07,106.397-74.46,12.27,1.03,24.539,2.293,36.809,3.323Z"/>
        <path class="cls-12" d="M968.728,1681.049l-12.444,57.703c-2.747,11.635-13.983,19.515-25.766,17.496-.674-.115-1.36-.256-2.057-.423-10.909-2.615-18.249-12.867-17.426-24.055l5.384-56.462,52.309,5.74Z"/>
        <path class="cls-7" d="M1275.482,1718.717s27.263,50.241,22.391,107.79h-109.694c2.859-10.008,7.226-25.495,14.039-40.462,11.677-25.649,26.244-44.777,38.06-57.849l35.204-9.479Z"/>
        <path class="cls-12" d="M1280.38,1731.878c.779-19.217,.682-54.67-8.065-83.202l-63.775,18.828s20.927,31.818,27.542,67.355c2,10.745,11.549,18.519,22.448,17.71,1.429-.106,2.919-.291,4.465-.569,9.781-1.764,16.983-10.192,17.385-20.122Z"/>
        <path class="cls-14" d="M1169.833,1156.646s119.821,186.956,121.314,547.258h-87.502s-104.929-311.089-174.032-388.852l25.562-174.084,114.658,15.679Z"/>
        <path class="cls-14" d="M1114.817,1353.9s-110.77,182.362-136.432,350.003h-81.637s-9.609-407.542,139.282-572.629l74.987,15.994,3.8,206.632Z"/>
        <path class="cls-2" d="M1116.062,1478.895c-.838,0-1.64-.481-2.008-1.296l-56.133-124.373c-.5-1.107-.006-2.412,1.102-2.911,1.104-.501,2.411-.009,2.912,1.101l56.133,124.372c.5,1.107,.007,2.412-1.102,2.911-.293,.133-.601,.196-.904,.196Z"/>
      </g>
      <g>
        <path class="cls-12" d="M1242.081,974.868c27.709,39.756,123.01,132.147,78.929,165.558-36.462,27.636-122.943-66.898-152.889-104.731,25.349-20.793,48.611-40.034,73.96-60.827Z"/>
        <g>
          <path class="cls-12" d="M1034.598,867.259l-151.888-84.122-7.671,38.448c-6.482,38.889-5.535,65.901,45.472,97.902l117.853,70.006-3.766-122.234Z"/>
          <path class="cls-12" d="M873.088,837.782c4.083-34.576,3.114-39.941,23.848-107.765,8.828-28.878,17.647-52.483,20.747-68.134,2.23-5.101,2.846-41.652,13.294-40.802,7.798,.634,6.163,28.813,6.983,36.085,1.83-5.912,.339-50.368,12.296-49.378,12.416,1.028,8.044,43.092,7.962,48.811,.253-.413,5.867-55.594,17.606-55.512,11.408,.08,4.989,46.262,4.716,57.031,1.858-9.24,9.955-50.715,18.713-49.978,13.529,1.137,5.533,48.23-1.15,80.536,14.404-6.791,23.306-7.846,24.858-3.798,.787,2.054-8.455,16.769-30.715,31.17-2.505,12.051-17.359,79.453-24.905,119.763-22.587,19.011-44.513,37.707-67.099,56.718-25.641-15.648-28.736-41.335-27.153-54.746Z"/>
          <path class="cls-14" d="M944.817,713.014c-.186,0-.375-.024-.564-.073-1.175-.312-1.876-1.516-1.565-2.691,6.473-24.479,29.638-22.567,29.873-22.535,1.21,.114,2.098,1.189,1.983,2.399-.115,1.208-1.193,2.092-2.395,1.984h0c-.805-.082-19.702-1.531-25.205,19.278-.261,.987-1.152,1.638-2.127,1.638Z"/>
        </g>
        <path class="cls-9" d="M1225.648,1191.533l-250.386-36.78,18.061-317.063s183.995,67.638,271.239,155.211l-52.112,91.768,13.198,106.864Z"/>
        <g>
          <path class="cls-12" d="M1295.521,1064.056c-38.207,2.707-128.498,4.629-137.305,5.167-16.462,1.007-104.669,8.703-104.939,21.551-.129,6.14,16.931,5.425,22.692,5.016-4.489,2.624-22.821,10.835-21.175,17.519,1.933,7.853,25.275,1.414,25.702,1.542-4.829,2.202-24.421,10.197-23.382,15.257,1.352,6.582,21.809,4.611,27.906,3.737-.52,.924-19.938,9.725-18.943,13.72,1.102,4.427,20.222,3.045,27.846,3.201,14.627-.883,71.655-1.263,99.366-.13,65.083,2.661,85.933-1.819,117.627-6.068,12.407-1.663,1.443-68.611-15.394-80.513Z"/>
          <path class="cls-14" d="M1201.292,1069.403c-1.179,0-2.155-.933-2.199-2.12-.044-1.217,.905-2.238,2.12-2.281,20.421-.75,82.135-3.235,94.298-3.962,1.192-.084,2.255,.851,2.328,2.066,.073,1.212-.852,2.255-2.066,2.328-12.815,.765-76.877,3.323-94.399,3.966-.027,.002-.055,.002-.082,.002Z"/>
          <path class="cls-14" d="M1075.73,1097.394c-.849,0-1.658-.494-2.02-1.322-.485-1.116,.026-2.412,1.14-2.898,3.257-1.417,6.64-2.62,10.057-3.575,6.139-1.713,12.503-2.668,18.917-2.838,1.259-.056,2.226,.929,2.258,2.143,.032,1.217-.928,2.227-2.142,2.259-6.053,.159-12.06,1.058-17.849,2.674-3.221,.901-6.413,2.036-9.486,3.373-.286,.125-.584,.183-.877,.183Z"/>
          <path class="cls-14" d="M1080.141,1116.651c-.938,0-1.808-.604-2.101-1.548-.361-1.161,.288-2.395,1.449-2.756,.71-.221,1.438-.436,2.181-.645,6.14-1.713,12.504-2.668,18.918-2.838,1.275-.011,2.226,.929,2.258,2.143,.032,1.215-.928,2.227-2.142,2.259-6.055,.159-12.06,1.058-17.849,2.674-.701,.196-1.388,.402-2.059,.611-.217,.067-.438,.099-.655,.099Z"/>
          <path class="cls-14" d="M1085.404,1135.845c-1.037,0-1.961-.735-2.16-1.793-.227-1.193,.559-2.345,1.753-2.571,4.085-.774,8.283-1.221,12.475-1.333,1.171-.084,2.226,.927,2.258,2.143,.032,1.215-.927,2.227-2.142,2.259-3.958,.103-7.917,.527-11.772,1.255-.139,.026-.276,.039-.412,.039Z"/>
        </g>
      </g>
      <g>
        <g>
          <path class="cls-14" d="M1080.826,760.48c16.224-26.17,48.553-30.038,80.26-27.797,48.829,3.45,35.434-64.063,62.826-74.866,27.393-10.803,49.918,41.508,99.667-26.971l81.208,127.28c-19.488,32.017-70.583,25.391-70.583,25.391,46.993,24.074,71.507,10.565,83.754-4.748l11.132,17.449s-11.947,43.162-60.937,25.898c-44.297-15.611-59.589-1.811-45.727,39.872,13.861,41.683-79.799,122.186-191.516,1.426l-47-57.166c-10.711-13.028-11.971-31.432-3.084-45.767Z"/>
          <path class="cls-14" d="M1198.136,839.771c-10.068,0-17.239-3.184-17.41-3.261-1.102-.51-1.583-1.812-1.077-2.917,.507-1.101,1.812-1.584,2.917-1.084,1.509,.69,37.171,16.325,59.545-30.452,24.751-51.743,46.629-49.563,89.851-40.244,16.979,3.659,30.348,2.726,38.664-2.694,6.53-4.254,7.725-9.729,7.772-9.962,.245-1.184,1.402-1.95,2.588-1.722,1.187,.236,1.962,1.378,1.733,2.567-.057,.299-1.499,7.388-9.532,12.702-9.452,6.251-23.637,7.399-42.152,3.412-43.11-9.287-61.536-11.108-84.952,37.841-14.157,29.595-33.879,35.814-47.948,35.814Z"/>
          <path class="cls-14" d="M1090.272,804.98c-.385,0-.775-.101-1.129-.314-13.908-8.328-21.052-26.802-16.987-43.927,3.602-15.166,15.282-28.756,31.245-36.356,13.247-6.305,29.276-8.766,47.64-7.328,2.51,.198,5.03,.46,7.555,.722,9.046,.942,18.399,1.915,27.041-.387,16.031-4.265,27.998-21.192,26.675-37.729-.098-1.212,.806-2.274,2.019-2.371,1.197-.088,2.272,.806,2.369,2.019,1.51,18.872-11.637,37.469-29.93,42.338-9.428,2.504-19.189,1.494-28.63,.51-2.487-.26-4.971-.518-7.443-.712-17.584-1.378-32.862,.948-45.405,6.916-14.771,7.03-25.557,19.515-28.852,33.398-3.634,15.304,2.659,31.762,14.964,39.133,1.044,.623,1.382,1.976,.758,3.018-.413,.69-1.143,1.071-1.891,1.071Z"/>
        </g>
        <path class="cls-12" d="M1132.85,832.571h7.791c10.613,0,19.229,8.616,19.229,19.229v74.734c0,10.614-8.617,19.23-19.23,19.23h-7.791c-10.613,0-19.23-8.617-19.23-19.23v-74.732c0-10.614,8.617-19.231,19.231-19.231Z" transform="translate(2205.279 1859.24) rotate(-175.798)"/>
        <g>
          <path class="cls-12" d="M1153.79,765.231c-2.223-.915-23.637-9.358-41.408,1.653-13.223,8.193-18.746,22.176-24.461,47.03-6.731,29.268-6.666,47.704-.124,55.863,10.336,12.892,55.477,4.718,77.753-15.873,16.08-14.864,21.916-38.509,16.115-59.783-5.785-21.215-26.456-28.306-27.875-28.89Z"/>
          <path class="cls-14" d="M1114.158,879.903c-1.108,0-2.062-.834-2.185-1.961-.132-1.21,.739-2.296,1.949-2.429,18.403-2.016,37.823-10.282,49.476-21.054,.894-.826,2.286-.767,3.111,.122,.825,.892,.771,2.285-.123,3.111-12.301,11.372-32.705,20.084-51.985,22.198-.082,.009-.162,.013-.243,.013Z"/>
          <path class="cls-14" d="M1102.791,775.411c15.162-27.099,61.571-26.369,82.865-5.729,22.761,22.062,19.398,58.929,7.514,78.125-7.065,11.411-22.75,26.563-31.79,20.603-10.938-7.212,2.606-26.959-10.145-53.634-9.849-20.604-39.833-22.772-48.444-39.366Z"/>
          <g>
            <path class="cls-12" d="M1142.198,821.283c-7.015,7.733-7.403,18.809-.867,24.738s17.522,4.467,24.537-3.266c7.015-7.733,7.403-18.809,.867-24.738-6.536-5.93-17.522-4.467-24.537,3.266Z"/>
            <path class="cls-14" d="M1158.626,841c-.654,0-1.3-.29-1.735-.845-.749-.957-.58-2.341,.377-3.089,.411-.323,.798-.681,1.148-1.071,2.745-3.025,3.011-7.268,.593-9.463-.556-.503-1.218-.864-1.966-1.075-1.17-.331-1.852-1.546-1.522-2.717,.33-1.169,1.55-1.849,2.715-1.522,1.409,.398,2.664,1.088,3.73,2.053,4.217,3.826,4.087,10.86-.288,15.682-.518,.572-1.089,1.103-1.697,1.578-.402,.316-.88,.469-1.355,.469Z"/>
          </g>
          <g>
            <path class="cls-5" d="M1139.787,817.583s-7.115-4.716-16.139-5.546c-1.92-.177,.287,15.521,2.19,14.819,8.366-3.087,13.949-9.272,13.949-9.272Z"/>
            <path class="cls-15" d="M1117.68,812.117c2.039-.257,4.036-.246,5.953-.07,3.362,4.348,4.039,9.966,2.212,14.803-1.904,.704-3.953,1.249-6.113,1.522-11.644,1.47-22.109-5.466-22.109-5.466,0,0,8.413-9.319,20.057-10.789Z"/>
          </g>
          <path class="cls-14" d="M1101.588,851.377c-2.131,0-4.276-.854-5.883-2.47-.857-.862-.852-2.257,.01-3.113,.862-.86,2.254-.853,3.114,.009,1.19,1.202,2.971,1.522,4.328,.783,1.659-.905,1.783-3.096,1.784-3.117,.058-1.208,1.025-2.139,2.287-2.107,1.207,.05,2.151,1.049,2.113,2.257-.055,1.741-.975,5.14-4.078,6.832-1.144,.623-2.408,.927-3.676,.927Z"/>
          <path class="cls-14" d="M1087.106,836.518c-.551,0-1.104-.206-1.531-.619-2.956-2.861-4.083-5.374-3.449-7.683,.448-1.619,1.578-2.436,2.574-3.156,.62-.449,1.262-.916,1.913-1.657,.967-1.105,1.652-2.483,2.037-4.095,.283-1.185,1.473-1.915,2.651-1.632,1.183,.282,1.913,1.468,1.632,2.651-.551,2.317-1.564,4.329-3.007,5.978-.979,1.116-1.941,1.812-2.643,2.319-.37,.269-.877,.636-.912,.763-.069,.249,.201,1.35,2.266,3.347,.874,.845,.896,2.24,.052,3.113-.432,.447-1.007,.671-1.582,.671Z"/>
        </g>
        <g>
          <path class="cls-9" d="M1162.973,814.473c-1.13,0-2.091-.864-2.19-2.01-2.322-26.561-13.737-44.851-30.535-48.923-12.475-3.029-25.23,3.027-33.284,15.787-.647,1.03-2.008,1.337-3.036,.688-1.028-.649-1.336-2.008-.687-3.035,9.094-14.416,23.676-21.202,38.044-17.72,18.724,4.54,31.39,24.285,33.883,52.82,.106,1.21-.79,2.279-2.001,2.384-.065,.007-.13,.009-.193,.009Z"/>
          <circle class="cls-9" cx="1167.336" cy="840.202" r="33.891" transform="translate(-119.512 197.836) rotate(-9.217)"/>
          <path class="cls-5" d="M1168.537,867.871c-14.153,0-25.667-11.514-25.667-25.667s11.515-25.667,25.667-25.667,25.666,11.514,25.666,25.667-11.514,25.667-25.666,25.667Zm0-46.932c-11.726,0-21.265,9.54-21.265,21.265s9.539,21.265,21.265,21.265,21.264-9.54,21.264-21.265-9.539-21.265-21.264-21.265Z"/>
        </g>
      </g>
    </g>
    <g>
      <g>
        <g>
          <polygon class="cls-8" points="582.716 1757.9 499.875 1754.248 518.667 1647.955 601.197 1664.239 582.716 1757.9"/>
          <path class="cls-16" d="M702.798,1804.874h-212.203l11.973-80.055h88.552l61.18,18.265c29.411,7.966,50.497,33.328,50.497,62.385v-.594Z"/>
        </g>
        <g>
          <polygon class="cls-8" points="408.944 1749.272 326.173 1754.272 333.787 1646.6 417.564 1654.195 408.944 1749.272"/>
          <path class="cls-16" d="M522.028,1804.874h-206.322l12.434-80.055h82.988l60.792,18.265c29.411,7.966,50.109,33.328,50.109,62.385v-.594Z"/>
        </g>
        <g>
          <path class="cls-9" d="M387.353,1032.728s-27.539,77.773-34.157,104.183c-37.687,150.396-55.352,541.424-55.352,541.424h150.326s36.217-284.82,53.261-410.325c9.768,23.335,20.772,56.637,29.39,81.73,3.977,11.579,4.859,22.928,2.564,34.954l-47.501,293.641h146.821s77.703-319.352,56.796-382.962c-18.492-56.263-106.947-214.29-106.947-214.29l-5.594-48.356h-189.608Z"/>
          <polygon class="cls-4" points="632.705 1678.335 645.798 1626.085 493.683 1626.447 485.884 1678.335 632.705 1678.335"/>
          <polygon class="cls-4" points="449.81 1678.335 455.943 1626.085 299.676 1626.447 296.029 1678.335 449.81 1678.335"/>
          <path class="cls-14" d="M501.434,1271.618c-.114,0-.228-.009-.343-.026-1.202-.189-2.023-1.314-1.835-2.515l11.901-76.086c.188-1.202,1.327-2.012,2.514-1.836,1.202,.189,2.023,1.314,1.835,2.515l-11.901,76.086c-.17,1.086-1.106,1.862-2.171,1.862Z"/>
        </g>
      </g>
      <g>
        <g>
          <path class="cls-8" d="M665.72,807.195l104.528-44.407,64.762,.211-2.112,39.451c-3.383,39.584-11.053,65.719-68.84,84.223l-131.283,51.071,32.945-130.549Z"/>
          <path class="cls-8" d="M830.758,818.75c4.648-34.775,6.934-39.77,3.629-111.162-1.407-30.397-4.123-55.644-3.24-71.698-.903-5.537,7.622-41.374-2.789-43.153-7.771-1.328-13.211,26.59-15.828,33.485-.31-6.229,12.247-49.257,.327-51.276-12.378-2.097-18.613,40.061-19.962,45.664-.144-.467,8.155-55.739-3.327-58.591-11.157-2.771-16.422,43.918-18.845,54.499,.494-9.485,2.946-51.997-5.788-53.465-13.492-2.268-17.446,45.703-18.988,78.912-12.367-10.226-20.794-13.48-23.319-9.915-1.281,1.809,4.067,18.482,22.202,38.1-.564,12.39-2.894,81.902-5.593,123.14,17.303,24.2,34.04,47.927,51.343,72.128,28.94-8.874,38.376-33.178,40.179-46.666Z"/>
          <path class="cls-14" d="M792.437,679.085c-1.208,0-2.192-.974-2.201-2.184-.176-21.706-19.004-25.003-19.806-25.134-1.199-.194-2.015-1.32-1.825-2.519,.192-1.197,1.317-2.001,2.512-1.829,.233,.037,23.315,3.947,23.522,29.449,.01,1.215-.967,2.208-2.183,2.218h-.018Z"/>
        </g>
        <g>
          <path class="cls-14" d="M719.728,774.163l38.948,128.474-87.919,31.33s-4.016,20.082-37.486,116.474l-326.062,31.306,149.54-285.874s116.784,25.153,262.98-21.708Z"/>
          <path class="cls-14" d="M382.363,949.185l-17.609-141.564c29.595-10.878,60.104-15.807,91.994-11.75l-74.385,153.314Z"/>
        </g>
        <g>
          <path class="cls-8" d="M266.013,852.806c66.771-28.78,101.11-36.138,101.11-36.138l14.152,117.271-71.976-.009s8.158,110.318,7.641,130.412c-.516,20.094-56.094,41.506-88.037-16.825-16.633-30.374-20.341-74.081-20.074-109,.287-37.38,22.856-70.913,57.184-85.71Z"/>
          <g>
            <path class="cls-8" d="M236.323,1051.109l-7.215,66.321s-6.088,18.263-19.634,33.543c-2.049,2.311-3.35,5.195-3.716,8.262-.424,3.547,.222,7.824,4.579,10.597,0,0,3.251,1.729,10.275,.358,0,0-2.227,7.366,4.454,12.334,6.681,4.968,16.617-2.398,16.617-2.398,0,0,.856,6.681,7.537,8.908,6.681,2.227,13.704-2.57,13.704-2.57,0,0,3.269,10.897,20.787,3.16,2.498-1.103,4.701-2.694,6.543-4.71,5.992-6.555,17.872-24.458,27.773-69.563l-1.192-60.67-80.514-3.573Z"/>
            <path class="cls-14" d="M294.967,1163.394c-.367,0-.738-.092-1.081-.286-4.759-2.689-10.585-7.926-11.311-17.597-.396-5.269-.574-9.497-.718-12.894-.291-6.868-.451-10.652-1.914-14.551-.55-1.468-2.072-3.521-3.836-5.901-4.985-6.724-12.521-16.886-11.311-31.407,.101-1.212,1.151-2.139,2.377-2.01,1.211,.099,2.112,1.163,2.011,2.375-1.072,12.868,5.594,21.856,10.459,28.421,2.042,2.754,3.654,4.927,4.423,6.974,1.709,4.559,1.89,8.833,2.19,15.912,.143,3.366,.32,7.554,.709,12.75,.465,6.21,3.523,10.953,9.088,14.098,1.058,.598,1.431,1.939,.833,2.999-.405,.716-1.151,1.118-1.919,1.118Z"/>
            <path class="cls-14" d="M226.155,1167.097c-.547,0-1.095-.202-1.522-.61-.878-.841-.909-2.234-.069-3.113,20.076-20.99,25.236-48.226,25.286-48.499,.219-1.195,1.361-1.997,2.561-1.769,1.196,.217,1.989,1.365,1.77,2.56-.213,1.165-5.457,28.817-26.436,50.752-.432,.451-1.011,.679-1.591,.679Z"/>
            <path class="cls-14" d="M249.806,1173.615c-.488,0-.979-.161-1.388-.492-.944-.767-1.087-2.154-.319-3.098,6.437-7.917,14.529-20.517,16.524-35.582,.159-1.206,1.274-2.047,2.471-1.894,1.205,.159,2.053,1.266,1.893,2.47-2.129,16.086-10.676,29.425-17.472,37.783-.435,.535-1.07,.813-1.709,.813Z"/>
            <path class="cls-14" d="M271.577,1177.496c-.42,0-.845-.12-1.221-.372-1.01-.675-1.282-2.042-.607-3.053,4.454-6.668,10.302-17.144,12.868-29.184,.253-1.191,1.421-1.945,2.612-1.696,1.189,.254,1.948,1.423,1.694,2.612-2.711,12.726-8.845,23.726-13.513,30.715-.425,.634-1.122,.978-1.833,.978Z"/>
          </g>
        </g>
      </g>
      <g>
        <g>
          <path class="cls-8" d="M555.671,656.105c2.296-.42,24.341-4.113,38.996,9.936,10.905,10.454,13.325,24.851,13.732,49.612,.48,29.159-3.307,46.657-11.169,53.085-12.422,10.157-53.646-6.727-70.645-30.786-12.27-17.366-13.036-41.005-3.228-60.039,9.781-18.982,30.848-21.541,32.313-21.809Z"/>
          <rect class="cls-8" x="522.56" y="710.228" width="57.249" height="126.301" rx="22.995" ry="22.995" transform="translate(34.337 -23.357) rotate(2.506)"/>
          <path class="cls-14" d="M580.052,773.375c-.118,0-.239-.009-.36-.03-16.893-2.782-41.878-15.686-54.905-34.122-.701-.993-.465-2.367,.528-3.068,.993-.703,2.367-.464,3.069,.527,11.889,16.826,35.788,29.646,52.025,32.321,1.199,.196,2.012,1.328,1.814,2.528-.177,1.079-1.111,1.844-2.17,1.844Z"/>
          <path class="cls-14" d="M544.273,698.681c-8.882,5.662-12.791,13.669-12.756,25.413,.029,9.652,11.582,21.95,10.119,37.303-1.727,18.121-20.437,29.109-35.616,27.933-12.093-.938-19.525-11.915-20.813-13.883,.601,.281,6.106,2.742,11.495-.241,3.668-2.03,5.112-5.38,5.515-6.425-1.427,.399-5.606,1.357-9.94-.655-5.143-2.389-8.427-7.999-8.439-14.332,7.436,4.916,12.379,2.122,14.858,1.245,1.606-.568,10.146-6.519,12.881-23.775,2.667-16.832,3.712-20.84,8.283-25.708,4.194-4.466,11.48-7.659,24.411-6.876Z"/>
          <g>
            <path class="cls-8" d="M555.357,711.686c5.101,8.762,3.232,19.361-4.174,23.672-7.406,4.311-17.545,.703-22.646-8.059-5.101-8.762-3.232-19.361,4.174-23.672,7.406-4.311,17.545-.703,22.646,8.059Z"/>
            <path class="cls-14" d="M536.217,727.204c-.628,0-1.251-.266-1.686-.785-.483-.574-.92-1.2-1.302-1.855-1.514-2.599-2.078-5.565-1.587-8.349,.515-2.921,2.115-5.297,4.505-6.688,1.216-.707,2.558-1.113,3.99-1.204,1.179-.075,2.258,.845,2.336,2.057,.076,1.215-.845,2.259-2.058,2.337-.742,.047-1.433,.254-2.053,.615-1.25,.729-2.097,2.023-2.383,3.646-.311,1.761,.066,3.669,1.058,5.374,.255,.439,.546,.853,.866,1.234,.782,.931,.661,2.319-.27,3.102-.412,.346-.915,.516-1.414,.516Z"/>
          </g>
          <g>
            <path class="cls-5" d="M558.394,708.658s7.711-3.042,16.45-2.007c1.859,.22-3.409,14.684-5.074,13.633-7.322-4.622-11.376-11.625-11.376-11.625Z"/>
            <path class="cls-15" d="M580.497,707.933c-1.884-.656-3.784-1.049-5.64-1.269-4.071,3.451-5.85,8.649-5.092,13.613,1.666,1.053,3.502,1.985,5.499,2.681,10.763,3.748,22.104-.725,22.104-.725,0,0-6.108-10.551-16.871-14.3Z"/>
          </g>
          <path class="cls-14" d="M589.492,748.71c-1.809,0-3.587-.608-4.988-1.808-3.225-2.765-2.597-6.905-2.515-7.369,.213-1.195,1.348-2.001,2.553-1.782,1.196,.213,1.995,1.354,1.783,2.552-.013,.075-.322,2.085,1.045,3.257,1.118,.954,2.843,1.008,4.194,.127,1.017-.666,2.381-.381,3.046,.639,.665,1.017,.379,2.382-.639,3.046-1.37,.896-2.935,1.339-4.479,1.339Z"/>
          <path class="cls-14" d="M605.053,737.398c-.733,0-1.45-.365-1.868-1.032-.645-1.032-.333-2.39,.698-3.035,2.327-1.458,2.812-2.438,2.799-2.666-.045-.146-.421-.563-.697-.868-.566-.628-1.341-1.485-2.047-2.749-1.044-1.862-1.602-3.988-1.659-6.314-.03-1.215,.931-2.225,2.146-2.255,1.216-.039,2.224,.933,2.254,2.148,.04,1.601,.409,3.04,1.1,4.271,.465,.832,.978,1.399,1.474,1.95,.808,.894,1.724,1.909,1.823,3.553,.14,2.35-1.449,4.527-4.856,6.662-.363,.228-.767,.335-1.166,.335Z"/>
        </g>
        <g>
          <path class="cls-9" d="M607.07,675.639c-14.325-23.92-41.006-35.09-63.013-27.919-26.159,8.524-41.167,41.477-29.95,73.462,14.128-6.689,28.349-13.527,42.659-20.517,17.012-8.31,33.78-16.655,50.305-25.025Z"/>
          <path class="cls-9" d="M472.637,742.744c-.811,0-1.591-.449-1.974-1.225-.54-1.088-.095-2.41,.995-2.949l85.858-42.523c1.089-.54,2.41-.095,2.949,.998,.539,1.088,.095,2.41-.995,2.949l-85.858,42.523c-.314,.155-.647,.228-.975,.228Z"/>
          <path class="cls-14" d="M575.984,681.006c7.641-3.855,15.283-7.711,22.923-11.566,6.35-5.343,9.22-9.974,6.396-15.251-2.252-4.208-9.405-3.713-13.061-1.759-12.692,6.783-16.115,27.015-16.258,28.576Z"/>
        </g>
        <g>
          <path class="cls-11" d="M535.099,707.509c-1.104,0-2.056-.828-2.184-1.952-3.033-26.6,3.071-47.542,16.749-57.453,8.502-6.163,19.043-7.094,28.917-2.562,1.105,.507,1.59,1.814,1.082,2.919-.505,1.107-1.811,1.589-2.918,1.083-8.393-3.857-17.32-3.076-24.498,2.124-12.354,8.953-17.807,28.413-14.958,53.39,.138,1.208-.73,2.298-1.938,2.436-.085,.011-.169,.015-.253,.015Z"/>
          <circle class="cls-4" cx="534.707" cy="729.478" r="27.733" transform="translate(-109.945 95.07) rotate(-9.217)"/>
          <path class="cls-5" d="M534.377,750.767c-11.802,0-21.403-9.6-21.403-21.402s9.602-21.404,21.403-21.404,21.403,9.603,21.403,21.404-9.602,21.402-21.403,21.402Zm0-38.404c-9.375,0-17.001,7.627-17.001,17.002s7.626,17,17.001,17,17.001-7.627,17.001-17-7.626-17.002-17.001-17.002Z"/>
        </g>
      </g>
    </g>
  </g>
</svg>