<?xml version="1.0" encoding="UTF-8"?>
<svg xmlns="http://www.w3.org/2000/svg" xmlns:xlink="http://www.w3.org/1999/xlink" viewBox="0 0 508.723 538.627">
  <defs>
    <style>
      .cls-1, .cls-2 {
        mix-blend-mode: multiply;
      }

      .cls-1, .cls-3, .cls-4, .cls-5, .cls-6, .cls-7, .cls-8 {
        fill-rule: evenodd;
      }

      .cls-1, .cls-4 {
        fill: #ff6768;
      }

      .cls-3 {
        mix-blend-mode: darken;
      }

      .cls-3, .cls-6 {
        fill: #feda2a;
      }

      .cls-9 {
        fill: url(#radial-gradient);
      }

      .cls-5 {
        fill: #fff;
      }

      .cls-7 {
        fill: #fefefe;
      }

      .cls-8 {
        fill: #03bdc9;
      }

      .cls-10 {
        isolation: isolate;
      }
    </style>
    <radialGradient id="radial-gradient" cx="389.78" cy="350.21" fx="389.78" fy="350.21" r="265.781" gradientUnits="userSpaceOnUse">
      <stop offset="0" stop-color="#fff"/>
      <stop offset=".307" stop-color="#fcfcfc"/>
      <stop offset=".472" stop-color="#f4f4f4"/>
      <stop offset=".604" stop-color="#e7e7e7"/>
      <stop offset=".718" stop-color="#d3d3d3"/>
      <stop offset=".82" stop-color="#bababa"/>
      <stop offset=".912" stop-color="#9c9c9c"/>
      <stop offset=".999" stop-color="#787878"/>
      <stop offset="1" stop-color="#787878"/>
    </radialGradient>
  </defs>
  <g class="cls-10">
    <g id="_506" data-name="506">
      <path class="cls-8" d="M252.306,66.205c110.752,0,200.53,89.777,200.53,200.528s-89.778,200.528-200.53,200.528S51.776,377.487,51.776,266.733,141.551,66.205,252.306,66.205h0Z"/>
      <g class="cls-2">
        <path class="cls-9" d="M359.222,97.066c43.378,36.783,70.919,91.671,70.919,153.001,0,110.754-89.778,200.528-200.53,200.528-39.31,0-75.969-11.318-106.917-30.861,34.955,29.641,80.19,47.527,129.613,47.527,110.752,0,200.53-89.774,200.53-200.528,0-71.443-37.366-134.148-93.614-169.667Z"/>
      </g>
      <path class="cls-3" d="M385.017,0c44.131,0,79.892,35.799,79.892,79.889s-35.761,79.893-79.892,79.893-79.889-35.761-79.889-79.893S340.884,0,385.017,0h0Z"/>
      <path class="cls-1" d="M61.613,365.949c33.454,0,60.56,27.109,60.56,60.561s-27.106,60.564-60.56,60.564S1.047,459.969,1.047,426.51s27.106-60.561,60.566-60.561h0Z"/>
      <path class="cls-7" d="M356.046,494.814c12.064,0,21.908,9.798,21.908,21.9s-9.844,21.912-21.908,21.912-21.909-9.805-21.909-21.912,9.806-21.9,21.909-21.9h0Z"/>
      <path class="cls-6" d="M441.055,479.334c6.073,0,10.952,4.92,10.952,10.953,0,6.072-4.879,10.956-10.952,10.956-6.035,0-10.914-4.884-10.914-10.956,0-6.033,4.879-10.953,10.914-10.953h0Z"/>
      <path class="cls-3" d="M96.665,465.425c8.476,0,15.29,6.812,15.29,15.29,0,8.419-6.814,15.288-15.29,15.288-8.416,0-15.285-6.869-15.285-15.288,0-8.478,6.869-15.29,15.285-15.29h0Z"/>
      <path class="cls-4" d="M486.814,121.8c12.103,0,21.908,9.798,21.908,21.866s-9.805,21.905-21.908,21.905-21.906-9.797-21.906-21.905,9.802-21.866,21.906-21.866h0Z"/>
      <path class="cls-7" d="M43.234,27.966c23.899,0,43.234,19.334,43.234,43.234s-19.335,43.233-43.234,43.233S0,95.094,0,71.2,19.339,27.966,43.234,27.966h0Z"/>
      <path class="cls-3" d="M83.689,42.83c10.21,0,18.465,8.263,18.465,18.531,0,10.209-8.255,18.529-18.465,18.529-10.268,0-18.53-8.32-18.53-18.529,0-10.269,8.262-18.531,18.53-18.531h0Z"/>
      <path class="cls-5" d="M194.1,187.298c-2.044,5.174-5.131,9.827-9.001,13.697-4.088,4.087-9.045,7.306-14.581,9.334v116.013c5.536,2.029,10.493,5.247,14.581,9.335,3.87,3.87,6.957,8.522,9.001,13.696h116.679c2.029-5.174,5.131-9.826,9.001-13.696,4.087-4.088,9.045-7.306,14.566-9.335v-116.013c-5.521-2.028-10.479-5.232-14.566-9.334-3.87-3.87-6.972-8.523-9.001-13.697h-116.679Zm-23.582,19.205c4.551-1.855,8.638-4.594,12.059-8.015,3.204-3.203,5.812-6.987,7.668-11.189h-19.727v19.205Zm19.712,142.871c-1.841-4.189-4.45-7.986-7.654-11.175-3.42-3.421-7.507-6.175-12.059-8.03v19.205h19.712Zm144.117-19.205c-4.535,1.855-8.639,4.609-12.059,8.03-3.188,3.188-5.812,6.986-7.653,11.175h19.712v-19.205Zm-19.712-142.87c1.841,4.203,4.465,7.986,7.653,11.189,3.42,3.421,7.523,6.16,12.059,8.015v-19.205h-19.712Zm-147.683,137.928v-113.78c-2.681,.71-5.464,1.146-8.334,1.275v111.244c2.87,.116,5.653,.552,8.334,1.261Zm142.61,27.714h-114.259c.855,2.956,1.376,6.044,1.507,9.218h111.244c.146-3.174,.668-6.262,1.508-9.218Zm28.35-141.494v113.78c2.683-.709,5.479-1.145,8.349-1.261v-111.244c-2.869-.13-5.666-.565-8.349-1.275Zm-142.609-27.713h114.259c-.84-2.942-1.361-6.044-1.508-9.218h-111.244c-.131,3.174-.652,6.276-1.507,9.218Zm39.512,24.133h-37.018v37.019h37.018v-37.019Zm15.683,1.392c-.985,0-1.782-.797-1.782-1.783,0-.972,.797-1.784,1.782-1.784h47.803c.971,0,1.783,.812,1.783,1.784,0,.986-.812,1.783-1.783,1.783h-47.803Zm0,16.132c-.985,0-1.782-.811-1.782-1.783,0-.985,.797-1.783,1.782-1.783h47.803c.971,0,1.783,.797,1.783,1.783,0,.972-.812,1.783-1.783,1.783h-47.803Zm0,16.118c-.985,0-1.782-.797-1.782-1.783s.797-1.783,1.782-1.783h47.803c.971,0,1.783,.797,1.783,1.783s-.812,1.783-1.783,1.783h-47.803Zm0,16.117c-.985,0-1.782-.797-1.782-1.782s.797-1.783,1.782-1.783h47.803c.971,0,1.783,.797,1.783,1.783s-.812,1.782-1.783,1.782h-47.803Zm0,16.117c-.985,0-1.782-.797-1.782-1.782,0-.971,.797-1.769,1.782-1.769h47.803c.971,0,1.783,.798,1.783,1.769,0,.985-.812,1.782-1.783,1.782h-47.803Zm61.862,35.295h-53.411v15.899h53.411v-15.899Zm-55.194-3.566h56.976c.986,0,1.784,.798,1.784,1.783v19.451c0,.986-.798,1.782-1.784,1.782h-56.976c-.986,0-1.783-.796-1.783-1.782v-19.451c0-.985,.797-1.783,1.783-1.783Zm-58.369,3.566c-.971,0-1.768-.798-1.768-1.783,0-.971,.797-1.783,1.768-1.783h36.83c.986,0,1.783,.812,1.783,1.783,0,.985-.797,1.783-1.783,1.783h-36.83Zm0,6.682c-.971,0-1.768-.798-1.768-1.783s.797-1.782,1.768-1.782h36.83c.986,0,1.783,.797,1.783,1.782s-.797,1.783-1.783,1.783h-36.83Zm0,6.682c-.971,0-1.768-.797-1.768-1.782s.797-1.783,1.768-1.783h36.83c.986,0,1.783,.797,1.783,1.783s-.797,1.782-1.783,1.782h-36.83Zm0,6.682c-.971,0-1.768-.797-1.768-1.782s.797-1.783,1.768-1.783h36.83c.986,0,1.783,.798,1.783,1.783s-.797,1.782-1.783,1.782h-36.83Zm0,6.683c-.971,0-1.768-.798-1.768-1.783s.797-1.782,1.768-1.782h36.83c.986,0,1.783,.797,1.783,1.782s-.797,1.783-1.783,1.783h-36.83Zm37.8-63.109h-40.583c-.986,0-1.783-.797-1.783-1.782v-64.789c0-.972,.797-1.783,1.783-1.783h40.583c.972,0,1.769,.812,1.769,1.783v64.789c0,.985-.796,1.782-1.769,1.782Zm-38.8-3.564h37.018v-20.64h-37.018v20.64Zm106.634-122.275c0-.985,.797-1.783,1.783-1.783,.971,0,1.782,.797,1.782,1.783v14.408l-.014,.159h.042v9.566h-111.171v-9.566h.03v-14.567c0-.985,.796-1.783,1.782-1.783s1.783,.797,1.783,1.783v14.408l-.015,.159h8.407l-.014-.159v-14.408c0-.985,.797-1.783,1.782-1.783s1.783,.797,1.783,1.783v14.567h8.392v-14.567c0-.985,.797-1.783,1.783-1.783s1.783,.797,1.783,1.783v14.408l-.015,.159h8.407l-.014-.159v-14.408c0-.985,.797-1.783,1.782-1.783s1.783,.797,1.783,1.783v14.567h8.392v-14.567c0-.985,.798-1.783,1.784-1.783,.971,0,1.782,.797,1.782,1.783v14.408l-.014,.159h8.392v-14.567c0-.985,.797-1.783,1.783-1.783s1.783,.797,1.783,1.783v14.408l-.015,.159h8.406v-14.567c0-.985,.798-1.783,1.768-1.783,.986,0,1.783,.797,1.783,1.783v14.567h8.391v-14.567c0-.985,.799-1.783,1.784-1.783s1.784,.797,1.784,1.783v14.408l-.016,.159h8.406l-.014-.159v-14.408c0-.985,.81-1.783,1.782-1.783,.985,0,1.783,.797,1.783,1.783v14.567h8.392v-14.567Zm3.565,240.925c0,.986-.811,1.783-1.782,1.783-.986,0-1.783-.797-1.783-1.783v-12.451h-8.392v12.451c0,.986-.798,1.783-1.783,1.783-.972,0-1.782-.797-1.782-1.783v-12.451h-8.377v12.451c0,.986-.798,1.783-1.784,1.783s-1.784-.797-1.784-1.783v-12.451h-8.391v12.451c0,.986-.797,1.783-1.783,1.783-.971,0-1.768-.797-1.768-1.783v-12.451h-8.392v12.451c0,.986-.797,1.783-1.783,1.783s-1.783-.797-1.783-1.783v-12.451h-8.377v12.451c0,.986-.811,1.783-1.782,1.783-.986,0-1.784-.797-1.784-1.783v-12.451h-8.392v12.451c0,.986-.797,1.783-1.783,1.783s-1.782-.797-1.782-1.783v-12.451h-8.377v12.451c0,.986-.797,1.783-1.783,1.783s-1.783-.797-1.783-1.783v-12.451h-8.392v12.451c0,.986-.797,1.783-1.783,1.783s-1.782-.797-1.782-1.783v-12.451h-8.377v12.451c0,.986-.797,1.783-1.783,1.783s-1.782-.797-1.782-1.783v-12.451h-.03v-9.566h111.171v9.566h-.028v12.451Zm65.5-174.962c.986,0,1.784,.797,1.784,1.783s-.798,1.782-1.784,1.782h-14.102v8.378h14.102c.986,0,1.784,.811,1.784,1.783,0,.986-.798,1.783-1.784,1.783h-14.102v8.392h14.102c.986,0,1.784,.797,1.784,1.783s-.798,1.783-1.784,1.783h-14.102v8.378h14.102c.986,0,1.784,.811,1.784,1.782,0,.986-.798,1.783-1.784,1.783h-14.102v8.393h14.102c.986,0,1.784,.797,1.784,1.783s-.798,1.782-1.784,1.782h-14.102v8.378h14.102c.986,0,1.784,.798,1.784,1.783s-.798,1.782-1.784,1.782h-14.102v8.393h14.102c.986,0,1.784,.797,1.784,1.782,0,.972-.798,1.769-1.784,1.769h-14.102v8.393h14.102c.986,0,1.784,.797,1.784,1.782s-.798,1.783-1.784,1.783h-14.102v8.378h14.102c.986,0,1.784,.811,1.784,1.782,0,.986-.798,1.783-1.784,1.783h-14.102v8.393h14.102c.986,0,1.784,.797,1.784,1.783s-.798,1.782-1.784,1.782h-14.102v.029h-9.565v-111.172h9.565v.029h14.102Zm-218.444,111.143v-111.172h-9.566v.029h-13.422c-.971,0-1.782,.797-1.782,1.783s.811,1.782,1.782,1.782h13.422v8.378h-13.422c-.971,0-1.782,.811-1.782,1.783,0,.986,.811,1.783,1.782,1.783h13.422v8.392h-13.422c-.971,0-1.782,.797-1.782,1.783s.811,1.783,1.782,1.783h13.422v8.378h-13.422c-.971,0-1.782,.811-1.782,1.782,0,.986,.811,1.783,1.782,1.783h13.422v8.393h-13.422c-.971,0-1.782,.797-1.782,1.783s.811,1.782,1.782,1.782h13.422v8.378h-13.422c-.971,0-1.782,.798-1.782,1.783s.811,1.782,1.782,1.782h13.422v8.393h-13.422c-.971,0-1.782,.797-1.782,1.782,0,.972,.811,1.769,1.782,1.769h13.422v8.393h-13.422c-.971,0-1.782,.797-1.782,1.782s.811,1.783,1.782,1.783h13.422v8.378h-13.422c-.971,0-1.782,.811-1.782,1.782,0,.986,.811,1.783,1.782,1.783h13.422v8.393h-13.422c-.971,0-1.782,.797-1.782,1.783s.811,1.782,1.782,1.782h13.422v.029h9.566Z"/>
    </g>
  </g>
</svg>