<?xml version="1.0" encoding="UTF-8"?>
<svg id="Illustration" xmlns="http://www.w3.org/2000/svg" viewBox="0 0 1832.073 1830">
  <defs>
    <style>
      .cls-1 {
        fill: #fff;
      }

      .cls-2 {
        fill: #caddff;
      }

      .cls-3 {
        fill: #99b9ff;
      }

      .cls-4 {
        fill: #5479f7;
      }
    </style>
  </defs>
  <g id="Development_course" data-name="Development course">
    <path class="cls-2" d="M1810.851,330.289c-54.03-130.85-180.142-192.808-260.748-232.408C1232.387-58.208,749.883-40.239,402.71,243.877,321.466,310.366-78.955,658.699,14.603,1130.792c82.708,417.34,497.631,659.686,846.958,692.088,289.403,26.843,667.265-78.241,800.676-332.719,83.892-160.022-17.052-210.926,51.415-573.594,59.26-313.902,163.287-426.226,97.199-586.278Z"/>
    <g>
      <path class="cls-3" d="M1720.953,892.291l-1.891-22.683-24.622-3.437c-1.378-5.174-3.159-10.168-5.337-14.933l16.782-18.3-12.979-18.698-23.047,9.336c-3.741-3.739-7.784-7.16-12.092-10.23l5.392-24.275-20.589-9.704-15.269,19.581c-5.061-1.358-10.281-2.289-15.611-2.791l-7.466-23.713-22.683,1.891-3.437,24.622c-5.173,1.378-10.167,3.16-14.933,5.337l-18.3-16.782-18.699,12.979,9.336,23.047c-3.739,3.74-7.161,7.784-10.231,12.091l-24.274-5.392-9.704,20.59,19.581,15.269c-1.359,5.061-2.289,10.28-2.791,15.611l-23.713,7.466,1.891,22.683,24.622,3.437c1.378,5.174,3.159,10.167,5.337,14.934l-16.782,18.3,12.979,18.698,23.047-9.336c3.74,3.739,7.785,7.161,12.091,10.231l-5.392,24.274,20.589,9.703,15.269-19.58c5.061,1.358,10.28,2.288,15.61,2.791l7.467,23.712,22.683-1.891,3.436-24.621c5.174-1.378,10.168-3.159,14.934-5.337l18.3,16.782,18.698-12.979-9.337-23.047c3.739-3.74,7.16-7.785,10.231-12.091l24.275,5.391,9.704-20.59-19.581-15.268c1.359-5.061,2.289-10.281,2.791-15.611l23.713-7.466Zm-113.421,56.833c-32.249,2.688-60.572-21.275-63.26-53.524-2.688-32.249,21.275-60.572,53.525-63.26,32.249-2.689,60.572,21.275,63.26,53.525,2.688,32.249-21.275,60.572-53.525,63.26Z"/>
      <path class="cls-3" d="M1481.954,778.876l-6.31-31.846-35.446-.93c-2.781-7.112-6.104-13.905-9.954-20.311l20.856-28.622-21.388-24.424-31.17,16.921c-5.9-4.7-12.179-8.903-18.774-12.564l3.757-35.268-30.734-10.458-18.506,30.195c-7.39-1.115-14.937-1.599-22.572-1.457l-14.376-32.413-31.845,6.31-.932,35.446c-7.111,2.781-13.904,6.105-20.31,9.954l-28.622-20.856-24.424,21.387,16.921,31.17c-4.7,5.9-8.904,12.179-12.565,18.773l-35.266-3.756-10.458,30.734,30.195,18.506c-1.116,7.39-1.599,14.937-1.457,22.572l-32.413,14.376,6.31,31.846,35.446,.93c2.781,7.112,6.105,13.905,9.955,20.311l-20.856,28.622,21.387,24.424,31.17-16.921c5.899,4.7,12.179,8.903,18.773,12.565l-3.756,35.266,30.734,10.458,18.506-30.195c7.39,1.116,14.936,1.598,22.571,1.458l14.377,32.413,31.846-6.31,.93-35.446c7.112-2.781,13.905-6.105,20.311-9.954l28.622,20.856,24.424-21.387-16.921-31.169c4.701-5.9,8.903-12.18,12.565-18.774l35.267,3.756,10.459-30.734-30.195-18.506c1.116-7.39,1.599-14.937,1.457-22.572l32.413-14.376Zm-151.653,98.699c-45.276,8.971-89.252-20.46-98.223-65.736-8.971-45.276,20.46-89.252,65.736-98.223,45.276-8.971,89.252,20.46,98.223,65.736,8.971,45.276-20.46,89.252-65.736,98.223Z"/>
    </g>
    <g>
      <g>
        <path class="cls-1" d="M41.435,550.009c.477-18.626,4.517-142.449,48.398-198.67,6.105-7.822,15.585-19.969,31.738-26.263,32.262-12.572,49.178,14.559,74.285,5.998,33.112-11.292,21.488-64.551,72.545-114.689,12.246-12.025,31.313-30.749,58.094-33.386,29.902-2.944,38.644,17.195,67.057,17.051,35.428-.179,44.033-31.606,84.699-50.354,42.84-19.751,111.745-21.044,145.541,21.247,29.47,36.877,21.071,92.908,5.395,127.332-23.163,50.861-73.77,79.93-116.944,85.524-62.062,8.041-105.528-32.846-120.4-15.139-13.847,16.488,23.25,52.636,6.896,87.293-11.42,24.2-44.836,39.057-71.664,35.714-37.184-4.634-45.017-42.15-69.637-38.759-25.816,3.556-29.17,46.454-57.971,75.183-23.756,23.696-68.237,41.156-158.034,21.918Z"/>
        <path class="cls-4" d="M45.673,538.999c-.617,0-1.241-.172-1.797-.533-1.535-.994-1.974-3.044-.979-4.579,86.826-134.063,214.346-204.075,306.033-239.199,99.29-38.038,179.218-44.497,180.014-44.559,1.845-.147,3.414,1.227,3.554,3.05,.139,1.824-1.226,3.415-3.049,3.555-.787,.06-79.924,6.476-178.35,44.214-90.702,34.776-216.834,104.043-302.644,236.539-.634,.979-1.697,1.511-2.782,1.511Z"/>
      </g>
      <g>
        <path class="cls-3" d="M39.856,600.68c-7.717-204.848,32.493-277.154,74.757-303.165,12.614-7.764,40.159-20.598,66.004-51.469,33.519-40.04,31.597-71.501,48.252-109.144C261.443,63.275,344.205,13.205,418.265,2.588c51.735-7.416,143.47-1.924,177.795,57.225,14.515,25.011,22.671,66.35,3.959,86.453-26.776,28.766-85.902-16.187-135.742,17.03-27.195,18.123-17.479,36.585-46.517,55.585-45.758,29.94-91.178-1.974-112.8,23.557-20.941,24.727,16.708,61.327-4.175,95.434-23.822,38.907-87.576,20.274-106.118,59.508-11.039,23.362,9.29,34.779-.516,63.108-11.933,34.469-48.546,36.388-97.201,75.409-27.282,21.879-44.567,45.979-57.093,64.783Z"/>
        <path class="cls-2" d="M44.948,585.345c-.329,0-.663-.048-.993-.151-1.745-.548-2.715-2.408-2.168-4.152,48.296-153.887,135.193-303.254,232.45-399.553C403.349,53.647,522.16,48.571,523.346,48.534c1.813-.116,3.352,1.377,3.409,3.206,.058,1.826-1.378,3.354-3.205,3.413-1.161,.037-117.532,5.172-244.654,131.041-96.525,95.577-182.802,243.926-230.79,396.833-.444,1.414-1.751,2.32-3.158,2.32Z"/>
      </g>
    </g>
    <g>
      <path class="cls-1" d="M999.698,170.197c-1.656,0-3.087-1.24-3.285-2.925l-14.224-121.099c-.211-1.815,1.086-3.462,2.904-3.676,1.807-.216,3.46,1.087,3.675,2.904l14.224,121.099c.211,1.815-1.087,3.462-2.904,3.676-.132,.015-.261,.022-.39,.022Z"/>
      <path class="cls-1" d="M1033.66,178.072c-.192,0-.388-.017-.584-.052-1.8-.319-3.001-2.037-2.68-3.839l21.318-120.055c.319-1.8,2.031-2.992,3.839-2.68,1.8,.319,3.001,2.037,2.68,3.839l-21.318,120.055c-.285,1.604-1.682,2.731-3.255,2.731Z"/>
      <path class="cls-1" d="M973.832,177.081c-1.162,0-2.289-.612-2.895-1.701l-59.27-106.558c-.888-1.6-.314-3.615,1.285-4.503,1.6-.892,3.615-.315,4.503,1.283l59.268,106.558c.89,1.6,.315,3.615-1.283,4.503-.511,.285-1.063,.418-1.608,.418Z"/>
    </g>
    <g>
      <g>
        <path class="cls-3" d="M4.183,1479.026V433.192c0-15.759,10.597-29.548,25.824-33.604L1177.169,93.977c22.076-5.881,43.729,10.759,43.729,33.604v951.038c0,14.789-9.353,27.96-23.316,32.834L50.42,1511.86c-22.606,7.89-46.237-8.891-46.237-32.834Z"/>
        <path d="M38.835,1517.162c-7.739,0-15.339-2.401-21.927-7.082-10.191-7.235-16.035-18.555-16.035-31.053V433.193c0-17.233,11.63-32.368,28.282-36.805L1176.318,90.778c11.525-3.076,23.554-.662,33.009,6.603,9.457,7.267,14.881,18.274,14.881,30.202V486.759c0,1.828-1.483,3.311-3.311,3.311s-3.311-1.483-3.311-3.311V127.583c0-9.854-4.48-18.947-12.292-24.95-7.812-6.004-17.75-7.994-27.272-5.456L30.86,402.787c-13.757,3.667-23.365,16.17-23.365,30.407V1479.027c0,10.326,4.829,19.675,13.247,25.655,8.418,5.978,18.838,7.455,28.587,4.053l550.021-191.979c1.729-.606,3.614,.308,4.217,2.035,.603,1.727-.308,3.615-2.035,4.217L51.51,1514.987c-4.17,1.457-8.444,2.175-12.676,2.175Z"/>
      </g>
      <g>
        <path class="cls-2" d="M188.776,1192.774l618.507-185.009c9.464-2.831,17.166-16.851,17.208-31.334l1.815-625.852c.045-15.392-7.838-25.699-17.612-22.999L169.472,504.126c-10.207,2.819-18.121,17.773-17.669,33.378l18.331,634.08c.424,14.664,8.773,24.141,18.642,21.189Z"/>
        <path class="cls-2" d="M182.967,1336.104l912.785-277.304c4.158-1.263,7.612-7.474,7.717-13.877l.787-47.969c.106-6.437-3.19-10.638-7.362-9.381L180.901,1263.64c-4.438,1.337-7.882,7.735-7.693,14.286l1.411,48.816c.188,6.515,3.926,10.705,8.348,9.362Z"/>
        <path class="cls-2" d="M892.266,541.765l204.051-57.995c9.077-2.58,16.24,6.961,16.005,21.291l-2.586,157.696c-.231,14.099-7.701,27.635-16.689,30.254l-202.05,58.86c-9.118,2.656-16.453-6.659-16.379-20.824l.832-158.453c.076-14.4,7.606-28.21,16.815-30.827Z"/>
        <path class="cls-2" d="M890.837,778.417l201.797-58.967c8.977-2.623,16.064,6.626,15.834,20.64l-2.529,154.234c-.226,13.791-7.612,27.111-16.503,29.771l-199.84,59.781c-9.017,2.698-16.273-6.331-16.2-20.184l.814-154.948c.074-14.08,7.52-27.666,16.627-30.327Z"/>
        <path class="cls-2" d="M894.03,304.012l205.663-56.802c9.355-2.584,16.736,7.445,16.491,22.38l-2.627,160.185c-.241,14.692-7.941,28.715-17.204,31.341l-203.624,57.716c-9.398,2.664-16.958-7.13-16.881-21.894l.846-160.983c.079-15.01,7.843-29.321,17.336-31.943Z"/>
        <g>
          <path class="cls-1" d="M460.329,851.205c-28.913-29.745-32.848-95.188-8.587-146.139,24.321-51.079,67.548-67.821,96.349-37.431,28.642,30.222,32.076,95.577,7.867,146.011-24.148,50.309-66.875,67.14-95.629,37.559Z"/>
          <path class="cls-4" d="M480.801,808.787l-1.108-81.701c-.057-4.185,2.776-7.738,5.25-6.586l53.894,25.088c2.73,1.271,2.812,7.173,.141,10.039l-52.782,56.615c-2.416,2.592-5.339,.721-5.396-3.454Z"/>
        </g>
      </g>
      <g>
        <g>
          <path class="cls-1" d="M285.309,538.412c3.195,63.149-39.755,121.799-97.467,131.24-59.48,9.73-111.774-36.239-115.131-102.937-3.357-66.687,43.631-125.848,103.275-131.978,57.872-5.948,106.129,40.536,109.324,103.675Z"/>
          <path d="M172,674.261c-22.247,0-43.541-7.491-61.242-21.782-24.541-19.813-39.614-51.011-41.355-85.598-3.438-68.305,44.223-129.064,106.244-135.439,26.899-2.772,53.1,5.465,73.755,23.181,23.24,19.932,37.532,50.41,39.214,83.621,1.588,31.392-7.836,62.607-26.538,87.898-18.836,25.472-45.01,42.084-73.702,46.777-5.49,.897-10.962,1.341-16.376,1.341Zm13.823-236.72c-3.151,0-6.317,.162-9.499,.489-58.572,6.021-103.57,63.674-100.307,128.519,1.647,32.705,15.825,62.148,38.9,80.775,20.524,16.569,46.231,23.34,72.39,19.059,55.323-9.05,97.803-66.382,94.695-127.803-1.59-31.407-15.044-60.175-36.912-78.93-16.818-14.424-37.575-22.109-59.268-22.109Z"/>
        </g>
        <g>
          <path class="cls-4" d="M112.871,561.174l37.896,10.374,.838,16.614-54.157-18.378-.674-13.373,51.597-32.376,.838,16.612-36.338,20.528Z"/>
          <path class="cls-4" d="M173.297,604.892l-11.808,1.728,29.817-112.022,11.612-1.377-29.621,111.671Z"/>
          <path class="cls-4" d="M252.976,542.193l-37.648-10.352-.811-16.063,52.627,18.255,.647,12.799-50.093,31.923-.811-16.065,36.089-20.498Z"/>
        </g>
      </g>
    </g>
    <g>
      <path d="M1831.932,1275.362h-131.285v34.538l-500.162-74.376c-16.553-2.461-33.461-.748-49.176,4.983L81.188,1630.784v-29.474H0v76.007H.042c.454,9.803,6.928,19.322,18.83,21.436l726.731,129.123c27.384,4.865,55.605,1.33,80.925-10.138l992.512-449.526c10.166-4.604,14.059-14.487,12.575-23.495h.318v-69.354Z"/>
      <g>
        <path class="cls-1" d="M22.975,1628.855l723.653,129.122c27.267,4.865,55.369,1.33,80.582-10.138l988.306-449.526c19.848-9.028,15.735-38.356-5.83-41.577l-610.104-91.111c-16.482-2.461-33.319-.748-48.968,4.983L19.141,1585.018c-21.849,8.002-19.072,39.75,3.835,43.837Z"/>
        <path d="M770.762,1763.433c-8.231,0-16.491-.729-24.717-2.197L22.394,1632.114c-11.953-2.132-20.36-11.326-21.418-23.422-1.057-12.096,5.625-22.607,17.026-26.783l1131.473-414.408c16.121-5.905,33.617-7.69,50.597-5.15l610.102,91.112c11.311,1.69,19.647,10.1,21.236,21.426,1.589,11.324-4.113,21.704-14.523,26.438l-988.306,449.526c-18.336,8.341-37.974,12.579-57.819,12.581Zm414.157-595.583c-11.281,0-22.542,1.977-33.168,5.868L20.28,1588.126c-10.338,3.788-13.306,13.135-12.707,19.988,.599,6.855,5.146,15.547,15.985,17.481l723.652,129.122c26.724,4.764,53.917,1.347,78.63-9.893l988.306-449.525c9.326-4.243,11.596-13.15,10.705-19.492-.888-6.34-5.521-14.282-15.655-15.795l-610.102-91.112c-4.697-.701-9.438-1.05-14.174-1.05Z"/>
      </g>
      <path class="cls-3" d="M770.631,1734.191c-6.504,0-13.048-.58-19.452-1.722L38.899,1605.375l1120.627-410.435c8.143-2.983,16.67-4.495,25.342-4.495,3.631,0,7.295,.272,10.888,.809l596.657,89.103-975.931,443.897c-14.497,6.594-29.923,9.938-45.85,9.938h-.001Z"/>
      <g>
        <path class="cls-1" d="M387.752,1570.539c21.1,5.557,33.121,11.57,36.112,18.088,3.016,6.574-3.46,13.43-19.672,20.624-16.307,7.237-34.709,11.366-55.143,12.296-20.658,.94-42.047-1.368-64.031-6.94l-29.923-7.791c-22.753-5.924-35.142-12.364-37.122-19.263-1.962-6.837,6.155-13.728,24.086-20.621,17.603-6.767,36.434-10.392,56.574-10.961,19.93-.564,40.213,1.826,60.974,7.157l28.144,7.412Zm-60.945,4.036c-12.935-3.396-24.125-5.167-33.59-5.311-9.505-.145-18.098,1.286-25.793,4.31-7.535,2.962-10.263,5.912-8.134,8.842,2.137,2.939,9.222,6.057,21.24,9.345l38.851,10.151c12.994,3.395,24.365,5.177,34.093,5.347,9.686,.17,18.239-1.362,25.645-4.576,7.277-3.157,9.53-6.196,6.812-9.13-2.708-2.924-10.073-6.008-22.11-9.262l-37.015-9.717Z"/>
        <path class="cls-1" d="M533.078,1550.653l-25.655,11.363-112.661-29.861-22.924,16.465-24.374-6.437,37.426-28.985,2.973-1.145,145.215,38.601Z"/>
        <path class="cls-1" d="M595.77,1483.605c18.474,4.976,29.392,10.158,32.797,15.581,3.431,5.464-1.06,10.969-13.644,16.553-12.63,5.605-27.415,8.619-44.319,8.975-17.066,.36-35.187-1.943-54.264-6.919l-25.99-6.94c-19.757-5.275-30.998-10.774-33.684-16.455-2.664-5.636,3.029-11.136,16.893-16.466,13.641-5.244,28.803-7.886,45.533-7.989,16.576-.102,33.893,2.242,52.042,7.023l24.636,6.636Zm-50.434,2.187c-11.295-3.035-20.895-4.7-28.813-4.994-7.948-.295-14.898,.722-20.859,3.065-5.832,2.292-7.662,4.663-5.454,7.106,2.214,2.45,8.568,5.139,19.051,8.061l33.823,9.056c11.316,3.03,21.05,4.708,29.188,5.036,8.107,.327,15.034-.762,20.772-3.251,5.644-2.448,7.105-4.899,4.421-7.36-2.675-2.453-9.271-5.128-19.799-8.031l-32.329-8.687Z"/>
        <path class="cls-1" d="M682.558,1447.335c17.39,4.729,27.826,9.573,31.343,14.565,3.542,5.028-.218,10.013-11.428,14.988-11.242,4.989-24.639,7.589-40.166,7.746-15.667,.158-32.49-2.12-50.383-6.843l-24.386-6.579c-18.535-5.001-29.272-10.123-32.172-15.331-2.879-5.169,1.927-10.137,14.259-14.878,12.144-4.669,25.894-6.946,41.285-6.886,15.258,.06,31.384,2.365,48.458,6.912l23.189,6.305Zm-46.318,1.525c-10.621-2.882-19.58-4.494-26.889-4.837-7.335-.344-13.652,.521-18.958,2.606-5.189,2.039-6.692,4.188-4.479,6.439,2.219,2.258,8.26,4.774,18.112,7.541l31.766,8.591c10.629,2.874,19.706,4.501,27.218,4.88,7.486,.378,13.786-.548,18.894-2.764,5.026-2.18,6.2-4.405,3.552-6.678-2.638-2.267-8.906-4.775-18.814-7.529l-30.403-8.249Z"/>
        <path class="cls-1" d="M760.268,1414.859c16.427,4.504,26.417,9.052,30.006,13.672,3.613,4.65,.457,9.193-9.593,13.653-10.07,4.469-22.285,6.726-36.626,6.722-14.464-.003-30.155-2.249-47.002-6.742l-22.967-6.254c-17.455-4.753-27.727-9.546-30.78-14.347-3.031-4.768,1.041-9.284,12.081-13.528,10.881-4.183,23.424-6.156,37.66-5.966,14.118,.189,29.202,2.451,45.32,6.784l21.902,6.005Zm-42.767,.987c-10.023-2.743-18.419-4.305-25.2-4.685-6.803-.381-12.579,.357-17.332,2.225-4.647,1.826-5.881,3.785-3.677,5.872,2.21,2.092,7.967,4.455,17.26,7.083l29.944,8.171c10.02,2.734,18.521,4.31,25.492,4.727,6.947,.416,12.712-.374,17.288-2.359,4.504-1.954,5.442-3.985,2.839-6.097-2.594-2.106-8.564-4.467-17.92-7.086l-28.693-7.852Z"/>
        <path class="cls-1" d="M830.253,1385.611c15.565,4.3,25.145,8.585,28.773,12.879,3.651,4.322,1.002,8.483-8.059,12.504-9.072,4.026-20.271,5.994-33.581,5.862-13.419-.133-28.118-2.34-44.033-6.624l-21.704-5.959c-16.494-4.529-26.337-9.031-29.497-13.48-3.138-4.419,.322-8.549,10.263-12.37,9.805-3.769,21.31-5.486,34.537-5.192,13.124,.292,27.288,2.509,42.552,6.647l20.751,5.733Zm-39.677,.546c-9.488-2.617-17.387-4.129-23.706-4.538-6.339-.41-11.648,.223-15.931,1.906-4.185,1.645-5.197,3.441-3.011,5.383,2.191,1.947,7.689,4.175,16.483,6.678l28.319,7.79c9.477,2.607,17.469,4.133,23.967,4.58,6.477,.445,11.779-.232,15.902-2.021,4.06-1.761,4.801-3.625,2.248-5.595-2.545-1.965-8.245-4.194-17.107-6.692l-27.165-7.492Z"/>
        <path class="cls-1" d="M923.856,1377.579l-14.803,6.556-83.872-23.255-11.213,9.998-18.03-4.989,17.675-17.79,1.716-.661,108.527,30.141Z"/>
        <path class="cls-1" d="M980.622,1352.438l-13.476,5.969-79.79-22.267-9.851,9.196-17.137-4.774,15.39-16.394,1.562-.602,103.301,28.872Z"/>
        <path class="cls-1" d="M1003.884,1313.048c13.445,3.784,21.969,7.433,25.596,10.965,3.648,3.551,2.093,6.836-4.742,9.869-6.831,3.031-15.701,4.366-26.606,3.976-10.982-.393-23.321-2.468-36.971-6.228l-18.629-5.219c-14.154-3.965-22.894-7.773-26.192-11.402-3.279-3.609-1.141-6.855,6.333-9.728,7.385-2.839,16.506-3.994,27.372-3.493,10.792,.497,22.751,2.57,35.918,6.216l17.922,5.044Zm-32.45-.369c-8.178-2.299-14.88-3.677-20.112-4.133-5.247-.458-9.482-.056-12.707,1.212-3.149,1.238-3.683,2.66-1.587,4.265,2.1,1.608,6.942,3.508,14.517,5.696l24.352,6.832c8.151,2.287,14.922,3.677,20.306,4.172,5.369,.493,9.607,.063,12.712-1.285,3.06-1.328,3.385-2.808,.991-4.443-2.387-1.632-7.403-3.541-15.053-5.733l-23.42-6.583Z"/>
        <path class="cls-1" d="M1052.163,1292.872c12.861,3.639,21.081,7.115,24.683,10.445,3.622,3.348,2.331,6.408-3.942,9.191-6.266,2.78-14.537,3.961-24.812,3.514-10.344-.449-22.052-2.48-35.083-6.092l-17.789-5.011c-13.515-3.807-21.938-7.428-25.243-10.843-3.288-3.397-1.468-6.417,5.385-9.051,6.775-2.605,15.281-3.622,25.525-3.077,10.177,.541,21.542,2.566,34.133,6.073l17.142,4.85Zm-30.553-.578c-7.818-2.21-14.197-3.546-19.141-4.011-4.957-.465-8.915-.119-11.873,1.043-2.888,1.135-3.309,2.461-1.248,3.977,2.065,1.518,6.721,3.33,13.96,5.43l23.265,6.563c7.788,2.197,14.23,3.546,19.319,4.048,5.076,.501,9.039,.13,11.887-1.106,2.808-1.218,3.035-2.6,.694-4.146-2.334-1.543-7.156-3.366-14.473-5.471l-22.391-6.327Z"/>
        <path class="cls-1" d="M1123.589,1289.119l-10.413,4.612-69.619-19.747-6.796,7.329-14.918-4.226,10.28-13.135,1.208-.465,90.258,25.631Z"/>
        <path class="cls-1" d="M1137.63,1257.154c11.833,3.379,19.504,6.554,23.036,9.539,3.549,3,2.682,5.68-2.656,8.049-5.328,2.364-12.59,3.292-21.788,2.762-9.255-.533-19.872-2.474-31.821-5.823l-16.316-4.642c-12.394-3.526-20.246-6.822-23.533-9.872-3.27-3.035-1.964-5.675,3.859-7.914,5.762-2.215,13.231-3.008,22.411-2.399,9.124,.606,19.459,2.538,31.036,5.796l15.77,4.503Zm-27.311-.901c-7.186-2.05-13.002-3.311-17.452-3.783-4.461-.473-7.949-.218-10.465,.771-2.455,.965-2.695,2.129-.709,3.492,1.99,1.365,6.314,3.021,12.965,4.965l21.358,6.083c7.15,2.036,13.02,3.309,17.603,3.818,4.572,.508,8.07,.234,10.492-.817,2.389-1.036,2.46-2.251,.224-3.645-2.23-1.391-6.707-3.061-13.436-5.013l-20.581-5.87Z"/>
        <path class="cls-1" d="M1201.199,1254.746l-8.917,3.949-64.165-18.361-5.359,6.406-13.733-3.925,7.89-11.516,1.034-.398,83.248,23.845Z"/>
        <path class="cls-1" d="M1210.939,1226.517c10.957,3.153,18.147,6.075,21.591,8.776,3.459,2.714,2.913,5.088-1.685,7.128-4.585,2.035-11.034,2.768-19.348,2.183-8.362-.589-18.072-2.443-29.102-5.565l-15.068-4.323c-11.445-3.283-18.797-6.307-22.034-9.06-3.222-2.739-2.304-5.074,2.705-7,4.96-1.907,11.592-2.527,19.897-1.877,8.258,.647,17.731,2.491,28.444,5.533l14.601,4.202Zm-24.651-1.128c-6.648-1.911-11.991-3.104-16.033-3.577-4.051-.474-7.159-.288-9.325,.563-2.112,.83-2.218,1.864-.307,3.1,1.914,1.238,5.95,2.763,12.101,4.572l19.74,5.668c6.609,1.898,11.998,3.101,16.164,3.61,4.156,.508,7.277,.307,9.362-.598,2.057-.892,2.013-1.972-.123-3.24-2.13-1.265-6.308-2.806-12.538-4.625l-19.041-5.475Z"/>
        <path class="cls-1" d="M1268.076,1225.127l-7.721,3.42-59.501-17.155-4.244,5.661-12.721-3.664,6.046-10.207,.896-.345,77.247,22.29Z"/>
      </g>
      <g>
        <path class="cls-1" d="M758.032,1632.407c21.1,5.557,33.121,11.57,36.112,18.089,3.016,6.574-3.46,13.43-19.671,20.623-16.308,7.237-34.709,11.366-55.143,12.296-20.658,.94-42.047-1.368-64.031-6.94l-29.923-7.791c-22.753-5.924-35.142-12.364-37.122-19.263-1.962-6.837,6.155-13.728,24.086-20.621,17.603-6.767,36.434-10.392,56.574-10.961,19.93-.564,40.213,1.826,60.974,7.157l28.144,7.412Zm-60.944,4.036c-12.935-3.396-24.125-5.167-33.59-5.311-9.505-.145-18.098,1.286-25.793,4.31-7.535,2.962-10.263,5.912-8.134,8.842,2.137,2.939,9.222,6.057,21.24,9.345l38.851,10.151c12.994,3.395,24.365,5.177,34.093,5.347,9.686,.17,18.239-1.362,25.645-4.576,7.277-3.157,9.53-6.196,6.811-9.13-2.708-2.924-10.073-6.008-22.11-9.262l-37.014-9.717Z"/>
        <path class="cls-1" d="M903.358,1612.522l-25.655,11.363-112.661-29.86-22.924,16.465-24.374-6.437,37.426-28.985,2.973-1.145,145.215,38.601Z"/>
        <path class="cls-1" d="M966.05,1545.474c18.474,4.976,29.392,10.158,32.797,15.581,3.431,5.464-1.06,10.969-13.644,16.553-12.63,5.605-27.415,8.618-44.319,8.975-17.066,.36-35.187-1.943-54.264-6.919l-25.99-6.94c-19.757-5.275-30.998-10.774-33.684-16.455-2.665-5.636,3.029-11.135,16.893-16.466,13.641-5.244,28.803-7.886,45.533-7.989,16.576-.102,33.893,2.242,52.042,7.023l24.636,6.636Zm-50.434,2.187c-11.295-3.035-20.895-4.7-28.813-4.994-7.948-.295-14.898,.722-20.859,3.065-5.832,2.292-7.661,4.663-5.454,7.106,2.214,2.45,8.568,5.139,19.051,8.061l33.823,9.056c11.316,3.03,21.05,4.708,29.188,5.036,8.107,.327,15.034-.762,20.772-3.251,5.644-2.448,7.105-4.899,4.421-7.36-2.675-2.453-9.271-5.128-19.8-8.031l-32.329-8.687Z"/>
        <path class="cls-1" d="M1052.838,1509.204c17.391,4.729,27.826,9.573,31.343,14.565,3.542,5.028-.218,10.013-11.428,14.988-11.242,4.989-24.639,7.589-40.166,7.746-15.667,.158-32.49-2.12-50.383-6.843l-24.386-6.579c-18.535-5.001-29.272-10.123-32.172-15.331-2.879-5.169,1.927-10.137,14.259-14.878,12.144-4.669,25.894-6.946,41.285-6.886,15.258,.06,31.384,2.365,48.458,6.912l23.189,6.305Zm-46.318,1.525c-10.621-2.882-19.58-4.494-26.889-4.837-7.335-.344-13.652,.521-18.958,2.606-5.189,2.039-6.692,4.188-4.48,6.439,2.219,2.258,8.26,4.774,18.113,7.541l31.766,8.591c10.629,2.874,19.706,4.501,27.218,4.88,7.486,.378,13.786-.548,18.894-2.764,5.026-2.181,6.2-4.404,3.552-6.678-2.638-2.267-8.906-4.775-18.814-7.529l-30.403-8.249Z"/>
        <path class="cls-1" d="M1130.548,1476.727c16.427,4.504,26.417,9.052,30.006,13.672,3.613,4.65,.457,9.193-9.593,13.653-10.07,4.469-22.285,6.726-36.626,6.722-14.464-.003-30.155-2.249-47.002-6.742l-22.967-6.254c-17.455-4.753-27.727-9.546-30.78-14.347-3.032-4.768,1.041-9.284,12.081-13.528,10.881-4.183,23.424-6.156,37.66-5.966,14.118,.189,29.202,2.451,45.32,6.784l21.902,6.005Zm-42.767,.987c-10.023-2.743-18.419-4.305-25.2-4.685-6.804-.381-12.579,.357-17.333,2.225-4.647,1.826-5.881,3.785-3.677,5.872,2.21,2.092,7.967,4.455,17.26,7.083l29.944,8.171c10.02,2.734,18.521,4.31,25.492,4.727,6.947,.416,12.712-.374,17.288-2.359,4.504-1.954,5.442-3.985,2.839-6.096-2.594-2.106-8.564-4.467-17.92-7.086l-28.693-7.852Z"/>
        <path class="cls-1" d="M1200.533,1447.48c15.565,4.3,25.145,8.585,28.773,12.879,3.651,4.322,1.002,8.483-8.059,12.504-9.072,4.026-20.271,5.994-33.581,5.862-13.419-.133-28.117-2.34-44.033-6.624l-21.704-5.959c-16.494-4.528-26.337-9.031-29.497-13.48-3.138-4.419,.322-8.549,10.263-12.37,9.805-3.769,21.31-5.486,34.537-5.192,13.124,.292,27.288,2.509,42.552,6.647l20.751,5.733Zm-39.677,.546c-9.488-2.617-17.387-4.129-23.706-4.538-6.34-.41-11.649,.223-15.931,1.906-4.185,1.645-5.197,3.441-3.011,5.383,2.191,1.947,7.689,4.175,16.483,6.678l28.319,7.79c9.477,2.607,17.469,4.133,23.967,4.58,6.477,.445,11.779-.232,15.902-2.021,4.06-1.761,4.802-3.625,2.248-5.595-2.545-1.965-8.245-4.194-17.107-6.692l-27.165-7.492Z"/>
        <path class="cls-1" d="M1294.136,1439.448l-14.803,6.556-83.872-23.255-11.213,9.998-18.03-4.989,17.675-17.79,1.716-.661,108.527,30.141Z"/>
        <path class="cls-1" d="M1350.902,1414.307l-13.476,5.969-79.79-22.267-9.851,9.196-17.137-4.773,15.39-16.395,1.562-.602,103.301,28.872Z"/>
        <path class="cls-1" d="M1374.164,1374.917c13.445,3.784,21.968,7.433,25.596,10.965,3.648,3.551,2.093,6.836-4.742,9.869-6.831,3.031-15.701,4.366-26.606,3.976-10.982-.393-23.321-2.468-36.971-6.228l-18.629-5.219c-14.154-3.965-22.894-7.773-26.192-11.402-3.279-3.609-1.141-6.855,6.332-9.728,7.385-2.839,16.506-3.994,27.372-3.494,10.792,.498,22.751,2.57,35.918,6.216l17.922,5.044Zm-32.451-.369c-8.178-2.299-14.88-3.677-20.112-4.133-5.247-.458-9.481-.055-12.707,1.212-3.149,1.238-3.683,2.66-1.587,4.265,2.101,1.608,6.942,3.508,14.517,5.696l24.352,6.832c8.151,2.287,14.922,3.677,20.306,4.172,5.369,.493,9.607,.063,12.712-1.284,3.06-1.328,3.385-2.808,.991-4.443-2.387-1.632-7.403-3.541-15.053-5.733l-23.42-6.583Z"/>
        <path class="cls-1" d="M1422.443,1354.74c12.861,3.639,21.081,7.115,24.683,10.445,3.622,3.348,2.331,6.408-3.942,9.191-6.266,2.78-14.537,3.961-24.812,3.514-10.344-.449-22.051-2.479-35.083-6.092l-17.789-5.011c-13.515-3.807-21.938-7.427-25.243-10.843-3.288-3.397-1.468-6.416,5.385-9.051,6.775-2.605,15.282-3.622,25.525-3.077,10.177,.542,21.542,2.566,34.133,6.073l17.142,4.85Zm-30.553-.578c-7.818-2.209-14.197-3.546-19.141-4.011-4.957-.465-8.915-.119-11.873,1.043-2.888,1.135-3.309,2.461-1.249,3.977,2.065,1.518,6.721,3.33,13.96,5.43l23.265,6.563c7.788,2.197,14.229,3.546,19.319,4.048,5.076,.501,9.039,.13,11.887-1.106,2.808-1.218,3.034-2.6,.694-4.146-2.334-1.543-7.156-3.366-14.473-5.471l-22.391-6.327Z"/>
        <path class="cls-1" d="M1493.869,1350.988l-10.413,4.612-69.62-19.747-6.796,7.329-14.918-4.226,10.28-13.135,1.208-.465,90.258,25.631Z"/>
        <path class="cls-1" d="M1507.91,1319.022c11.833,3.379,19.504,6.554,23.036,9.539,3.549,3,2.682,5.681-2.656,8.049-5.328,2.364-12.59,3.292-21.788,2.762-9.255-.533-19.873-2.474-31.821-5.823l-16.316-4.642c-12.394-3.526-20.246-6.822-23.533-9.872-3.27-3.035-1.964-5.675,3.86-7.914,5.762-2.215,13.231-3.008,22.411-2.399,9.124,.606,19.46,2.538,31.036,5.796l15.77,4.503Zm-27.311-.901c-7.186-2.05-13.001-3.311-17.452-3.783-4.461-.474-7.949-.218-10.465,.771-2.455,.965-2.695,2.129-.709,3.492,1.99,1.365,6.314,3.021,12.965,4.965l21.358,6.083c7.15,2.037,13.02,3.309,17.603,3.818,4.572,.508,8.07,.234,10.493-.817,2.389-1.036,2.46-2.251,.224-3.645-2.23-1.391-6.707-3.061-13.436-5.013l-20.581-5.87Z"/>
        <path class="cls-1" d="M1571.479,1316.615l-8.917,3.949-64.165-18.361-5.359,6.406-13.733-3.925,7.89-11.517,1.034-.398,83.248,23.845Z"/>
        <path class="cls-1" d="M1581.219,1288.385c10.957,3.153,18.147,6.075,21.591,8.776,3.459,2.714,2.912,5.088-1.686,7.129-4.585,2.035-11.034,2.768-19.348,2.183-8.362-.588-18.072-2.443-29.102-5.564l-15.068-4.323c-11.445-3.283-18.797-6.307-22.034-9.059-3.222-2.739-2.304-5.074,2.705-7,4.96-1.907,11.592-2.527,19.897-1.877,8.258,.647,17.731,2.491,28.444,5.533l14.601,4.202Zm-24.651-1.128c-6.648-1.911-11.991-3.104-16.033-3.577-4.051-.474-7.159-.288-9.325,.563-2.112,.83-2.218,1.864-.307,3.1,1.914,1.238,5.95,2.764,12.101,4.573l19.74,5.668c6.609,1.898,11.998,3.101,16.164,3.61,4.156,.508,7.277,.307,9.362-.598,2.057-.892,2.013-1.972-.123-3.24-2.13-1.265-6.308-2.806-12.538-4.625l-19.041-5.475Z"/>
        <path class="cls-1" d="M1638.356,1286.995l-7.721,3.42-59.501-17.155-4.244,5.661-12.721-3.664,6.046-10.207,.895-.345,77.247,22.29Z"/>
      </g>
    </g>
    <g>
      <g>
        <g>
          <g>
            <polygon class="cls-1" points="671.206 1321.195 645.153 1433.399 677.385 1439.519 733.47 1327.938 671.206 1321.195"/>
            <path d="M677.386,1442.83c-.205,0-.412-.019-.619-.058l-32.233-6.118c-.886-.168-1.664-.69-2.157-1.444-.492-.757-.655-1.679-.45-2.557l26.053-112.204c.378-1.632,1.925-2.731,3.582-2.544l62.264,6.741c1.079,.116,2.032,.755,2.551,1.707,.52,.955,.538,2.102,.051,3.072l-56.085,111.581c-.57,1.132-1.725,1.824-2.958,1.824Zm-28.228-12.04l26.391,5.01,52.819-105.084-54.6-5.911-24.61,105.985Z"/>
          </g>
          <g>
            <path class="cls-1" d="M529.749,1546.967c41.178-11.174,120.391-36.843,173.801-70.894,6.174-3.936,7.268-11.138,7.096-18.457-.395-16.805-3.667-37.498-7.561-49.547-1.192-3.688-5.623-5.133-8.775-2.878l-14.46,10.343-1.162-21.048s-17.697-12.976-49.499,6.299c0,0-64.322,71.354-100.287,113.03-16.39,18.992-12.106,36.668,.848,33.153Z"/>
            <path d="M526.619,1550.72c-3.999,0-7.405-1.789-9.506-5.124-4.203-6.674-2.962-19.76,9.28-33.946,35.578-41.224,99.691-112.368,100.335-113.082,.217-.241,.467-.448,.744-.617,33.307-20.184,52.376-6.717,53.174-6.135,.799,.586,1.293,1.5,1.347,2.488l.83,15.032,9.56-6.836c2.378-1.701,5.33-2.151,8.1-1.237,2.762,.912,4.858,3.02,5.753,5.79,4.083,12.63,7.329,33.862,7.721,50.485,.157,6.694-.565,16.187-8.625,21.327-48.1,30.665-121.791,56.937-174.716,71.297-1.377,.375-2.716,.558-3.996,.558Zm104.7-147.353c-5.03,5.583-65.698,72.968-99.911,112.612-9.432,10.93-11.518,21.598-8.691,26.089,1.206,1.914,3.28,2.488,6.163,1.705h.001c52.453-14.232,125.417-40.226,172.889-70.49,4.096-2.613,5.761-7.273,5.565-15.588-.378-16.065-3.491-36.505-7.402-48.605-.238-.735-.794-1.296-1.526-1.537-.743-.242-1.536-.123-2.173,.334l-14.46,10.341c-.984,.703-2.271,.813-3.359,.293-1.089-.524-1.808-1.597-1.873-2.802l-1.066-19.3c-4.296-2.255-19.403-7.892-44.158,6.95Z"/>
          </g>
          <path d="M530.11,1530.678c-1.424,0-2.739-.925-3.17-2.358-.526-1.751,.467-3.598,2.218-4.124,1.098-.33,110.628-33.47,171.834-70.318,1.567-.94,3.601-.435,4.544,1.13,.943,1.567,.438,3.6-1.13,4.544-61.922,37.277-172.236,70.654-173.343,70.986-.318,.095-.638,.14-.954,.14Z"/>
          <path d="M653.881,1341.774c27.616,3.98,55.232,7.962,82.847,11.942,15.381-31.466,38.225-74.449,70.159-123.152,42.116-64.23,53.825-67.92,60.556-68.814,51.584-6.85,69.099,116.197,154.4,145.69,89.843,31.063,222.909-52.713,220.927-113.449-1.417-43.413-70.462-33.063-190.806-138.253-46.342-40.508-84.597-84.43-150.287-93.123-31.106-4.116-52.975,1.703-59.122,3.48-22.401,6.476-58.028,23.442-99.195,89.482-63.859,102.44-83.12,230.023-89.479,286.196Z"/>
        </g>
        <g>
          <path class="cls-1" d="M724.348,1452.947l-84.638,44.367,30.117,42.532s62.594-20.639,94.574-32.546l-40.053-54.353Z"/>
          <path d="M669.827,1543.158c-1.053,0-2.069-.504-2.702-1.397l-30.118-42.533c-.552-.78-.74-1.759-.517-2.688s.836-1.716,1.683-2.158l84.639-44.367c1.448-.761,3.233-.349,4.203,.968l40.054,54.353c.617,.836,.804,1.914,.508,2.91-.296,.996-1.043,1.793-2.018,2.156-31.673,11.794-94.067,32.383-94.693,32.591-.342,.112-.691,.166-1.037,.166Zm-25.229-44.669l26.514,37.445c11.089-3.673,59.203-19.669,88.01-30.217l-35.755-48.519-78.77,41.291Z"/>
        </g>
        <g>
          <path class="cls-1" d="M500.291,1414.084s9.126-23.155,78.627,19.077c31.961,19.421,66.898,31.971,85.144,37.796,7.483,2.389,12.428,9.495,12.033,17.34l-1.505,29.863,19.706,2.48c8.185,1.03,12.983,9.741,9.468,17.205-6.403,13.598-22.754,43.596-48.568,49.46l-154.904-173.22Z"/>
          <path d="M655.195,1590.616c-.931,0-1.832-.392-2.468-1.104l-154.904-173.22c-.834-.933-1.071-2.257-.612-3.421,.193-.489,2.074-4.835,8.776-7.092,10.052-3.387,31.166-1.871,74.651,24.552,31.73,19.281,66.519,31.754,84.431,37.473,8.91,2.843,14.803,11.339,14.334,20.658l-1.351,26.796,16.656,2.095c4.969,.625,9.202,3.499,11.613,7.886,2.409,4.383,2.568,9.489,.438,14.014-7.823,16.617-24.83,45.374-50.83,51.281-.244,.056-.489,.082-.733,.082Zm-150.599-176.684l151.729,169.67c22.237-6.247,37.329-32.062,44.442-47.168,1.217-2.585,1.126-5.501-.25-8.004-1.377-2.505-3.796-4.148-6.636-4.506l-19.705-2.479c-1.719-.216-2.981-1.722-2.894-3.451l1.506-29.863c.319-6.323-3.684-12.087-9.733-14.019-18.193-5.808-53.539-18.483-85.856-38.12-42.783-25.994-61.333-26.255-68.586-24.099-1.939,.578-3.21,1.36-4.017,2.039Z"/>
        </g>
        <g>
          <path class="cls-1" d="M500.291,1414.084s-13.229,3.97-3.852,25.12c9.377,21.15,96.734,122.642,128.999,140.949,33.376,18.937,35.399,2.335,32.864-7.278-2.535-9.614-129.674-180.571-158.01-158.791Z"/>
          <path d="M649.339,1592.151c-6.349,0-14.801-3.027-25.535-9.117-34.13-19.365-121.158-121.657-130.392-142.486-4.01-9.048-4.719-16.513-2.107-22.191,2.163-4.706,5.886-6.614,7.408-7.222,3.859-2.706,8.965-3.005,15.192-.88,23.178,7.909,61.274,49.466,89.149,82.933,29.16,35.011,56.975,73.254,58.449,78.842,2.009,7.616,.587,14.183-3.803,17.563-2.211,1.703-4.989,2.557-8.361,2.557Zm-148.054-174.908c-.174,.06-2.683,.968-4.022,4.01-1.682,3.822-.921,9.565,2.202,16.612,9.635,21.732,96.784,121.922,127.607,139.409,18.593,10.548,24.788,8.461,26.587,7.073,2.603-2.005,2.404-6.976,1.441-10.626-1.319-3.85-26.06-39.135-58.426-77.842-38.769-46.361-69.234-74.642-85.781-79.637-3.801-1.147-6.688-.992-8.584,.468-.307,.235-.654,.416-1.024,.532Zm-.994-3.158h0Z"/>
        </g>
        <path d="M1211.606,1159.875c-5.971,3.057-199.329,102.883-275.212,144.927-75.691,41.937-233.635,148.149-233.635,148.149l42.886,67.508s128.743-39.152,184.964-67.508c56.221-28.355,95.199-64.678,155.755-72.359,60.557-7.681,282.282-49.192,324.063-115.307,41.782-66.115,14.197-88.089,14.197-88.089l-213.017-17.321Z"/>
      </g>
      <g>
        <path class="cls-1" d="M1015.463,1120.457c-15.463-6.911-21.864-25.417-13.985-40.41,24.878-47.338,73.908-143.683,84.887-187.901,14.862-59.862,55.201-93.018,89.239-97.075,30.079-3.585,162.793,1.161,244.017,9.38,15.489,1.567,46.594,23.707,45.902,39.259-3.48,78.173-35.09,293.062-60.614,335.587-31.042,51.718-173.869,3.434-223.392,.003-35.73-2.476-121.21-38.801-166.053-58.843Z"/>
        <path d="M1142.292,1150.451c-.101,0-.203-.004-.304-.013-1.822-.166-3.162-1.776-2.999-3.598,5.706-62.825-2.044-131.772-9.55-178.551-.289-1.804,.94-3.503,2.746-3.794,1.787-.291,3.503,.938,3.794,2.746,7.565,47.153,15.373,116.69,9.606,180.198-.157,1.718-1.602,3.012-3.294,3.012Z"/>
      </g>
      <g>
        <g>
          <path class="cls-1" d="M908.956,1255.691l239.762,36.904c5.837,.898,11.806-.187,16.954-3.083l94.436-49.877c2.791-1.57-.083-16.212-3.235-16.775l-174.419-31.154-173.497,63.984Z"/>
          <path d="M1152.706,1296.209c-1.498,0-3.001-.112-4.493-.343l-239.761-36.904c-1.492-.228-2.64-1.438-2.792-2.94-.151-1.503,.733-2.917,2.149-3.438l173.498-63.984c.548-.203,1.147-.259,1.727-.153l174.419,31.155c4.238,.757,5.997,7.515,6.668,11.477,1.037,6.118,.231,9.968-2.391,11.443l-94.514,49.918c-4.391,2.473-9.431,3.77-14.51,3.77Zm-230.589-41.843l227.105,34.955c5.079,.78,10.341-.173,14.825-2.697l93.813-49.55c.487-2.371-.858-9.151-2.205-11.07l-172.901-30.883-160.637,59.244Z"/>
        </g>
        <g>
          <path class="cls-1" d="M1148.718,1292.594l-12.979-183.628c-.937-8.857-7.859-15.898-16.7-16.986l-222.473-27.365c-12.945-1.592-23.658,9.944-21.112,22.736l31.006,155.796c1.499,7.531,7.547,13.321,15.137,14.489l227.122,34.958Z"/>
          <path d="M1148.718,1295.905c-.168,0-.336-.013-.504-.039l-227.122-34.957c-8.929-1.375-16.115-8.252-17.88-17.114l-31.005-155.795c-1.424-7.153,.606-14.321,5.568-19.663,4.961-5.344,11.958-7.892,19.195-7.008l222.473,27.365c10.427,1.285,18.481,9.477,19.587,19.923l12.99,183.745c.071,1.005-.319,1.985-1.059,2.669-.616,.567-1.418,.875-2.244,.875Zm-254.55-228.125c-4.376,0-8.5,1.787-11.541,5.062-3.499,3.768-4.929,8.821-3.926,13.864l31.005,155.795c1.223,6.142,6.203,10.91,12.393,11.863l223.022,34.326-12.686-179.491c-.77-7.25-6.45-13.027-13.803-13.933l-222.471-27.363c-.668-.084-1.333-.123-1.993-.123Z"/>
        </g>
      </g>
      <g>
        <g>
          <g>
            <path class="cls-1" d="M1309.897,777.449l-26.852-68.783c5.112-1.627,8.762-7.613,8.492-14.626-.313-8.088-5.709-14.444-12.053-14.2-1.773,.068-3.424,.659-4.888,1.631-9.888-27.597-29.844-37.145-48.33-30.894-18.802,6.358-44.307,20.34-19.235,55.306,2.114,2.948,2.896,18.584,3.166,26.981,.094,2.918,2.613,5.136,5.522,4.891l7.054-.594c6.655,9.289,6.688,23.051,17.388,26.186,6.566,1.923,10.46-1.039,12.762-1.137l2.088,9.036c2.192,9.485-3.422,19.028-12.777,21.721l-23.502,6.765,.613,.519c25.123,21.255,59.827,27.142,90.554,15.362l37.031-14.197-22.183-8.949c-6.808-2.747-12.181-8.18-14.85-15.018Z"/>
            <path d="M1277.616,824.906c-21.769,0-43.244-7.603-60.41-22.126l-.617-.524c-.931-.789-1.352-2.026-1.095-3.221,.257-1.192,1.149-2.147,2.322-2.486l23.502-6.765c7.666-2.205,12.264-10.022,10.466-17.794l-1.309-5.674c-2.544,.791-6.327,1.647-11.246,.207-8.399-2.46-11.303-9.884-14.112-17.063-1.181-3.025-2.399-6.135-4.029-8.836l-5.092,.431c-2.281,.198-4.596-.574-6.31-2.1-1.731-1.539-2.725-3.665-2.8-5.984-.558-17.405-1.88-24.03-2.572-25.198-9.787-13.644-13.098-25.748-9.819-35.938,3.404-10.578,13.448-18.559,30.708-24.394,21.135-7.157,40.953,4.417,51.225,29.56,.953-.274,1.929-.431,2.925-.47,4.092-.175,7.991,1.666,10.943,5.141,2.753,3.244,4.37,7.59,4.549,12.24,.27,6.991-2.746,13.256-7.605,16.397l25.742,65.935c2.326,5.961,7.067,10.755,13.006,13.152l22.183,8.951c1.261,.509,2.082,1.738,2.072,3.098-.013,1.362-.856,2.576-2.126,3.063l-37.031,14.196c-10.863,4.165-22.206,6.202-33.468,6.202Zm-51.822-23.763c23.763,17.66,55.04,22.068,82.918,11.378l29.171-11.184-14.377-5.801c-7.623-3.074-13.708-9.229-16.696-16.884l-26.852-68.781c-.332-.854-.298-1.804,.097-2.63,.392-.826,1.112-1.453,1.983-1.731,3.792-1.207,6.396-5.978,6.187-11.343-.123-3.173-1.181-6.09-2.979-8.209-1.604-1.891-3.602-2.841-5.637-2.809-1.095,.043-2.166,.405-3.184,1.08-.849,.563-1.91,.703-2.874,.384-.966-.321-1.731-1.069-2.074-2.026-8.506-23.733-25.832-35.074-44.154-28.872-15.133,5.118-23.81,11.708-26.526,20.15-2.6,8.082,.401,18.205,8.923,30.09,.819,1.143,2.994,4.176,3.783,28.805,.022,.655,.375,1.065,.584,1.252,.216,.19,.668,.524,1.354,.444l7.051-.595c1.151-.093,2.292,.422,2.971,1.371,2.643,3.691,4.258,7.823,5.82,11.818,2.807,7.177,4.781,11.648,9.806,13.12,3.678,1.076,6.174,.248,8.375-.489,1.127-.375,2.19-.731,3.318-.778,1.58-.093,3.007,1.009,3.367,2.563l2.087,9.035c2.589,11.203-4.04,22.469-15.088,25.649l-17.356,4.995Z"/>
          </g>
          <path d="M1193.881,692.029c-14.309,3.754-27.393-5.89-29.532-7.443-10.184-7.391-22.489-23.36-17.782-37.819,4.129-12.68,19.219-17.678,26.733-20.167,22.052-7.304,28.739,3.714,50.184-2.814,19.065-5.803,26.03-18.24,35.644-14.07,7.391,3.206,7.056,12.194,15.947,15.008,7.706,2.439,11.291-3.258,17.821-1.876,14.877,3.148,26.335,39.073,14.54,62.378-4.306,8.509-11.675,15.259-14.07,14.07-2.629-1.305,2.233-11.42-2.345-16.415-3.31-3.611-10.124-2.988-16.425-1.41-1.231,14.009-8.923,19.643-9.668,19.65-1.75,.017,.08-14.9-8.99-26.589-4.445-5.729-14.003-13.897-23.287-12.169-8.234,1.531-8.527,9.407-24.187,21.25-5.974,4.519-9.292,7.029-14.583,8.417Z"/>
        </g>
        <path d="M1255.091,763.817c-1.046,0-2.074-.494-2.718-1.416-1.046-1.5-.679-3.563,.821-4.611,19.481-13.588,18.669-26.552,18.626-27.098-.147-1.807,1.188-3.415,2.994-3.583,1.817-.147,3.408,1.134,3.596,2.938,.071,.694,1.498,17.183-21.426,33.175-.578,.401-1.237,.595-1.893,.595Z"/>
      </g>
      <g>
        <path class="cls-1" d="M1265.342,1196.553l9.104,46.453s115.62-6.53,169.697-77.95c54.077-71.42,106.963-257.882,3.88-346.698l-88.322,115.967s27.097,191.324-94.359,262.228Z"/>
        <g>
          <path class="cls-1" d="M1166.84,1216.206l50.144-23.266,48.358,3.614,7.266,37.077s-17.674,11.537-29.816,7.106c-12.142-4.431-25.989-8.023-25.989-8.023,0,0-24.067,23.82-48.629,5.374l28.539-18.263s-16.413,2.587-28.291,2.953c-3.764,.116-4.997-4.986-1.581-6.571Z"/>
          <path d="M1187.963,1248.373c-6.849,.002-14.295-2.02-21.777-7.64-.869-.651-1.362-1.686-1.322-2.772,.041-1.084,.61-2.078,1.524-2.664l16.039-10.261c-4.544,.489-9.505,.916-13.904,1.052-3.238,.103-6.058-2.039-6.81-5.206-.748-3.152,.787-6.31,3.732-7.679h.002l50.145-23.265c.513-.239,1.076-.341,1.638-.3l48.357,3.613c1.488,.112,2.716,1.203,3.003,2.667l7.267,37.077c.261,1.324-.308,2.671-1.438,3.408-.78,.509-19.234,12.376-32.763,7.444-9.388-3.425-19.943-6.379-23.985-7.474-3.96,3.354-15.547,12.001-29.708,12.001Zm-13.687-10.261c20.43,11.285,39.355-6.922,40.2-7.756,.832-.815,2.033-1.14,3.158-.847,.571,.149,14.139,3.682,26.291,8.116,7.677,2.802,19.285-2.358,24.989-5.624l-6.338-32.334-44.982-3.361-49.362,22.903c-.073,.034-.097,.058-.099,.058,0,.03,.034,.162,.075,.2,11.637-.353,27.824-2.887,27.986-2.912,1.543-.252,3.055,.63,3.611,2.095s.009,3.119-1.311,3.964l-24.22,15.498Z"/>
        </g>
        <path d="M1279.738,1190.382c-1.285,0-2.507-.75-3.046-2.005-.72-1.679,.056-3.624,1.733-4.346,.837-.371,67.164-31.034,79.448-173.841,.155-1.819,1.753-3.186,3.583-3.014,1.822,.155,3.171,1.759,3.014,3.583-12.674,147.371-80.545,178.118-83.427,179.355-.427,.181-.869,.267-1.304,.267Z"/>
      </g>
    </g>
    <g>
      <path class="cls-1" d="M1314.893,1723.828c-1.253,0-2.451-.713-3.009-1.925-.765-1.662-.039-3.628,1.621-4.393l46.676-21.499c1.666-.767,3.628-.039,4.393,1.621,.765,1.662,.039,3.628-1.621,4.393l-46.676,21.499c-.451,.207-.921,.304-1.384,.304Z"/>
      <path class="cls-1" d="M1397.023,1685.999c-1.252,0-2.451-.714-3.009-1.925-.765-1.662-.039-3.628,1.621-4.393l45.874-21.13c1.658-.767,3.628-.041,4.393,1.621s.039,3.628-1.621,4.393l-45.874,21.131c-.448,.207-.921,.304-1.384,.304Z"/>
      <path class="cls-1" d="M1258.911,1677.894c-1.253,0-2.451-.713-3.009-1.925-.765-1.662-.039-3.628,1.621-4.393l86.678-39.924c1.658-.767,3.628-.039,4.393,1.621,.765,1.662,.039,3.628-1.621,4.393l-86.678,39.924c-.448,.207-.921,.304-1.384,.304Z"/>
    </g>
    <g>
      <path class="cls-1" d="M1558.807,1145.172c-1.253,0-2.451-.713-3.009-1.925-.765-1.662-.039-3.628,1.621-4.393l46.676-21.501c1.658-.77,3.628-.039,4.393,1.621,.765,1.662,.039,3.628-1.621,4.393l-46.676,21.501c-.448,.207-.921,.304-1.384,.304Z"/>
      <path class="cls-1" d="M1554.17,1184.318c-1.253,0-2.451-.714-3.009-1.925-.765-1.662-.039-3.628,1.621-4.393l45.874-21.131c1.658-.767,3.628-.039,4.393,1.621,.765,1.662,.039,3.628-1.621,4.393l-45.874,21.131c-.448,.207-.921,.304-1.384,.304Z"/>
      <path class="cls-1" d="M1479.488,1147.446c-1.253,0-2.451-.713-3.009-1.925-.765-1.662-.039-3.628,1.621-4.393l86.676-39.924c1.66-.77,3.628-.039,4.393,1.621,.765,1.662,.039,3.628-1.621,4.393l-86.676,39.924c-.448,.207-.921,.304-1.384,.304Z"/>
    </g>
    <g>
      <path class="cls-3" d="M1718.455,614.267l-326.695-25.138c-29.783-2.292-53.703-29.786-53.703-61.431V200.801c0-31.645,23.92-57.299,53.703-57.299h326.695c33.593,0,61.098,27.628,61.098,61.708v352.051c0,34.08-27.505,59.591-61.098,57.007Z"/>
      <g>
        <g>
          <path class="cls-1" d="M1398.678,327.744l-.748,142.669c-.225,42.95,71.228,77.769,159.595,77.769s160.184-34.818,160.409-77.769l.748-142.669h-320.004Z"/>
          <path d="M1557.524,551.494c-62.635,0-118.619-17.164-146.103-44.792-11.216-11.274-16.869-23.489-16.802-36.307l.748-142.669c.009-1.822,1.49-3.294,3.311-3.294h320.004c.882,0,1.727,.351,2.348,.977,.621,.625,.968,1.47,.964,2.352l-.748,142.669c-.116,22.103-17.526,42.686-49.019,57.955-30.739,14.903-71.474,23.11-114.703,23.11Zm-155.552-220.44l-.731,139.375c-.058,10.99,4.948,21.624,14.875,31.603,25.888,26.024,81.394,42.839,141.408,42.839,86.409,0,156.884-33.41,157.1-74.476l.731-139.341h-313.382Z"/>
        </g>
        <g>
          <path class="cls-3" d="M1727.768,295.897l-163.776-69.448c-3.086-1.102-6.465-1.102-9.562,0l-164.504,69.448h-65.337l-.083,15.855c-.01,1.971,1.092,3.941,3.314,4.734l225.716,80.569c3.086,1.102,6.464,1.102,9.562,0l226.56-80.569c2.23-.793,3.353-2.763,3.364-4.734l.083-15.855h-65.337Z"/>
          <path d="M1558.313,401.189c-1.996,0-3.992-.338-5.889-1.015l-225.717-80.569c-3.369-1.203-5.532-4.292-5.512-7.871l.082-15.855c.009-1.822,1.49-3.294,3.311-3.294h64.668l163.888-69.186c3.984-1.423,8.166-1.421,11.962-.069l163.334,69.255h64.666c.882,0,1.727,.351,2.348,.977,.621,.625,.968,1.47,.964,2.352l-.084,15.855c-.015,3.563-2.201,6.64-5.564,7.836l-226.56,80.569c-1.904,.677-3.9,1.015-5.896,1.015Zm-230.431-101.982l-.065,12.561c-.002,.36,.103,1.237,1.115,1.597l225.717,80.569c2.365,.847,4.971,.845,7.34,0l226.56-80.569c1.043-.371,1.16-1.263,1.162-1.63l.067-12.529h-62.01c-.444,0-.884-.088-1.294-.263l-163.776-69.447c-2.18-.774-4.788-.774-7.157,.071l-164.328,69.378c-.407,.172-.845,.261-1.287,.261h-62.044Z"/>
        </g>
        <g>
          <path class="cls-1" d="M1789.791,291.163l-225.716-80.569c-3.086-1.102-6.465-1.102-9.562,0l-226.56,80.569c-4.46,1.586-4.493,7.881-.05,9.468l225.716,80.569c3.086,1.102,6.464,1.102,9.562,0l226.56-80.569c4.46-1.586,4.493-7.881,.05-9.468Z"/>
          <path d="M1558.395,385.334c-1.996,0-3.992-.338-5.889-1.015l-225.715-80.569c-3.352-1.196-5.514-4.271-5.512-7.832,.002-3.583,2.186-6.674,5.564-7.875l226.559-80.569c3.807-1.354,7.991-1.354,11.785,0l225.717,80.569h.002c3.348,1.196,5.512,4.271,5.51,7.83-.002,3.583-2.186,6.674-5.564,7.877l-226.562,80.569c-1.904,.677-3.9,1.015-5.896,1.015Zm.903-172.252c-1.244,0-2.49,.209-3.676,.632l-226.56,80.569c-1.048,.373-1.162,1.272-1.162,1.641,0,.358,.108,1.229,1.117,1.589l225.712,80.569c2.365,.847,4.971,.845,7.34,0l226.562-80.569c1.048-.373,1.162-1.272,1.162-1.641,0-.358-.108-1.229-1.114-1.589l-225.717-80.569c-1.181-.422-2.423-.632-3.665-.632Z"/>
        </g>
        <path d="M1686.605,411.714c-4.477,0-8.209,3.466-8.54,7.933l-9.343,125.872h34.365l-8.025-125.872c-.285-4.467-3.98-7.933-8.457-7.933Z"/>
        <path d="M1686.614,413.447h-.017c-1.828-.009-3.303-1.5-3.294-3.329l.334-64.224-125.945-46.896c-1.714-.638-2.585-2.544-1.947-4.258,.636-1.714,2.537-2.587,4.258-1.947l128.113,47.702c1.302,.483,2.162,1.731,2.156,3.119l-.347,66.537c-.009,1.824-1.49,3.294-3.311,3.294Z"/>
      </g>
    </g>
  </g>
</svg>