<?xml version="1.0" encoding="UTF-8"?>
<svg id="_594" data-name="594" xmlns="http://www.w3.org/2000/svg" viewBox="0 0 299.998 242.06">
  <defs>
    <style>
      .cls-1 {
        fill: #000729;
      }

      .cls-2 {
        fill: #ff7979;
      }

      .cls-3 {
        fill: #febe76;
      }

      .cls-4 {
        fill: #7e8c8d;
      }

      .cls-5 {
        fill: #a3e3df;
      }

      .cls-6 {
        fill: #afb9d2;
      }

      .cls-7 {
        fill: #d7deed;
      }

      .cls-8 {
        fill: #707487;
      }

      .cls-9 {
        fill: #95a5a5;
      }
    </style>
  </defs>
  <path class="cls-5" d="M60.514,22.531c3.863,0,6.439,2.576,6.439,6.44,0,3.218-2.576,5.79-6.439,5.79-3.219,0-5.794-2.572-5.794-5.79,0-3.864,2.575-6.44,5.794-6.44Z"/>
  <path class="cls-3" d="M41.2,22.531c3.222,0,5.794,2.576,5.794,6.44,0,3.218-2.573,5.79-5.794,5.79-3.861,0-6.437-2.572-6.437-5.79,0-3.864,2.576-6.44,6.437-6.44Z"/>
  <path class="cls-2" d="M21.244,22.531c3.219,0,5.795,2.576,5.795,6.44,0,3.218-2.576,5.79-5.795,5.79-3.861,0-6.436-2.572-6.436-5.79,0-3.864,2.576-6.44,6.436-6.44Z"/>
  <polygon class="cls-4" points="298.067 1.933 298.067 40.557 291.628 40.557 291.628 9.658 8.37 9.658 8.37 1.933 298.067 1.933"/>
  <path class="cls-9" d="M291.628,40.557v7.729H1.931V9.658H291.628v30.898ZM66.953,28.972c0-3.864-2.576-6.44-6.439-6.44-3.219,0-5.794,2.576-5.794,6.44,0,3.218,2.575,5.79,5.794,5.79,3.863,0,6.439-2.572,6.439-5.79Zm-19.958,0c0-3.864-2.573-6.44-5.794-6.44-3.861,0-6.437,2.576-6.437,6.44,0,3.218,2.576,5.79,6.437,5.79,3.222,0,5.794-2.572,5.794-5.79Zm-19.956,0c0-3.864-2.576-6.44-5.795-6.44-3.861,0-6.436,2.576-6.436,6.44,0,3.218,2.576,5.79,6.436,5.79,3.219,0,5.795-2.572,5.795-5.79Z"/>
  <rect class="cls-6" x="1.931" y="48.285" width="46.997" height="173.173"/>
  <path class="cls-7" d="M168.785,119.619c12.128,0,21.991,9.837,21.991,21.974s-9.863,21.989-21.991,21.989-21.992-9.842-21.992-21.989,9.837-21.974,21.992-21.974Z"/>
  <path class="cls-7" d="M291.628,48.285V221.458H48.928V48.285h242.7Zm-62.954,97.612v-8.594l-16.551-2.491c-.489-3.115-1.314-6.141-2.414-9.018l13.1-10.43-4.307-7.443-15.591,6.123c-1.945-2.421-4.166-4.637-6.587-6.578l6.123-15.594-7.436-4.307-10.428,13.102c-2.878-1.119-5.885-1.927-9.019-2.423l-2.494-16.543h-8.593l-2.479,16.543c-3.127,.496-6.134,1.304-9.012,2.423l-10.428-13.102-7.443,4.307,6.123,15.594c-2.424,1.941-4.635,4.157-6.602,6.578l-15.578-6.123-4.307,7.443,13.088,10.43c-1.1,2.877-1.925,5.902-2.4,9.018l-16.553,2.475v8.61l16.553,2.493c.476,3.116,1.301,6.12,2.4,8.999l-13.088,10.43,4.307,7.442,15.578-6.122c1.967,2.419,4.178,4.636,6.602,6.598l-6.123,15.579,7.443,4.306,10.428-13.087c2.878,1.101,5.885,1.925,9.012,2.402l2.479,16.544h8.593l2.494-16.544c3.134-.477,6.141-1.302,9.019-2.402l10.428,13.087,7.436-4.306-6.123-15.579c2.421-1.962,4.642-4.179,6.587-6.598l15.591,6.122,4.307-7.442-13.1-10.43c1.1-2.879,1.925-5.883,2.414-8.999l16.551-2.493Z"/>
  <path class="cls-8" d="M228.674,141.593v4.305l-16.551,2.493c-.489,3.116-1.314,6.12-2.414,8.999l13.1,10.43-4.307,7.442-15.591-6.122c-1.945,2.419-4.166,4.636-6.587,6.598l6.123,15.579-7.436,4.306-10.428-13.087c-2.878,1.101-5.885,1.925-9.019,2.402l-2.494,16.544h-8.593l-2.479-16.544c-3.127-.477-6.134-1.302-9.012-2.402l-10.428,13.087-7.443-4.306,6.123-15.579c-2.424-1.962-4.635-4.179-6.602-6.598l-15.578,6.122-4.307-7.442,13.088-10.43c-1.1-2.879-1.925-5.883-2.4-8.999l-16.553-2.493v-8.61l16.553-2.475c.476-3.115,1.301-6.141,2.4-9.018l-13.088-10.43,4.307-7.443,15.578,6.123c1.967-2.421,4.178-4.637,6.602-6.578l-6.123-15.594,7.443-4.307,10.428,13.102c2.878-1.119,5.885-1.927,9.012-2.423l2.479-16.543h8.593l2.494,16.543c3.134,.496,6.141,1.304,9.019,2.423l10.428-13.102,7.436,4.307-6.123,15.594c2.421,1.941,4.642,4.157,6.587,6.578l15.591-6.123,4.307,7.443-13.1,10.43c1.1,2.877,1.925,5.902,2.414,9.018l16.551,2.491v4.289Zm-37.897,0c0-12.137-9.863-21.974-21.991-21.974s-21.992,9.837-21.992,21.974,9.837,21.989,21.992,21.989,21.991-9.842,21.991-21.989Z"/>
  <path class="cls-1" d="M291.628,223.388H48.928c-1.068,0-1.933-.861-1.933-1.93s.865-1.93,1.933-1.93h240.769V48.285c0-1.068,.866-1.934,1.931-1.934s1.934,.865,1.934,1.934V221.458c0,1.068-.865,1.93-1.934,1.93Z"/>
  <path class="cls-1" d="M291.628,50.215H48.928c-1.068,0-1.933-.864-1.933-1.93s.865-1.934,1.933-1.934h240.769v-5.795c0-1.065,.866-1.93,1.931-1.93s1.934,.864,1.934,1.93v7.729c0,1.065-.865,1.93-1.934,1.93Z"/>
  <path class="cls-1" d="M1.931,50.215c-1.065,0-1.931-.864-1.931-1.93V9.658c0-1.068,.866-1.934,1.931-1.934h6.439c1.064,0,1.931,.865,1.931,1.934s-.866,1.93-1.931,1.93H3.864V48.285c0,1.065-.866,1.93-1.934,1.93Z"/>
  <path class="cls-1" d="M48.928,223.388H1.931c-1.065,0-1.931-.861-1.931-1.93V48.285c0-1.068,.866-1.934,1.931-1.934H48.928c1.065,0,1.931,.865,1.931,1.934V221.458c0,1.068-.866,1.93-1.931,1.93Zm-45.063-3.859H46.995V50.215H3.864V219.528Z"/>
  <path class="cls-1" d="M21.244,36.695c-4.77,0-8.367-3.321-8.367-7.724,0-4.93,3.442-8.371,8.367-8.371,4.404,0,7.725,3.598,7.725,8.371,0,4.259-3.465,7.724-7.725,7.724Zm0-12.23c-2.778,0-4.506,1.725-4.506,4.507,0,2.273,1.854,3.86,4.506,3.86,2.166,0,3.864-1.696,3.864-3.86,0-2.655-1.59-4.507-3.864-4.507Z"/>
  <path class="cls-1" d="M41.2,36.695c-4.77,0-8.367-3.321-8.367-7.724,0-4.93,3.441-8.371,8.367-8.371,4.407,0,7.727,3.598,7.727,8.371,0,4.259-3.467,7.724-7.727,7.724Zm0-12.23c-2.778,0-4.506,1.725-4.506,4.507,0,2.273,1.853,3.86,4.506,3.86,2.168,0,3.864-1.696,3.864-3.86,0-2.655-1.587-4.507-3.864-4.507Z"/>
  <path class="cls-1" d="M60.514,36.695c-4.26,0-7.725-3.465-7.725-7.724,0-4.773,3.321-8.371,7.725-8.371,4.929,0,8.37,3.441,8.37,8.371,0,4.402-3.597,7.724-8.37,7.724Zm0-12.23c-2.274,0-3.861,1.852-3.861,4.507,0,2.164,1.696,3.86,3.861,3.86,2.655,0,4.507-1.587,4.507-3.86,0-2.782-1.726-4.507-4.507-4.507Z"/>
  <path class="cls-1" d="M195.705,234.978H31.544c-1.068,0-1.93-.865-1.93-1.931s.862-1.934,1.93-1.934H195.705c1.068,0,1.933,.866,1.933,1.934s-.865,1.931-1.933,1.931Z"/>
  <path class="cls-1" d="M247.209,242.06H119.097c-1.065,0-1.931-.865-1.931-1.934s.865-1.931,1.931-1.931H247.209c1.065,0,1.931,.866,1.931,1.931s-.865,1.934-1.931,1.934Z"/>
  <path class="cls-1" d="M276.823,242.06h-16.095c-1.067,0-1.93-.865-1.93-1.934s.862-1.931,1.93-1.931h16.095c1.065,0,1.931,.866,1.931,1.931s-.865,1.934-1.931,1.934Z"/>
  <path class="cls-1" d="M63.731,242.06H3.218c-1.065,0-1.93-.865-1.93-1.934s.865-1.931,1.93-1.931H63.731c1.068,0,1.934,.866,1.934,1.931s-.865,1.934-1.934,1.934Z"/>
  <path class="cls-1" d="M168.785,165.514c-13.191,0-23.924-10.73-23.924-23.921s10.732-23.905,23.924-23.905,23.922,10.723,23.922,23.905-10.732,23.921-23.922,23.921Zm0-43.961c-11.061,0-20.062,8.989-20.062,20.04s9.001,20.059,20.062,20.059,20.059-8.997,20.059-20.059-8.998-20.04-20.059-20.04Z"/>
  <path class="cls-1" d="M173.07,203.411h-8.593c-.956,0-1.768-.697-1.909-1.646l-2.271-15.159c-2.232-.416-4.466-1.012-6.666-1.781l-9.563,12c-.597,.752-1.649,.948-2.477,.471l-7.443-4.308c-.827-.477-1.18-1.491-.83-2.379l5.615-14.282c-1.743-1.505-3.38-3.14-4.882-4.882l-14.285,5.612c-.889,.349-1.9-.003-2.376-.827l-4.31-7.443c-.478-.827-.278-1.885,.47-2.479l11.999-9.561c-.765-2.2-1.36-4.427-1.777-6.653l-15.171-2.282c-.944-.145-1.644-.957-1.644-1.913v-8.61c0-.957,.702-1.769,1.646-1.91l15.168-2.265c.417-2.242,1.013-4.477,1.777-6.675l-11.999-9.562c-.748-.595-.947-1.648-.47-2.478l4.31-7.44c.476-.827,1.487-1.18,2.376-.831l14.285,5.613c1.511-1.751,3.144-3.38,4.879-4.867l-5.612-14.29c-.35-.89,.003-1.902,.83-2.38l7.443-4.308c.827-.478,1.88-.278,2.479,.47l9.555,12.008c2.147-.756,4.384-1.355,6.669-1.789l2.274-15.165c.141-.948,.953-1.645,1.909-1.645h8.593c.957,0,1.769,.697,1.91,1.643l2.285,15.168c2.293,.434,4.527,1.033,6.676,1.789l9.56-12.008c.596-.748,1.649-.95,2.477-.47l7.438,4.308c.824,.481,1.176,1.49,.827,2.38l-5.609,14.29c1.748,1.499,3.38,3.131,4.87,4.867l14.294-5.613c.889-.351,1.898,.004,2.376,.831l4.307,7.44c.479,.83,.279,1.884-.469,2.478l-12.012,9.566c.763,2.188,1.361,4.421,1.787,6.672l15.174,2.281c.945,.144,1.646,.957,1.646,1.91v8.594c0,.956-.701,1.768-1.646,1.913l-15.174,2.282c-.423,2.235-1.021,4.462-1.787,6.653l12.012,9.561c.748,.595,.947,1.649,.469,2.479l-4.307,7.443c-.477,.824-1.487,1.18-2.376,.827l-14.294-5.609c-1.482,1.727-3.116,3.362-4.873,4.879l5.612,14.282c.352,.888-.003,1.901-.827,2.379l-7.438,4.308c-.827,.481-1.881,.281-2.477-.471l-9.564-12c-2.203,.77-4.437,1.369-6.674,1.781l-2.283,15.163c-.141,.944-.953,1.642-1.91,1.642Zm-6.929-3.86h5.268l2.242-14.901c.129-.838,.783-1.496,1.621-1.622,2.882-.437,5.781-1.208,8.617-2.297,.79-.299,1.678-.056,2.203,.602l9.393,11.785,4.556-2.641-5.516-14.032c-.308-.784-.07-1.675,.581-2.206,2.344-1.9,4.463-4.025,6.299-6.309,.527-.66,1.423-.897,2.212-.59l14.045,5.516,2.64-4.561-11.797-9.395c-.656-.522-.9-1.414-.601-2.201,1.08-2.818,1.857-5.715,2.312-8.607,.129-.834,.786-1.484,1.619-1.611l14.906-2.244v-5.269l-14.906-2.245c-.833-.126-1.49-.777-1.619-1.61-.458-2.913-1.235-5.817-2.312-8.628-.299-.787-.055-1.676,.601-2.201l11.797-9.391-2.64-4.565-14.045,5.516c-.789,.311-1.684,.07-2.212-.587-1.848-2.304-3.967-4.418-6.29-6.284-.66-.531-.898-1.426-.59-2.212l5.516-14.047-4.556-2.641-9.393,11.797c-.527,.662-1.422,.906-2.211,.599-2.727-1.062-5.628-1.84-8.621-2.312-.832-.132-1.484-.789-1.609-1.622l-2.242-14.901h-5.268l-2.233,14.901c-.126,.833-.773,1.49-1.607,1.622-2.99,.473-5.888,1.25-8.614,2.312-.792,.305-1.686,.064-2.212-.599l-9.391-11.797-4.566,2.641,5.516,14.047c.31,.786,.07,1.681-.587,2.212-2.297,1.843-4.418,3.961-6.308,6.29-.531,.654-1.423,.89-2.206,.581l-14.036-5.516-2.641,4.565,11.786,9.391c.66,.525,.9,1.414,.601,2.201-1.079,2.824-1.853,5.727-2.297,8.62-.126,.839-.786,1.492-1.622,1.618l-14.907,2.227v5.287l14.91,2.244c.835,.127,1.493,.78,1.619,1.617,.44,2.875,1.214,5.768,2.297,8.602,.3,.787,.06,1.676-.601,2.201l-11.786,9.391,2.641,4.565,14.036-5.516c.783-.307,1.675-.07,2.203,.581,1.881,2.316,4.005,4.441,6.316,6.317,.654,.531,.889,1.422,.581,2.206l-5.513,14.032,4.563,2.641,9.391-11.785c.525-.657,1.414-.9,2.2-.602,2.838,1.086,5.735,1.86,8.614,2.297,.836,.126,1.493,.784,1.619,1.622l2.233,14.901Z"/>
  <path class="cls-1" d="M242.058,136.479c-1.065,0-1.931-.862-1.931-1.931v-43.133c0-2.898-2.423-5.15-4.506-5.15h-3.219c-1.068,0-1.93-.864-1.93-1.93s.861-1.934,1.93-1.934h3.219c4.459,0,8.37,4.214,8.37,9.014v43.133c0,1.068-.866,1.931-1.934,1.931Z"/>
  <path class="cls-1" d="M249.14,143.562c-4.97,0-9.013-4.043-9.013-9.013,0-1.068,.865-1.93,1.931-1.93s1.934,.861,1.934,1.93c0,2.794,2.356,5.149,5.148,5.149,1.068,0,1.931,.864,1.931,1.934,0,1.063-.862,1.93-1.931,1.93Z"/>
  <path class="cls-1" d="M235.621,200.856h-3.219c-1.068,0-1.93-.861-1.93-1.93s.861-1.931,1.93-1.931h3.219c2.083,0,4.506-2.25,4.506-5.152v-43.133c0-1.065,.865-1.931,1.931-1.931s1.934,.866,1.934,1.931v43.133c0,4.804-3.911,9.013-8.37,9.013Z"/>
  <path class="cls-1" d="M242.058,150.645c-1.065,0-1.931-.865-1.931-1.934,0-4.967,4.043-9.013,9.013-9.013h3.219c1.067,0,1.934,.864,1.934,1.934,0,1.063-.866,1.93-1.934,1.93h-3.219c-2.792,0-5.148,2.359-5.148,5.149,0,1.068-.866,1.934-1.934,1.934Z"/>
  <path class="cls-1" d="M95.922,136.479c-1.067,0-1.93-.862-1.93-1.931v-43.133c0-4.971,4.043-9.014,9.013-9.014h3.218c1.065,0,1.932,.866,1.932,1.934s-.866,1.93-1.932,1.93h-3.218c-2.794,0-5.151,2.359-5.151,5.15v43.133c0,1.068-.863,1.931-1.932,1.931Z"/>
  <path class="cls-1" d="M89.485,143.562c-1.068,0-1.933-.866-1.933-1.93,0-1.069,.864-1.934,1.933-1.934,2.957,0,4.507-2.591,4.507-5.149,0-1.068,.862-1.93,1.93-1.93s1.932,.861,1.932,1.93c0,5.138-3.598,9.013-8.368,9.013Z"/>
  <path class="cls-1" d="M106.223,200.856h-3.218c-4.97,0-9.013-4.043-9.013-9.013v-43.133c0-1.065,.862-1.931,1.93-1.931s1.932,.866,1.932,1.931v43.133c0,2.793,2.357,5.152,5.151,5.152h3.218c1.065,0,1.932,.862,1.932,1.931s-.866,1.93-1.932,1.93Z"/>
  <path class="cls-1" d="M95.922,150.645c-1.067,0-1.93-.865-1.93-1.934,0-2.559-1.55-5.149-4.507-5.149h-3.219c-1.067,0-1.934-.866-1.934-1.93,0-1.069,.866-1.934,1.934-1.934h3.219c4.77,0,8.368,3.875,8.368,9.013,0,1.068-.863,1.934-1.932,1.934Z"/>
  <path class="cls-1" d="M298.067,42.49h-6.439c-1.064,0-1.931-.865-1.931-1.934V11.588H8.37c-1.068,0-1.933-.865-1.933-1.93V1.933c0-1.067,.865-1.933,1.933-1.933H298.067c1.064,0,1.931,.865,1.931,1.933V40.557c0,1.068-.866,1.934-1.931,1.934Zm-4.506-3.863h2.573V3.863H10.301v3.861H291.628c1.068,0,1.934,.865,1.934,1.934v28.969Z"/>
</svg>